<svg width="18" height="18" viewBox="0 0 18 18" fill="none" xmlns="http://www.w3.org/2000/svg">
<path d="M16.3125 7.875C16.6463 7.875 16.9725 7.77603 17.25 7.5906C17.5275 7.40518 17.7438 7.14163 17.8715 6.83328C17.9993 6.52493 18.0327 6.18563 17.9676 5.85828C17.9025 5.53094 17.7417 5.23026 17.5057 4.99426C17.2697 4.75826 16.9691 4.59754 16.6417 4.53242C16.3144 4.46731 15.9751 4.50073 15.6667 4.62845C15.3584 4.75618 15.0948 4.97247 14.9094 5.24998C14.724 5.52748 14.625 5.85374 14.625 6.1875C14.625 6.63505 14.8028 7.06428 15.1193 7.38074C15.4357 7.69721 15.865 7.875 16.3125 7.875ZM9.82512 6.27363C10.0135 6.21641 10.2094 6.18739 10.4063 6.1875C10.6343 6.1894 10.8604 6.23091 11.0742 6.3102L11.6139 4.60125C11.6518 4.48193 11.6627 4.35566 11.6458 4.2316C11.6289 4.10755 11.5846 3.9888 11.5161 3.88399C11.4476 3.77918 11.3566 3.69093 11.2498 3.62564C11.143 3.56034 11.023 3.51964 10.8984 3.50648C10.4931 3.45902 10.1176 3.73289 9.99457 4.12207L9.25981 6.44836L9.82512 6.27363ZM2.16738 13.5819C2.19551 13.5752 2.22152 13.5629 2.25 13.557V12.6538C2.25092 11.501 2.61508 10.3778 3.29074 9.44374C3.96641 8.5097 4.91922 7.81232 6.01383 7.45066L8.60485 6.65051L9.80578 2.84941C9.84353 2.73021 9.85432 2.60411 9.83736 2.48023C9.8204 2.35635 9.77612 2.23778 9.70772 2.13311C9.63931 2.02844 9.54851 1.94028 9.44186 1.87501C9.33521 1.80974 9.21539 1.76899 9.09106 1.7557C8.68571 1.70859 8.30988 1.98246 8.18684 2.37164L7.01086 6.11297C6.98834 6.18411 6.93849 6.24339 6.87226 6.27778C6.80603 6.31216 6.72886 6.31883 6.65772 6.29631C6.58657 6.27379 6.52729 6.22393 6.49291 6.15771C6.45853 6.09148 6.45186 6.01431 6.47438 5.94316L7.9991 1.09898C8.03685 0.979782 8.04764 0.85368 8.03068 0.729798C8.01372 0.605916 7.96944 0.487353 7.90104 0.382683C7.83263 0.278014 7.74183 0.189855 7.63518 0.124583C7.52853 0.0593119 7.40871 0.0185595 7.28438 0.00527394C6.87902 -0.0418354 6.50391 0.232032 6.38051 0.62086L4.69547 5.95441C4.673 6.02556 4.62319 6.08486 4.55699 6.11927C4.4908 6.15369 4.41364 6.1604 4.3425 6.13793C4.27136 6.11546 4.21206 6.06565 4.17764 5.99945C4.14322 5.93326 4.13651 5.8561 4.15899 5.78496L5.51461 1.4959C5.55236 1.3767 5.56315 1.25059 5.54619 1.12671C5.52922 1.00283 5.48494 0.884267 5.41654 0.779597C5.34814 0.674928 5.25733 0.586769 5.15068 0.521497C5.04404 0.456226 4.92421 0.415473 4.79988 0.402188C4.39453 0.351563 4.01906 0.626836 3.89602 1.01602L1.78664 7.69043L1.71422 5.93086C1.71491 5.82003 1.69377 5.71014 1.65198 5.60749C1.6102 5.50483 1.5486 5.41141 1.4707 5.33257C1.3928 5.25372 1.30013 5.191 1.19799 5.14798C1.09584 5.10495 0.986224 5.08248 0.875391 5.08184C0.410274 5.08008 0.00632813 5.45238 0 5.92066V9.88383C0.0110755 10.6349 0.216542 11.3704 0.596378 12.0185C0.976214 12.6666 1.51746 13.2052 2.16738 13.5819ZM17.1246 11.8125H11.5313C11.4567 11.8125 11.3851 11.7829 11.3324 11.7301C11.2796 11.6774 11.25 11.6058 11.25 11.5312C11.25 11.4567 11.2796 11.3851 11.3324 11.3324C11.3851 11.2796 11.4567 11.25 11.5313 11.25H16.0313C16.1563 11.2501 16.2798 11.2224 16.3928 11.1689C16.5058 11.1154 16.6056 11.0374 16.6848 10.9407C16.764 10.8439 16.8207 10.7307 16.8508 10.6094C16.8809 10.488 16.8836 10.3615 16.8588 10.2389C16.7818 9.83812 16.4078 9.5625 15.9996 9.5625H9L10.6555 8.96273C10.7614 8.93 10.8598 8.87673 10.9452 8.80596C11.0305 8.73519 11.101 8.6483 11.1528 8.55027C11.2045 8.45223 11.2364 8.34497 11.2467 8.23459C11.257 8.12422 11.2455 8.0129 11.2127 7.90699C11.18 7.80108 11.1267 7.70266 11.056 7.61734C10.9852 7.53202 10.8983 7.46147 10.8003 7.40973C10.7022 7.35798 10.595 7.32606 10.4846 7.31577C10.3742 7.30548 10.2629 7.31703 10.157 7.34977L6.36996 8.51871C5.49867 8.80516 4.74004 9.35937 4.20225 10.1023C3.66446 10.8453 3.37495 11.7391 3.375 12.6562V13.558C3.78066 13.6397 4.16321 13.8102 4.49522 14.0571C4.82724 14.3041 5.10049 14.6215 5.29539 14.9865C5.49029 15.3516 5.602 15.7552 5.62252 16.1685C5.64303 16.5818 5.57185 16.9945 5.41406 17.377C6.06937 17.7815 6.82368 17.9971 7.59375 18H14.9063C15.0313 18.0001 15.1548 17.9724 15.2678 17.9189C15.3808 17.8654 15.4806 17.7874 15.5598 17.6907C15.639 17.5939 15.6957 17.4807 15.7258 17.3594C15.7559 17.238 15.7586 17.1115 15.7338 16.9889C15.6568 16.5881 15.2828 16.3125 14.8746 16.3125H11.5313C11.4567 16.3125 11.3851 16.2829 11.3324 16.2301C11.2796 16.1774 11.25 16.1058 11.25 16.0312C11.25 15.9567 11.2796 15.8851 11.3324 15.8324C11.3851 15.7796 11.4567 15.75 11.5313 15.75H16.0313C16.1563 15.7501 16.2798 15.7224 16.3928 15.6689C16.5058 15.6154 16.6056 15.5374 16.6848 15.4407C16.764 15.3439 16.8207 15.2307 16.8508 15.1094C16.8809 14.988 16.8836 14.8615 16.8588 14.7389C16.7818 14.3381 16.4078 14.0625 15.9996 14.0625H11.5313C11.4567 14.0625 11.3851 14.0329 11.3324 13.9801C11.2796 13.9274 11.25 13.8558 11.25 13.7812C11.25 13.7067 11.2796 13.6351 11.3324 13.5824C11.3851 13.5296 11.4567 13.5 11.5313 13.5H17.1563C17.2813 13.5001 17.4048 13.4724 17.5178 13.4189C17.6308 13.3654 17.7306 13.2874 17.8098 13.1907C17.889 13.0939 17.9457 12.9807 17.9758 12.8594C18.0059 12.738 18.0086 12.6115 17.9838 12.4889C17.9068 12.0881 17.5328 11.8125 17.1246 11.8125ZM13.5 2.25C13.7225 2.25 13.94 2.18402 14.125 2.0604C14.31 1.93679 14.4542 1.76109 14.5394 1.55552C14.6245 1.34995 14.6468 1.12375 14.6034 0.905524C14.56 0.687295 14.4528 0.486839 14.2955 0.329505C14.1382 0.172171 13.9377 0.0650254 13.7195 0.0216171C13.5013 -0.0217913 13.2751 0.000487441 13.0695 0.085636C12.8639 0.170785 12.6882 0.314979 12.5646 0.499984C12.441 0.684989 12.375 0.902496 12.375 1.125C12.375 1.42337 12.4935 1.70952 12.7045 1.9205C12.9155 2.13147 13.2016 2.25 13.5 2.25ZM2.8125 14.625C2.47874 14.625 2.15248 14.724 1.87498 14.9094C1.59747 15.0948 1.38118 15.3584 1.25345 15.6667C1.12573 15.9751 1.09231 16.3144 1.15743 16.6417C1.22254 16.9691 1.38326 17.2697 1.61926 17.5057C1.85526 17.7417 2.15594 17.9025 2.48329 17.9676C2.81063 18.0327 3.14993 17.9993 3.45828 17.8715C3.76663 17.7438 4.03018 17.5275 4.21561 17.25C4.40103 16.9725 4.5 16.6463 4.5 16.3125C4.5 15.8649 4.32221 15.4357 4.00574 15.1193C3.68928 14.8028 3.26005 14.625 2.8125 14.625Z" fill="#AF1F25"/>
</svg>
