<svg width="20" height="18" viewBox="0 0 20 18" fill="none" xmlns="http://www.w3.org/2000/svg">
<path d="M5.23113 10.9986L4.5679 12.1958C2.11524 11.5479 -0.00145511 9.21833 7.50558e-07 6.22389C0.00145661 3.2709 2.09681 0.728056 4.94557 0.135856C7.90293 -0.478885 10.3646 1.09215 11.4353 2.84717C10.9415 2.89226 10.4724 3.01249 10.0388 3.26362C9.27858 2.31921 8.31914 1.70035 7.12965 1.472C6.14863 1.28365 5.1938 1.39492 4.27653 1.79876C2.56029 2.5541 1.22682 4.34524 1.40571 6.52738C1.60012 8.9032 2.97554 10.3353 5.23113 10.9986Z" fill="#AF1F25"/>
<path d="M12.4645 8.31319V12.4537H11.0913V8.31319H12.4645Z" fill="#AF1F25"/>
<path d="M11.0908 15.2256H12.4602V13.8577H11.0908V15.2256Z" fill="#AF1F25"/>
<path fill-rule="evenodd" clip-rule="evenodd" d="M11.7708 17.998C11.1893 17.998 10.6078 17.9975 10.0263 17.9969H10.0228C8.67476 17.9957 7.32679 17.9944 5.9787 18C4.63505 18.0056 3.73573 16.5172 4.40161 15.3304C5.64461 13.1149 6.87828 10.8941 8.11196 8.67335C8.77628 7.47746 9.44062 6.28157 10.1064 5.08652C10.4499 4.47008 10.9975 4.1724 11.6913 4.17192C12.3758 4.17119 12.9183 4.4662 13.2635 5.06785C13.931 6.23172 14.5967 7.39665 15.2624 8.56156C16.5461 10.8079 17.8298 13.0543 19.1266 15.293C19.7762 16.4146 19.0379 17.855 17.7565 17.9927C17.7021 17.9985 17.647 17.9983 17.592 17.9981C17.5822 17.9981 17.5725 17.998 17.5628 17.998H11.7708ZM11.7674 16.6156C12.2583 16.6156 12.7493 16.6153 13.2403 16.615C14.6642 16.614 16.0881 16.6131 17.5119 16.62C17.8719 16.6217 18.1698 16.4081 17.908 15.9536C16.5766 13.6427 15.2524 11.3277 13.9281 9.0127L13.9078 8.97719C13.4599 8.19422 13.0121 7.41126 12.5639 6.62846C12.5474 6.59966 12.531 6.57082 12.5146 6.54196C12.4832 6.48649 12.4519 6.43093 12.4205 6.37537C12.3037 6.16807 12.1868 5.96076 12.0621 5.75823C11.8668 5.44067 11.4951 5.45134 11.3102 5.77132C11.286 5.81325 11.2624 5.85567 11.2389 5.89785L10.5645 7.11045C9.96587 8.18695 9.36716 9.26351 8.76832 10.3399C8.52331 10.7804 8.27845 11.221 8.03358 11.6616L8.03051 11.6671C7.22788 13.1112 6.42526 14.5553 5.61752 15.9965C5.41245 16.3623 5.61801 16.6224 5.98646 16.6156C6.02282 16.6149 6.05919 16.6156 6.09555 16.6156H11.7674Z" fill="#AF1F25"/>
<path d="M6.91512 2.77833H5.53365V5.54515H2.77894V6.91475H6.91512V2.77833Z" fill="#AF1F25"/>
</svg>
