<svg width="15" height="18" viewBox="0 0 15 18" fill="none" xmlns="http://www.w3.org/2000/svg">
<path d="M7.2 0C5.29113 0.00221173 3.4611 0.747945 2.11132 2.07362C0.761551 3.39929 0.0022596 5.19665 7.66006e-06 7.07143C-0.00227859 8.6035 0.507267 10.094 1.45048 11.3143C1.45048 11.3143 1.64684 11.5682 1.67892 11.6049L7.2 18L12.7237 11.6016C12.7525 11.5676 12.9495 11.3143 12.9495 11.3143L12.9502 11.3124C13.8929 10.0926 14.4022 8.6028 14.4 7.07143C14.3977 5.19665 13.6384 3.39929 12.2887 2.07362C10.9389 0.747945 9.10887 0.00221173 7.2 0ZM7.2 9.64286C6.68217 9.64286 6.17598 9.49205 5.74542 9.20949C5.31486 8.92694 4.97928 8.52534 4.78112 8.05547C4.58295 7.5856 4.53111 7.06858 4.63213 6.56977C4.73315 6.07096 4.98251 5.61277 5.34867 5.25315C5.71483 4.89353 6.18134 4.64863 6.68922 4.54941C7.1971 4.45019 7.72352 4.50111 8.20193 4.69574C8.68034 4.89036 9.08925 5.21995 9.37694 5.64282C9.66463 6.06569 9.81818 6.56285 9.81818 7.07143C9.81731 7.75315 9.54119 8.40671 9.05037 8.88876C8.55956 9.37082 7.89412 9.64201 7.2 9.64286Z" fill="#AF1F25"/>
</svg>
