<svg width="15" height="14" viewBox="0 0 15 14" fill="none" xmlns="http://www.w3.org/2000/svg">
<path d="M4.13131 12.3341C3.79627 12.7165 3.48317 13.0731 3.17086 13.4305C2.87892 13.7644 2.51684 13.9705 2.07168 13.9932C1.41296 14.0265 0.896091 13.7609 0.592397 13.1715C0.27969 12.5649 0.360805 11.9661 0.769127 11.4285C1.01678 11.1021 1.30324 10.805 1.57284 10.4955C1.902 10.1177 2.23195 9.74073 2.57758 9.34495C2.26095 9.08788 1.95491 8.83788 1.64729 8.59022C1.40904 8.39821 1.16844 8.20854 0.929007 8.01731C-0.132551 7.16815 -0.306538 5.77155 0.521861 4.69823C1.39768 3.5634 2.27976 2.43326 3.15753 1.29999C3.65912 0.652242 4.30413 0.289377 5.13605 0.305443C5.87276 0.319551 6.468 0.632257 6.92412 1.20242C7.37202 1.762 7.80738 2.33138 8.24079 2.90271C8.32073 3.00773 8.40106 3.04653 8.53116 3.04614C10.2126 3.04183 11.8941 3.04339 13.5756 3.04339C13.9651 3.04339 14.0839 3.16409 14.0839 3.55987C14.0839 5.30719 14.0839 7.0549 14.0839 8.80222C14.0839 9.17919 13.9596 9.30223 13.5791 9.30223C11.6955 9.30223 9.81216 9.30223 7.92847 9.30223C7.56482 9.30223 7.43707 9.1737 7.43668 8.80849C7.43629 7.94129 7.43433 7.0741 7.43903 6.20691C7.43982 6.08308 7.4167 6.0051 7.28973 5.95337C6.79207 5.74999 6.44488 5.35343 6.08044 4.98155C6.02206 4.92199 5.98522 4.84165 5.93193 4.76093C5.42995 5.36244 4.97852 5.91026 4.5173 6.45064C4.42404 6.55997 4.47772 6.61915 4.54395 6.69673C4.98283 7.21321 5.41937 7.73204 5.85943 8.24773C6.13883 8.57493 6.26305 8.95034 6.26383 9.37982C6.26423 9.55146 6.31399 9.72545 6.35827 9.89356C6.57341 10.7106 6.80657 11.5233 7.00955 12.3435C7.18001 13.0316 6.74191 13.7483 6.06085 13.9466C5.3794 14.1449 4.63721 13.775 4.3923 13.1092C4.30177 12.8654 4.22575 12.6166 4.13131 12.3341ZM1.21272 12.4434C1.21272 12.8067 1.41413 13.0876 1.73977 13.1778C2.07873 13.2718 2.35382 13.1652 2.57914 12.9074C3.45104 11.912 4.32215 10.9159 5.19444 9.92059C5.57376 9.48798 5.57533 9.12942 5.20149 8.69054C4.6858 8.08511 4.17207 7.47811 3.65834 6.87111C3.47573 6.6552 3.46946 6.48474 3.64266 6.27548C4.27513 5.51292 4.90877 4.75113 5.54516 3.9917C5.72972 3.77147 5.96288 3.76129 6.17371 3.96114C6.35788 4.1363 6.54402 4.31107 6.71252 4.50073C7.06833 4.90278 7.49429 5.19629 7.97902 5.42671C8.68398 5.76175 9.37288 6.12932 10.0712 6.47847C10.3917 6.63874 10.7248 6.54156 10.8788 6.25354C11.0293 5.97257 10.9305 5.65007 10.6351 5.46197C10.5802 5.4271 10.523 5.39536 10.4658 5.3644C9.77258 4.99095 9.07741 4.62103 8.38734 4.24171C8.27723 4.18097 8.17299 4.09202 8.0954 3.99288C7.49977 3.23423 6.91785 2.465 6.31909 1.7091C5.66154 0.879131 4.51338 0.869726 3.85858 1.69656C2.94044 2.85647 2.03328 4.0254 1.13238 5.19864C0.572412 5.9279 0.702118 6.82722 1.42001 7.39778C2.05757 7.90446 2.69043 8.41741 3.32251 8.93153C3.5972 9.15528 3.60935 9.3618 3.37541 9.62944C2.74059 10.356 2.10656 11.0829 1.46978 11.8078C1.30911 11.9916 1.20645 12.1946 1.21272 12.4434ZM8.22864 6.4334C8.22864 7.14307 8.22864 7.82413 8.22864 8.50753C9.92384 8.50753 11.6073 8.50753 13.288 8.50753C13.288 6.94047 13.288 5.38634 13.288 3.84162C11.9651 3.84162 10.6574 3.84162 9.30744 3.84162C9.40971 3.89883 9.47163 3.93449 9.53433 3.96819C10.0324 4.2374 10.5375 4.49368 11.0265 4.77778C11.7499 5.19747 11.9541 6.08464 11.4983 6.7512C11.1147 7.31235 10.3945 7.5075 9.76748 7.20576C9.25885 6.96085 8.75765 6.69987 8.22864 6.4334ZM5.71287 10.5268C5.38528 10.9003 5.08433 11.24 4.78847 11.5844C4.76182 11.6154 4.74967 11.6812 4.76221 11.7204C4.88487 12.1033 5.0036 12.4877 5.14546 12.8635C5.25008 13.1398 5.55809 13.2687 5.8367 13.1844C6.11375 13.1006 6.31713 12.8267 6.25208 12.5618C6.08867 11.8948 5.90214 11.2337 5.71287 10.5268Z" fill="#AF1F25"/>
</svg>
