<svg width="21" height="18" viewBox="0 0 21 18" fill="none" xmlns="http://www.w3.org/2000/svg">
<path d="M20.3843 3.08854C20.3843 4.79428 19.0015 6.17707 17.2958 6.17707C15.59 6.17707 14.2073 4.79428 14.2073 3.08854C14.2073 1.38279 15.59 0 17.2958 0C19.0015 0 20.3843 1.38279 20.3843 3.08854Z" fill="#AF1F25"/>
<path d="M18.5312 15.9678V7.5484C18.9675 7.42889 19.3838 7.24573 19.7666 7.00482V16.7646C19.7666 17.0923 19.6365 17.4065 19.4048 17.6381C19.1731 17.8699 18.8589 18 18.5312 18H1.23541C0.907767 18 0.593531 17.8699 0.361844 17.6381C0.130156 17.4065 0 17.0923 0 16.7646V4.41044C0 4.08277 0.130156 3.76856 0.361844 3.53689C0.593531 3.30517 0.907767 3.17502 1.23541 3.17502H12.663C12.6706 3.59359 12.7351 4.00918 12.8545 4.41044H2.04461L9.77213 12.1132L14.8744 7.04188C15.2583 7.27642 15.6745 7.45332 16.1098 7.56691L10.6554 12.9904C10.424 13.2205 10.1109 13.3496 9.78448 13.3496C9.45811 13.3496 9.14498 13.2205 8.91351 12.9904L1.23541 5.34937V16.0481L5.69526 11.4338L6.58476 12.2924L2.26081 16.7646H17.5799L13.1139 12.2924L13.9849 11.4214L18.5312 15.9678Z" fill="#AF1F25"/>
</svg>
