<svg width="18" height="18" viewBox="0 0 18 18" fill="none" xmlns="http://www.w3.org/2000/svg">
<path fill-rule="evenodd" clip-rule="evenodd" d="M11.3142 8.85962C11.9279 8.24589 12.2727 7.41342 12.2727 6.54545C12.2727 5.67748 11.9279 4.84502 11.3142 4.23128C10.7004 3.61755 9.86798 3.27273 9 3.27273C8.13202 3.27273 7.29958 3.61755 6.68583 4.23128C6.07207 4.84502 5.72727 5.67748 5.72727 6.54545C5.72727 7.41342 6.07207 8.24589 6.68583 8.85962C7.29958 9.47336 8.13202 9.81818 9 9.81818C9.86798 9.81818 10.7004 9.47336 11.3142 8.85962ZM10.1571 7.70251C10.464 7.39565 10.6364 6.97946 10.6364 6.54545C10.6364 6.11144 10.464 5.69526 10.1571 5.38839C9.8502 5.08148 9.43399 4.90909 9 4.90909C8.56601 4.90909 8.1498 5.08148 7.84292 5.38839C7.53604 5.69526 7.36364 6.11144 7.36364 6.54545C7.36364 6.97946 7.53604 7.39565 7.84292 7.70251C8.1498 8.00943 8.56601 8.18182 9 8.18182C9.43399 8.18182 9.8502 8.00943 10.1571 7.70251Z" fill="#AF1F25"/>
<path fill-rule="evenodd" clip-rule="evenodd" d="M0 9C0 4.02954 4.02955 0 9 0C13.9705 0 18 4.02954 18 9C18 13.9705 13.9705 18 9 18C4.02955 18 0 13.9705 0 9ZM3.19745 13.5344C2.21973 12.2842 1.63636 10.71 1.63636 9C1.63651 7.8308 1.91507 6.67844 2.44901 5.63823C2.98294 4.59808 3.75688 3.7 4.70681 3.01829C5.65674 2.33664 6.75534 1.89095 7.9117 1.71816C9.06807 1.54538 10.249 1.6504 11.3567 2.02458C12.4644 2.39881 13.4671 3.03138 14.2818 3.87003C15.0965 4.70869 15.6997 5.72927 16.0417 6.84733C16.3836 7.96544 16.4544 9.14886 16.2482 10.2997C16.042 11.4507 15.5646 12.5358 14.8557 13.4656C14.1676 12.5836 13.2872 11.8702 12.2817 11.3799C11.2761 10.8896 10.1719 10.6353 9.05318 10.6364C7.91979 10.6354 6.80152 10.8964 5.78572 11.3992C4.76992 11.9019 3.8841 12.6326 3.19745 13.5344ZM4.35927 14.7174C5.67022 15.7847 7.3096 16.3662 9 16.3636C10.7203 16.366 12.3867 15.7637 13.7078 14.6618C13.1779 13.9221 12.4792 13.3194 11.6697 12.9039C10.8601 12.4884 9.96313 12.272 9.05318 12.2727C8.13174 12.2721 7.22377 12.494 6.40652 12.9197C5.58928 13.3453 4.88694 13.9621 4.35927 14.7174Z" fill="#AF1F25"/>
</svg>
