<svg width="18" height="18" viewBox="0 0 18 18" fill="none" xmlns="http://www.w3.org/2000/svg">
<path fill-rule="evenodd" clip-rule="evenodd" d="M4.22103 3.77565C4.28351 1.549 5.98593 -0.0589609 8.21439 0.00165804C10.2429 0.0572775 11.8629 1.83647 11.8123 3.95439C11.7642 5.96668 9.97803 7.65339 7.95824 7.5934C5.84599 7.53028 4.16356 5.8117 4.22103 3.77565ZM7.9951 7.03033C9.76625 7.0397 11.2419 5.5986 11.2506 3.85002C11.26 2.03708 9.82685 0.568476 8.04071 0.560977C6.22458 0.554103 4.78455 2.00208 4.7858 3.83502C4.78643 5.5711 6.2427 7.02095 7.9951 7.03033ZM5.63047 7.48525C5.5523 7.50926 5.47515 7.53152 5.399 7.55349L5.39899 7.55349L5.39898 7.5535L5.39898 7.5535C5.24326 7.59842 5.09177 7.64213 4.9445 7.69711C2.71167 8.53577 1.17606 10.0144 0.667518 12.4135C0.592549 12.7666 0.571933 13.1359 0.56756 13.4984C0.558397 14.2467 0.560321 14.9951 0.562245 15.7437V15.7437L0.562245 15.7437C0.562945 16.016 0.563645 16.2883 0.563811 16.5606C0.564436 17.1418 0.859939 17.4368 1.4497 17.4374C5.82351 17.438 10.1973 17.438 14.5711 17.4374C15.1759 17.4374 15.4639 17.148 15.4708 16.5375C15.4725 16.3881 15.4721 16.2383 15.4717 16.0827C15.4716 16.0143 15.4714 15.9449 15.4714 15.8738C15.343 15.9438 15.2186 16.0121 15.0968 16.0789C14.8411 16.2193 14.5969 16.3534 14.3506 16.4837C14.1257 16.6025 13.9064 16.5937 13.6665 16.485C12.3789 15.9019 11.5068 14.9201 10.9352 13.6534C10.3523 12.3623 10.1299 10.9955 10.1236 9.58692C10.1224 9.28945 10.2517 9.18633 10.5416 9.18696C11.3219 9.18883 12.0628 8.95823 12.7182 8.52577C12.0135 8.0127 11.2282 7.71773 10.4072 7.49213C10.8314 7.0278 10.8795 6.99468 11.4268 7.23153C11.8606 7.41904 12.2848 7.62966 12.7262 7.84884L12.7263 7.84887C12.9218 7.94597 13.1208 8.04475 13.3254 8.14394C13.3595 8.11496 13.3979 8.08268 13.4393 8.04785L13.4394 8.04769C13.5551 7.95036 13.6945 7.83309 13.8302 7.7121C13.9908 7.56837 14.1501 7.56149 14.2975 7.7146C15.2146 8.66826 16.4091 9.03885 17.6493 9.30757C17.8535 9.35194 18.0079 9.40381 18.0004 9.65253C17.946 11.4499 17.6368 13.1878 16.531 14.6564C16.1349 15.1826 15.9718 15.6857 16.0268 16.3106C16.0474 16.5456 16.0324 16.7937 15.9806 17.0243C15.8531 17.5849 15.3115 17.9979 14.718 17.9979C10.2611 18.0004 5.80352 18.0011 1.34661 17.9973C0.572557 17.9967 0.00716605 17.4274 0.00279286 16.6562C0.000175392 16.2003 0.00121337 15.7446 0.00225134 15.2889C0.00344306 14.7656 0.00463475 14.2424 0.000293893 13.719C-0.0215721 11.083 1.17731 9.14634 3.39389 7.80085C3.59724 7.67752 3.81659 7.58062 4.03612 7.48363C4.22597 7.39974 4.41597 7.3158 4.5959 7.21465C5.03197 6.9703 5.33059 7.14841 5.63047 7.48525ZM17.4368 9.84689C16.1711 9.56192 15.0141 9.13134 14.0501 8.28767C13.0624 9.11446 11.9835 9.67753 10.7115 9.77065C10.6109 10.8974 11.0901 12.8878 11.7061 13.9346C12.2078 14.7876 12.8619 15.4857 13.7759 15.9C13.9058 15.9588 14.1182 15.9763 14.23 15.9094C14.2866 15.8755 14.3437 15.8417 14.4009 15.8079L14.4009 15.8079C14.7734 15.5874 15.1519 15.3633 15.4558 15.067C16.9102 13.6465 17.32 11.8136 17.4368 9.84689ZM4.21118 16.3122C4.41479 16.3118 4.61841 16.3113 4.82203 16.3113C5.04348 16.3113 5.26486 16.311 5.48623 16.3107H5.4863H5.48637C5.97314 16.31 6.45981 16.3094 6.94677 16.3119C7.17106 16.3138 7.32849 16.2326 7.3035 15.9932C7.27976 15.7676 7.09296 15.7476 6.90179 15.7482C6.45085 15.7493 5.99999 15.7487 5.54916 15.7481C4.66714 15.747 3.78529 15.7458 2.90344 15.757C2.60732 15.7607 2.52673 15.6545 2.53047 15.3845C2.53984 14.6977 2.54422 14.0097 2.53047 13.3229C2.50798 12.1849 2.87096 11.2006 3.66875 10.3838C3.80995 10.2394 3.88679 10.0813 3.71561 9.92696C3.55068 9.77822 3.39699 9.85884 3.25517 10.0032C2.64168 10.6288 2.16438 11.3593 2.08066 12.2255C1.98459 13.2217 1.9854 14.2288 1.9862 15.2327V15.2328V15.2329C1.98629 15.3518 1.98639 15.4707 1.98632 15.5895C1.98632 16.1151 2.22435 16.3044 2.76038 16.3094C3.24398 16.3143 3.72758 16.3132 4.21118 16.3122ZM4.34723 9.02014C4.39162 9.08133 4.43695 9.13407 4.47725 9.18095C4.55549 9.27199 4.61479 9.34098 4.6115 9.40698C4.6065 9.50509 4.45531 9.67258 4.37097 9.67133C4.27164 9.66945 4.10858 9.52634 4.09671 9.42885C4.08845 9.36318 4.14568 9.2896 4.22169 9.19187C4.26069 9.14172 4.30465 9.08521 4.34723 9.02014ZM14.4269 11.9212C14.1429 12.1763 13.8569 12.4332 13.5672 12.6935C13.4709 12.6041 13.3777 12.5158 13.286 12.429C13.0459 12.2016 12.8168 11.9845 12.5726 11.7855C12.5175 11.7406 12.4185 11.7495 12.3195 11.7584C12.2737 11.7626 12.2279 11.7667 12.1865 11.7655C12.1877 11.8094 12.1832 11.8588 12.1787 11.9082C12.1689 12.0161 12.1591 12.124 12.2083 12.1755C12.5738 12.5573 12.9649 12.9166 13.366 13.2622C13.4416 13.3272 13.6534 13.3491 13.7183 13.2935C14.4662 12.6498 15.2034 11.9942 15.9237 11.3205C15.9726 11.275 15.9622 11.1663 15.9517 11.0574C15.9468 11.0064 15.9419 10.9553 15.9431 10.9106C15.9049 10.9108 15.8666 10.9099 15.8282 10.9091C15.7354 10.9071 15.6426 10.9051 15.552 10.9175C15.5165 10.9222 15.4852 10.9573 15.4539 10.9923C15.4401 11.0078 15.4262 11.0233 15.412 11.0362C15.0846 11.3305 14.7571 11.6246 14.4269 11.9212Z" fill="#AF1F25"/>
</svg>
