<svg width="18" height="18" viewBox="0 0 18 18" fill="none" xmlns="http://www.w3.org/2000/svg">
<path d="M3.7322 5.793L3.025 5.08579L2.318 5.7928L3.7322 7.207L5.8536 5.08579L5.14641 4.3788L3.7322 5.793Z" fill="#AF1F25"/>
<path d="M6.5 4.5H11.5V5.49999H6.5V4.5Z" fill="#AF1F25"/>
<path d="M9.50001 6.5H6.5V7.5H9.50001V6.5Z" fill="#AF1F25"/>
<path d="M3.025 9.0858L3.7322 9.793L5.14641 8.37879L5.8536 9.0858L3.7322 11.207L2.318 9.7928L3.025 9.0858Z" fill="#AF1F25"/>
<path d="M11.5 8.5H6.5V9.5H11.5V8.5Z" fill="#AF1F25"/>
<path d="M6.5 10.5H9.50001V11.5H6.5V10.5Z" fill="#AF1F25"/>
<path d="M3.7322 13.793L3.025 13.0858L2.318 13.7928L3.7322 15.207L5.8536 13.0858L5.14641 12.3788L3.7322 13.793Z" fill="#AF1F25"/>
<path d="M6.5 12.5H11.5V13.5H6.5V12.5Z" fill="#AF1F25"/>
<path d="M9.50001 14.5H6.5V15.5H9.50001V14.5Z" fill="#AF1F25"/>
<path fill-rule="evenodd" clip-rule="evenodd" d="M1.5 18H12.5C13.3284 18 14 17.3284 14 16.5V2.99999C14 2.17159 13.3284 1.5 12.5 1.5H10V0.499993C10 0.223799 9.7762 0 9.50001 0H4.50001C4.2238 0 4 0.223799 4 0.499993V1.5H1.5C0.671602 1.5 0 2.17159 0 2.99999V16.5C0 17.3284 0.671602 18 1.5 18ZM5.00001 0.999995H9.00001V2H5.00001V0.999995ZM1.5 2.99999H12.5V16.5H1.5V2.99999Z" fill="#AF1F25"/>
<path fill-rule="evenodd" clip-rule="evenodd" d="M16.5 18L15 15.5V2.99999H18V15.5L16.5 18ZM17 4H16V5H17V4ZM17 6H16V15.223L16.5 16.0564L17 15.223V6Z" fill="#AF1F25"/>
</svg>
