<svg width="22" height="18" viewBox="0 0 22 18" fill="none" xmlns="http://www.w3.org/2000/svg">
<path d="M20.647 0C20.9118 0 21.1434 0.198531 21.1765 0.430153C21.1765 0.562504 21.1434 0.694855 21.0441 0.794125C20.9448 0.893386 20.8456 0.926476 20.7132 0.926476H6.48529C6.22058 0.926476 6.02206 0.727945 6.02206 0.463243C6.02206 0.198531 6.22058 0 6.48529 0H20.647Z" fill="#AF1F25"/>
<path fill-rule="evenodd" clip-rule="evenodd" d="M13.9963 5.39339C13.9963 4.06986 15.0882 2.97794 16.4118 2.97794C17.7353 2.97794 18.8272 4.06986 18.8272 5.39339C18.8272 6.71691 17.7353 7.80882 16.4118 7.80882C15.0882 7.80882 13.9963 6.71691 13.9963 5.39339ZM16.9412 5.42648L17.9338 4.66544C18.0993 4.53309 18.1323 4.33456 18.0662 4.2353C17.9338 4.06986 17.7353 4.03677 17.5698 4.16912L16.8088 4.73162V3.77207C16.8088 3.57353 16.6434 3.40809 16.4448 3.40809C16.2463 3.40809 16.0809 3.57353 16.0809 3.77207V5.52574C16.0809 5.54228 16.0891 5.55056 16.0974 5.55883C16.1057 5.5671 16.114 5.57538 16.114 5.59192C16.147 5.59192 16.147 5.625 16.147 5.625C16.1801 5.625 16.1801 5.65809 16.1801 5.65809L17.3382 6.81617C17.4375 6.88236 17.5037 6.91545 17.6029 6.91545C17.6691 6.91545 17.7684 6.88236 17.8345 6.81617C17.9669 6.68382 17.9669 6.4522 17.8345 6.31985L16.9412 5.42648Z" fill="#AF1F25"/>
<path fill-rule="evenodd" clip-rule="evenodd" d="M7.41176 5.19485V1.62133H20.1838V9.19853C20.1838 9.62867 19.8198 9.95956 19.4228 9.95956H7.90808V6.94853C7.90808 6.28676 7.70955 5.69118 7.41176 5.19485ZM12.0772 5.32721C11.8787 5.32721 11.7132 5.49265 11.7132 5.69118V7.97426C11.7132 8.17279 11.8787 8.33823 12.0772 8.33823C12.2757 8.33823 12.4412 8.17279 12.4412 7.97426V5.69118C12.4412 5.49265 12.2757 5.32721 12.0772 5.32721ZM11.2169 6.51838C11.0184 6.51838 10.8529 6.68382 10.8529 6.88236V8.00735C10.8529 8.20588 11.0184 8.37133 11.2169 8.37133C11.4154 8.37133 11.5809 8.20588 11.5809 8.00735V6.88236C11.5809 6.68382 11.4154 6.51838 11.2169 6.51838ZM10.3235 6.08824C10.125 6.08824 9.95956 6.25368 9.95956 6.4522V8.00735C9.95956 8.20588 10.125 8.37133 10.3235 8.37133C10.522 8.37133 10.6875 8.20588 10.6875 8.00735V6.4522C10.6875 6.25368 10.522 6.08824 10.3235 6.08824ZM9.46323 6.94853C9.2647 6.94853 9.09926 7.11397 9.09926 7.3125V7.97426C9.09926 8.17279 9.2647 8.33823 9.46323 8.33823C9.66176 8.33823 9.8272 8.17279 9.8272 7.97426V7.3125C9.8272 7.11397 9.66176 6.94853 9.46323 6.94853ZM8.86764 9.33088H12.6066C12.8051 9.33088 12.9706 9.16544 13.0037 8.96691C13.0037 8.76838 12.8382 8.60294 12.6397 8.60294H8.86764C8.66912 8.60294 8.50368 8.76838 8.50368 8.96691C8.50368 9.16544 8.66912 9.33088 8.86764 9.33088ZM13.3015 5.39339C13.3015 7.11397 14.6912 8.50368 16.4118 8.50368C18.1323 8.50368 19.522 7.11397 19.522 5.39339C19.522 3.67279 18.1323 2.2831 16.4118 2.2831C14.6912 2.2831 13.3015 3.67279 13.3015 5.39339Z" fill="#AF1F25"/>
<path d="M4.56617 4.30147C6.02206 4.30147 7.21323 5.49265 7.27941 6.94853V10.1581C7.27941 10.6213 7.01471 11.0515 6.58455 11.2169V6.55147C6.58455 6.35294 6.41911 6.1875 6.22058 6.1875C6.02206 6.1875 5.85662 6.35294 5.85662 6.55147V17.3713C5.85662 17.7022 5.59191 18 5.22793 18C4.86397 18 4.59926 17.7022 4.59926 17.3713V13.0698C4.59926 12.5404 4.16912 12.1103 3.6397 12.1103C3.11029 12.1103 2.68015 12.5404 2.68015 13.0698V17.3713C2.68015 17.7022 2.38236 18 2.05147 18C1.6875 18 1.42279 17.7022 1.42279 17.3713V6.55147C1.42279 6.35294 1.25735 6.1875 1.05883 6.1875C0.860296 6.1875 0.694855 6.35294 0.694855 6.55147V11.2169C0.297792 11.0515 0 10.6544 0 10.1581V6.94853C0 5.49265 1.19118 4.30147 2.64706 4.30147H4.56617Z" fill="#AF1F25"/>
<path d="M1.91911 1.78677C1.91911 0.893386 2.64706 0.198531 3.60661 0.198531C4.56617 0.198531 5.29412 0.893386 5.29412 1.78677C5.29412 2.71324 4.59926 3.54044 3.73896 3.60662H3.47426C2.64706 3.50735 1.91911 2.71324 1.91911 1.78677Z" fill="#AF1F25"/>
<path d="M15.0882 14.5588C15.2868 14.4265 15.5184 14.3603 15.75 14.3272C15.6838 14.2279 15.6176 14.1287 15.5184 14.0294L14.1287 12.6397V10.4559H13.4338V12.6397L12.0441 14.0294L11.8456 14.3272C12.0772 14.3603 12.3088 14.4596 12.5073 14.5588L13.4338 13.6323V15.5184C13.4338 15.5349 13.4421 15.5515 13.4504 15.568C13.4586 15.5845 13.4669 15.6011 13.4669 15.6176V15.6507C13.5331 15.7831 13.6654 15.8823 13.7978 15.8823C13.9632 15.8823 14.0625 15.7831 14.1287 15.6507V15.6176C14.1618 15.5846 14.1618 15.5515 14.1618 15.5184V13.6323L15.0882 14.5588Z" fill="#AF1F25"/>
<path d="M14.7243 16.3456C14.7243 15.5846 15.3198 14.989 16.0809 14.989H18.3309C19.0919 14.989 19.6875 15.6176 19.7206 16.3456V18H14.7243V16.3456Z" fill="#AF1F25"/>
<path d="M16.0478 13.136C16.0478 12.5074 16.5772 11.9779 17.2059 11.9779C17.8345 11.9779 18.364 12.4743 18.364 13.136C18.364 13.7647 17.8345 14.2941 17.2059 14.2941C16.5772 14.2941 16.0478 13.7647 16.0478 13.136Z" fill="#AF1F25"/>
<path d="M7.94117 16.3456C7.94117 15.5846 8.53676 14.989 9.29779 14.989H11.5478C12.2757 14.989 12.9044 15.6176 12.9044 16.3456V18H7.94117V16.3456Z" fill="#AF1F25"/>
<path d="M9.2647 13.136C9.2647 12.5074 9.79412 11.9779 10.4228 11.9779C11.0515 11.9779 11.5809 12.4743 11.5809 13.136C11.5809 13.7647 11.0515 14.2941 10.4228 14.2941C9.79412 14.2941 9.2647 13.7647 9.2647 13.136Z" fill="#AF1F25"/>
</svg>
