<svg width="19" height="19" viewBox="0 0 19 19" fill="none" xmlns="http://www.w3.org/2000/svg">
<path d="M10.4548 13.0971C10.4196 13.0622 10.372 13.0426 10.3224 13.0426C10.2728 13.0426 10.2252 13.0622 10.19 13.0971L7.46638 15.8207C6.20538 17.0817 4.07715 17.2153 2.6849 15.8207C1.2903 14.4261 1.4239 12.3002 2.6849 11.0392L5.40847 8.31562C5.48113 8.24296 5.48113 8.12342 5.40847 8.05076L4.47561 7.1179C4.44037 7.08301 4.39278 7.06343 4.34318 7.06343C4.29359 7.06343 4.24599 7.08301 4.21075 7.1179L1.48718 9.84147C-0.495727 11.8244 -0.495727 15.0331 1.48718 17.0137C3.47009 18.9943 6.67884 18.9966 8.65941 17.0137L11.383 14.2901C11.4556 14.2175 11.4556 14.0979 11.383 14.0253L10.4548 13.0971ZM16.516 1.98718C14.5331 0.0042727 11.3244 0.0042727 9.34381 1.98718L6.6179 4.71075C6.58301 4.74599 6.56343 4.79359 6.56343 4.84318C6.56343 4.89278 6.58301 4.94037 6.6179 4.97561L7.54842 5.90612C7.62108 5.97878 7.74061 5.97878 7.81327 5.90612L10.5368 3.18255C11.7978 1.92155 13.9261 1.78795 15.3183 3.18255C16.7129 4.57715 16.5793 6.70304 15.3183 7.96404L12.5948 10.6876C12.5599 10.7228 12.5403 10.7704 12.5403 10.82C12.5403 10.8696 12.5599 10.9172 12.5948 10.9525L13.5276 11.8853C13.6003 11.958 13.7198 11.958 13.7925 11.8853L16.516 9.16175C18.4966 7.17884 18.4966 3.97009 16.516 1.98718ZM11.3009 6.22723C11.2657 6.19234 11.2181 6.17276 11.1685 6.17276C11.1189 6.17276 11.0713 6.19234 11.0361 6.22723L5.72723 11.5337C5.69234 11.569 5.67276 11.6166 5.67276 11.6662C5.67276 11.7158 5.69234 11.7634 5.72723 11.7986L6.6554 12.7268C6.72806 12.7994 6.8476 12.7994 6.92026 12.7268L12.2268 7.42026C12.2994 7.3476 12.2994 7.22806 12.2268 7.1554L11.3009 6.22723Z" fill="#AF1F25"/>
</svg>
