<svg width="15" height="18" viewBox="0 0 15 18" fill="none" xmlns="http://www.w3.org/2000/svg">
<path d="M11.727 8.127C11.7933 8.0652 11.8465 7.99068 11.8834 7.90788C11.9203 7.82508 11.9401 7.7357 11.9417 7.64507C11.9433 7.55444 11.9267 7.46441 11.8927 7.38036C11.8588 7.29631 11.8082 7.21996 11.7441 7.15587C11.68 7.09177 11.6037 7.04124 11.5196 7.00729C11.4356 6.97334 11.3456 6.95667 11.2549 6.95827C11.1643 6.95987 11.0749 6.9797 10.9921 7.0166C10.9093 7.05349 10.8348 7.10668 10.773 7.173L6.3 11.646L4.527 9.873C4.39904 9.75377 4.2298 9.68886 4.05493 9.69194C3.88006 9.69503 3.71321 9.76587 3.58954 9.88954C3.46587 10.0132 3.39503 10.1801 3.39194 10.3549C3.38886 10.5298 3.45377 10.699 3.573 10.827L5.823 13.077C5.94956 13.2034 6.12112 13.2744 6.3 13.2744C6.47888 13.2744 6.65044 13.2034 6.777 13.077L11.727 8.127ZM10.7946 1.8756C10.7569 1.36577 10.5277 0.889075 10.1531 0.541187C9.77854 0.1933 9.28622 -2.9968e-05 8.775 3.48427e-09H5.625C5.12691 1.5052e-05 4.64629 0.183606 4.27504 0.515674C3.90379 0.847743 3.66794 1.30499 3.6126 1.8H2.025C1.48794 1.8 0.97287 2.01335 0.593109 2.39311C0.213348 2.77287 0 3.28794 0 3.825V15.975C0 16.5121 0.213348 17.0271 0.593109 17.4069C0.97287 17.7867 1.48794 18 2.025 18H12.375C12.6409 18 12.9043 17.9476 13.1499 17.8459C13.3956 17.7441 13.6189 17.5949 13.8069 17.4069C13.9949 17.2189 14.1441 16.9956 14.2459 16.7499C14.3476 16.5042 14.4 16.2409 14.4 15.975V3.825C14.4 3.55907 14.3476 3.29575 14.2459 3.05007C14.1441 2.80438 13.9949 2.58115 13.8069 2.39311C13.6189 2.20507 13.3956 2.05591 13.1499 1.95414C12.9043 1.85238 12.6409 1.8 12.375 1.8H10.7874L10.7946 1.8756ZM10.7946 1.8864L10.8 2.025C10.8 1.9782 10.7982 1.9323 10.7955 1.8864H10.7946ZM5.625 4.05H8.775C9.477 4.05 10.0953 3.6927 10.4589 3.15H12.375C12.554 3.15 12.7257 3.22112 12.8523 3.3477C12.9789 3.47429 13.05 3.64598 13.05 3.825V15.975C13.05 16.154 12.9789 16.3257 12.8523 16.4523C12.7257 16.5789 12.554 16.65 12.375 16.65H2.025C1.84598 16.65 1.67429 16.5789 1.5477 16.4523C1.42112 16.3257 1.35 16.154 1.35 15.975V3.825C1.35 3.64598 1.42112 3.47429 1.5477 3.3477C1.67429 3.22112 1.84598 3.15 2.025 3.15H3.9411C4.3047 3.6927 4.923 4.05 5.625 4.05ZM5.625 1.35H8.775C8.95402 1.35 9.12571 1.42112 9.2523 1.5477C9.37888 1.67429 9.45 1.84598 9.45 2.025C9.45 2.20402 9.37888 2.37571 9.2523 2.5023C9.12571 2.62888 8.95402 2.7 8.775 2.7H5.625C5.44598 2.7 5.27429 2.62888 5.1477 2.5023C5.02112 2.37571 4.95 2.20402 4.95 2.025C4.95 1.84598 5.02112 1.67429 5.1477 1.5477C5.27429 1.42112 5.44598 1.35 5.625 1.35Z" fill="#AF1F25"/>
</svg>
