<svg width="35" height="35" viewBox="0 0 35 35" fill="none" xmlns="http://www.w3.org/2000/svg">
<rect width="35" height="35" rx="17.5" fill="#E4E4E4"/>
<path d="M10.1515 20.404H6.8155L6.2635 22H4.4995L7.5115 13.612H9.4675L12.4795 22H10.7035L10.1515 20.404ZM9.6955 19.06L8.4835 15.556L7.2715 19.06H9.6955ZM20.7693 22H19.0893L15.2853 16.252V22H13.6053V13.612H15.2853L19.0893 19.372V13.612H20.7693V22ZM22.0216 17.8C22.0216 16.976 22.2056 16.24 22.5736 15.592C22.9496 14.936 23.4576 14.428 24.0976 14.068C24.7456 13.7 25.4696 13.516 26.2696 13.516C27.2056 13.516 28.0256 13.756 28.7296 14.236C29.4336 14.716 29.9256 15.38 30.2056 16.228H28.2736C28.0816 15.828 27.8096 15.528 27.4576 15.328C27.1136 15.128 26.7136 15.028 26.2576 15.028C25.7696 15.028 25.3336 15.144 24.9496 15.376C24.5736 15.6 24.2776 15.92 24.0616 16.336C23.8536 16.752 23.7496 17.24 23.7496 17.8C23.7496 18.352 23.8536 18.84 24.0616 19.264C24.2776 19.68 24.5736 20.004 24.9496 20.236C25.3336 20.46 25.7696 20.572 26.2576 20.572C26.7136 20.572 27.1136 20.472 27.4576 20.272C27.8096 20.064 28.0816 19.76 28.2736 19.36H30.2056C29.9256 20.216 29.4336 20.884 28.7296 21.364C28.0336 21.836 27.2136 22.072 26.2696 22.072C25.4696 22.072 24.7456 21.892 24.0976 21.532C23.4576 21.164 22.9496 20.656 22.5736 20.008C22.2056 19.36 22.0216 18.624 22.0216 17.8Z" fill="#AF1F25"/>
</svg>
