<svg width="20" height="17" viewBox="0 0 20 17" fill="none" xmlns="http://www.w3.org/2000/svg">
<path fill-rule="evenodd" clip-rule="evenodd" d="M19.9992 9.13644C20.015 9.68757 19.8131 10.22 19.2799 10.6118C18.9608 10.8464 18.6582 11.107 18.3646 11.3743C17.9155 11.7824 17.3927 11.8702 16.8237 11.7637C16.0176 11.613 15.3201 11.216 14.6536 10.7579C14.5195 10.6656 14.4923 10.499 14.5729 10.3772C14.6649 10.2383 14.8183 10.213 14.9792 10.3209C15.4769 10.6552 15.989 10.9637 16.5676 11.1313C16.7965 11.1976 17.0391 11.2427 17.2762 11.2483C17.7818 11.2604 18.1054 10.971 18.196 10.4698C18.285 9.97875 18.1974 9.50259 18.0654 9.03336C17.757 7.93701 17.219 6.9531 16.5759 6.02576C15.5848 4.59657 14.422 3.33571 12.9662 2.37262C12.4079 2.00335 11.8203 1.6858 11.1459 1.59417C10.9467 1.5671 10.7296 1.57925 10.5349 1.62923C10.1671 1.72293 9.95242 2.07346 9.92382 2.5406C9.8835 3.19654 10.062 3.8091 10.2833 4.41367L10.2951 4.44548C10.3136 4.49437 10.3321 4.54367 10.3398 4.59414C10.3612 4.73991 10.2957 4.84611 10.1606 4.89227C10.0241 4.93912 9.89142 4.89261 9.83973 4.76177C9.50992 3.92293 9.24593 3.07056 9.44168 2.15051C9.51371 1.81247 9.68292 1.53135 9.95311 1.31097L10.0826 1.2054C10.4054 0.942333 10.7284 0.679101 11.0391 0.402375C11.4626 0.0251224 11.9554 -0.0536598 12.4869 0.0306754C13.3415 0.166375 14.0818 0.574515 14.7656 1.0781C16.9502 2.68567 18.6024 4.72568 19.6238 7.26128C19.853 7.83046 19.9995 8.42497 19.9992 9.13644ZM11.1762 1.03714L11.2362 1.04744C11.2835 1.05548 11.3269 1.06288 11.3702 1.0715C12.1515 1.22768 12.8346 1.60389 13.477 2.05576C15.135 3.22257 16.4429 4.72186 17.5092 6.44015C18.0496 7.31057 18.4835 8.23444 18.6902 9.24819C18.737 9.47747 18.7588 9.71196 18.7805 9.94441C18.7904 10.0512 18.8003 10.1575 18.8126 10.2626C19.335 9.97979 19.4929 9.50328 19.457 8.93133C19.425 8.41942 19.304 7.92555 19.1138 7.45321C18.1543 5.07308 16.6018 3.15524 14.5777 1.61465C13.9946 1.17076 13.3612 0.809127 12.6447 0.618592C12.0798 0.467969 11.5753 0.535298 11.1762 1.03714Z" fill="#AF1F25"/>
<path fill-rule="evenodd" clip-rule="evenodd" d="M0.0101091 11.6692C0.0101091 11.4958 0.0125313 11.3221 0.0149534 11.1485C0.0204437 10.755 0.0259341 10.3614 0.00321645 9.96936C-0.0333145 9.33459 0.24308 8.89278 0.743141 8.56343C0.849977 8.49297 0.876514 8.42391 0.872723 8.30035C0.861005 7.90749 0.864452 7.51392 0.867898 7.1207C0.871 6.7733 1.03677 6.50294 1.28766 6.28013C1.7374 5.88101 2.28261 5.66931 2.84367 5.49613C3.74695 5.21778 4.67505 5.07618 5.6152 5.00643C5.84404 4.98942 6.07356 4.97623 6.30274 4.9679C6.49436 4.96096 6.60637 5.0512 6.61843 5.20911C6.63187 5.3809 6.53503 5.49127 6.33824 5.51001C6.13863 5.52899 5.93865 5.54502 5.73868 5.56105C5.36105 5.59132 4.98346 5.62159 4.60853 5.67174C3.75419 5.78592 2.91398 5.97055 2.13856 6.36898C1.94212 6.46997 1.75567 6.60498 1.59404 6.75629C1.34694 6.98813 1.34866 7.22864 1.60059 7.45839C1.76842 7.61144 1.96245 7.74471 2.16475 7.84779C2.87228 8.20942 3.63805 8.38434 4.41485 8.51137C5.62658 8.70919 6.84726 8.75465 8.07105 8.68108C9.24177 8.61062 10.4015 8.45792 11.5015 8.01993C11.7914 7.90436 12.0746 7.74992 12.3276 7.56702C12.7432 7.26612 12.7322 6.95134 12.3269 6.63031C11.9085 6.29887 11.4143 6.13055 10.9132 5.97923C10.8758 5.96786 10.8378 5.95789 10.7999 5.94791C10.7324 5.93018 10.6649 5.91246 10.6003 5.88691C10.458 5.83069 10.3942 5.68805 10.4459 5.54506C10.4952 5.40901 10.6058 5.33162 10.7426 5.36667C11.4002 5.5343 12.0429 5.7415 12.6012 6.14998C12.9941 6.43735 13.2174 6.8021 13.183 7.31332C13.1633 7.6075 13.1686 7.90338 13.1739 8.19892C13.1749 8.25623 13.1759 8.31353 13.1768 8.37081C13.1775 8.42113 13.2164 8.48291 13.256 8.51865C13.3135 8.57006 13.3741 8.61795 13.4347 8.66582C13.5141 8.72847 13.5934 8.79112 13.6655 8.86155C13.915 9.10553 14.0387 9.40122 14.0366 9.76077C14.029 11.0272 14.0253 12.2936 14.0387 13.56C14.0435 14.0112 13.8619 14.3503 13.5345 14.6286C13.0007 15.0822 12.361 15.3206 11.7045 15.5147C10.6827 15.8169 9.63396 15.9648 8.57387 16.0481C7.50654 16.1321 6.43956 16.1331 5.37396 16.0408C4.0168 15.9231 2.67067 15.7319 1.41379 15.1666C1.0633 15.009 0.736249 14.7803 0.431939 14.5408C0.128318 14.3024 0.00252719 13.9557 0.00769667 13.5597C0.0135434 13.1144 0.0123297 12.669 0.0111158 12.2235C0.0106125 12.0387 0.0101091 11.854 0.0101091 11.6692ZM0.556351 10.7374C0.556351 10.9931 0.55776 11.2502 0.559174 11.5084C0.562656 12.1439 0.56617 12.7854 0.548769 13.4264C0.537396 13.8439 0.696961 14.1427 1.03332 14.3312C1.4169 14.5457 1.81322 14.7529 2.22713 14.8938C3.66528 15.3828 5.16063 15.5431 6.6684 15.5483C7.59063 15.5514 8.51562 15.4935 9.43476 15.4091C10.3487 15.3252 11.2465 15.1273 12.1098 14.799C12.5189 14.6435 12.9155 14.462 13.2395 14.1542C13.3898 14.0115 13.4952 13.8477 13.4945 13.626C13.4927 13.0091 13.493 12.3922 13.4933 11.7753L13.4933 11.772C13.4935 11.4648 13.4936 11.1575 13.4935 10.8502C13.4935 10.8158 13.4898 10.7814 13.487 10.7561C13.4859 10.7462 13.485 10.7377 13.4845 10.7311C13.3747 10.7873 13.2667 10.8458 13.1592 10.9041C12.9255 11.0308 12.6941 11.1561 12.4517 11.2531C11.0046 11.8313 9.48094 12.0101 7.94078 12.0899C6.768 12.1506 5.59901 12.0972 4.43553 11.9455C3.53052 11.8275 2.63276 11.6623 1.78083 11.3232C1.49377 11.209 1.21717 11.069 0.938094 10.9278C0.811783 10.8638 0.684875 10.7996 0.556351 10.7374ZM1.10569 8.95213C1.06249 8.99237 1.01873 9.0308 0.975517 9.06875C0.881197 9.15158 0.789428 9.23218 0.711435 9.32452C0.501554 9.57267 0.500176 9.81769 0.722808 10.0537C0.870655 10.2106 1.04056 10.3678 1.23148 10.458C1.67055 10.6652 2.11788 10.8672 2.58072 11.0078C3.76832 11.3677 4.99418 11.4957 6.23037 11.5443C7.82016 11.6068 9.39616 11.5065 10.9505 11.1504C11.6504 10.9901 12.3397 10.787 12.9462 10.3837C13.1192 10.2685 13.2698 10.1092 13.4042 9.94784C13.5231 9.80485 13.5204 9.62403 13.4308 9.45779C13.3129 9.23949 13.1299 9.08887 12.918 8.96601C12.6557 9.26066 12.3383 9.45536 11.9957 9.60946C11.9278 9.64 11.821 9.66568 11.77 9.63306C11.6887 9.581 11.6094 9.48695 11.5842 9.39498C11.5505 9.27351 11.638 9.18813 11.7469 9.12115L11.8081 9.08343C12.0311 8.94615 12.255 8.80823 12.4599 8.64672C12.6391 8.50547 12.6684 8.29237 12.6226 8.05151C12.1053 8.4194 11.537 8.62832 10.9498 8.78901C9.70667 9.12948 8.43533 9.24748 7.15192 9.25615C5.92641 9.26448 4.70951 9.17147 3.51226 8.89313C2.77992 8.72272 2.06687 8.49748 1.43275 8.05707C1.3459 8.41488 1.51684 8.65297 1.77876 8.80845C2.10237 9.00037 2.44045 9.18258 2.79405 9.30648C4.05885 9.75002 5.37603 9.88086 6.70596 9.90099C7.01345 9.90576 7.3211 9.8961 7.6288 9.88644C7.76866 9.88204 7.90877 9.87765 8.04865 9.87461C8.23544 9.87045 8.36433 9.97283 8.37329 10.1339C8.38225 10.2945 8.27369 10.4129 8.09862 10.423C6.48023 10.5153 4.87424 10.4313 3.29618 10.036C2.50352 9.83747 1.72879 9.58447 1.10569 8.95213Z" fill="#AF1F25"/>
<path d="M10.585 7.17997C10.5928 7.12914 10.6006 7.07831 10.6093 7.02771C10.5975 6.37177 10.2853 5.87791 9.80524 5.47775C9.26175 5.02414 8.63004 4.74337 7.95525 4.55353C7.73744 4.4921 7.6599 4.52577 7.5448 4.72325C7.28184 5.17442 6.96891 5.58638 6.59533 5.95044C6.00015 6.53072 5.32019 6.92706 4.46585 6.94962C4.3087 6.95379 4.20565 7.06693 4.20358 7.21373C4.20151 7.3588 4.3049 7.47229 4.45758 7.48999C4.4832 7.49315 4.50942 7.49192 4.53563 7.49068C4.54397 7.49029 4.55231 7.48989 4.56062 7.48964C5.16097 7.47229 5.70756 7.28245 6.21141 6.96073C6.89826 6.52205 7.429 5.92858 7.86634 5.24626C7.92596 5.1536 7.97731 5.11299 8.08449 5.16644C8.21298 5.23051 8.34426 5.29011 8.4755 5.34969C8.74166 5.47054 9.00767 5.59132 9.25004 5.74915C9.83315 6.12848 10.1898 6.64491 9.99789 7.40114C9.95584 7.56704 10.0496 7.69371 10.1995 7.73085C10.3442 7.76625 10.4804 7.68712 10.5221 7.52053C10.55 7.40879 10.5675 7.29438 10.585 7.17997Z" fill="#AF1F25"/>
</svg>
