<svg width="136" height="300" viewBox="0 0 136 300" fill="none" xmlns="http://www.w3.org/2000/svg">
<path d="M81.627 18.1886C83.4675 18.6962 84.1752 19.504 84.0126 21.2595C83.8751 22.7324 83.5125 24.1978 83.1199 25.6307C82.9648 26.1959 82.5697 26.8836 82.0871 27.1311C80.8167 27.7863 80.6342 28.8091 80.4891 30.0745C80.1991 32.6177 79.5238 35.0584 77.6358 36.9765C77.4532 37.1615 77.3157 37.4766 77.3107 37.7342C77.1707 43.0457 78.5311 46.8593 83.8501 49.3801C87.2211 50.978 90.6821 51.7482 94.3681 52.1408C102.338 52.9911 107.712 57.5249 110.78 64.782C112.468 68.7781 112.516 73.0744 112.211 77.3256C111.803 83.0097 111.896 88.5838 113.709 94.1004C114.474 96.4236 114.411 99.0093 114.829 101.46C115.014 102.54 115.222 103.743 115.827 104.603C117.257 106.637 117.86 108.892 118.03 111.268C118.59 119.155 119.035 127.052 119.583 134.94C119.75 137.343 120.103 139.736 120.376 142.132C120.466 142.922 120.803 143.29 121.706 143.42C123.999 143.747 125.705 145.16 127.185 146.856C128.991 148.926 130.756 151.032 132.592 153.077C133.254 153.818 134.067 154.423 134.807 155.093C135.575 155.791 135.487 156.343 134.542 156.776C133.114 157.429 131.701 157.271 130.323 156.636C129.536 156.273 128.781 155.841 127.745 155.303C127.918 156.451 128.06 157.394 128.198 158.336C128.701 161.787 129.483 165.223 128.823 168.739C128.553 170.182 128 171.443 126.497 172.045C126.262 172.14 126.07 172.423 125.927 172.658C124.894 174.389 123.757 174.769 121.989 173.963C121.766 173.863 121.531 173.761 121.293 173.733C118.645 173.421 118.645 173.423 117.545 170.968C115.909 171.193 114.909 170.217 114.501 168.827C113.784 166.369 113.026 163.87 112.771 161.34C112.316 156.791 112.203 152.205 111.978 147.633C111.836 144.722 110.485 142.182 109.35 139.636C107.439 135.35 105.219 131.196 103.038 127.035C100.23 121.671 99.037 115.912 98.4118 109.95C98.0017 106.031 97.2189 102.153 96.6113 98.2566C96.3387 96.5011 96.0886 94.7406 95.786 92.6975C93.8105 98.1316 91.4998 103.186 91.5423 108.882C91.5723 112.841 91.4673 116.802 91.5898 120.758C91.6348 122.214 91.9674 123.726 92.4951 125.084C94.1831 129.423 95.1133 133.912 95.5485 138.523C96.1186 144.57 96.8163 150.609 97.1964 156.666C97.474 161.062 97.4765 165.488 97.3265 169.892C97.1839 174.043 96.7163 178.187 96.3287 182.328C95.686 189.198 93.833 195.765 91.4623 202.229C90.2644 205.49 89.3117 208.873 88.5965 212.274C87.5887 217.076 88.2589 221.797 90.2044 226.298C92.4101 231.397 92.1725 236.579 90.9146 241.83C88.5765 251.601 86.2383 261.374 83.9426 271.154C83.1124 274.685 83.0048 278.183 84.2727 281.712C85.223 284.355 85.4956 287.251 87.2186 289.599C88.2263 290.972 89.3117 292.287 90.3745 293.618C90.9196 294.301 91.5698 294.911 92.0375 295.638C93.4028 297.767 92.6451 299.419 90.1594 299.7C88.9691 299.835 87.7587 299.767 86.5559 299.792C83.3174 299.865 80.079 299.977 76.8406 300C72.3268 300.032 70.3312 297.777 71.1439 293.365C72.8919 283.898 73.2745 274.347 72.8994 264.765C72.7519 260.988 72.3393 257.212 71.8741 253.456C70.8489 245.166 70.6863 236.957 73.277 228.867C74.5574 224.873 74.4974 220.779 73.8297 216.651C73.5521 214.94 73.8697 213.132 73.5896 211.422C73.2145 209.139 72.5993 206.885 71.9492 204.66C69.8386 197.45 69.6985 190.068 69.8361 182.643C69.9386 177.109 69.9311 171.57 69.9311 166.034C69.9311 164.621 69.1233 163.835 67.8005 163.758C66.4751 163.678 65.7499 164.236 65.4498 165.636C65.3373 166.159 65.2923 166.706 65.2973 167.244C65.3648 174.409 65.5398 181.573 65.4973 188.738C65.4623 194.702 64.8796 200.626 62.8015 206.285C61.6412 209.446 61.7937 212.742 61.5437 216.005C61.3836 218.119 60.8435 220.267 61.086 222.327C61.5112 225.936 62.3314 229.507 63.1266 233.06C64.3145 238.364 64.3945 243.698 63.8543 249.068C62.9566 257.973 61.7837 266.875 62.3564 275.843C62.7215 281.559 63.5518 287.246 64.1494 292.95C64.252 293.94 64.342 294.953 64.2445 295.936C64.0094 298.347 62.1939 299.905 59.4981 299.985C58.0052 300.027 56.5072 299.83 55.0118 299.817C52.6836 299.797 50.3554 299.882 48.0298 299.842C46.7519 299.82 45.4365 299.787 44.2062 299.484C42.6432 299.099 42.1431 297.964 42.8533 296.504C43.3359 295.511 43.9911 294.546 44.7663 293.763C47.7147 290.792 49.7903 287.386 50.598 283.235C50.9531 281.407 51.6833 279.639 51.9034 277.801C52.3135 274.402 51.4008 271.109 50.648 267.83C49.0976 261.076 47.4896 254.337 45.9217 247.587C45.1414 244.236 44.3062 240.893 43.6585 237.514C43.0183 234.181 43.446 230.89 44.5763 227.691C44.9364 226.674 45.2765 225.648 45.6716 224.643C47.9798 218.801 47.3571 212.977 45.5216 207.183C44.0161 202.434 42.2956 197.75 40.9127 192.969C39.3948 187.722 38.7796 182.298 38.432 176.857C38.1519 172.495 37.7343 168.124 37.8143 163.768C37.9069 158.869 38.4795 153.98 38.8621 149.089C39.1172 145.813 39.3948 142.539 39.6824 139.266C40.135 134.107 41.0753 129.065 43.1809 124.287C43.4885 123.589 43.651 122.771 43.666 122.003C43.7361 118.42 43.636 114.834 43.7711 111.253C43.9711 105.989 42.8408 101.02 40.8377 96.1985C40.3951 95.1332 40.0225 94.0354 39.5448 92.755C39.0997 95.5458 38.6596 98.1216 38.282 100.707C37.5918 105.434 36.9341 110.168 36.2664 114.896C35.4862 120.423 33.118 125.344 30.6298 130.261C28.1391 135.185 25.7459 140.181 23.7328 145.31C22.9176 147.386 23.1926 149.899 23.0251 152.217C22.7475 156.076 22.6425 159.949 22.2098 163.788C22.0048 165.611 21.3096 167.402 20.6594 169.142C20.2793 170.157 19.5216 170.965 18.2237 170.995C17.9561 171 17.596 171.423 17.4585 171.735C16.8533 173.091 15.9505 173.878 14.3676 173.748C13.9525 173.713 13.4948 173.918 13.0922 174.091C11.8444 174.626 10.3514 174.374 9.76628 173.278C9.34866 172.495 8.59843 172.168 8.11329 171.595C7.35307 170.692 6.55784 169.492 6.50533 168.382C6.37779 165.704 6.60786 163 6.82042 160.317C6.94796 158.714 7.31306 157.129 7.61064 155.308C6.68788 155.771 5.93767 156.158 5.17995 156.526C3.73453 157.226 2.26161 157.481 0.741174 156.748C-0.151583 156.318 -0.221604 155.853 0.443587 155.138C2.93681 152.46 5.43503 149.789 7.89074 147.078C9.57622 145.22 11.4092 143.675 14.0125 143.28C14.3526 143.227 14.8427 142.674 14.8752 142.317C15.3479 137.18 15.753 132.039 16.1756 126.9C16.6733 120.851 17.1359 114.796 17.7086 108.755C17.8036 107.759 18.1787 106.667 18.7639 105.864C20.0567 104.091 20.3818 102.143 20.6419 100.035C20.9995 97.1238 21.6097 94.228 22.3299 91.3821C23.1651 88.0837 23.5002 84.7977 23.3227 81.3868C23.0851 76.7854 22.6875 72.1591 23.6628 67.5753C25.4058 59.3854 32.6354 52.761 40.9878 52.1233C45.0639 51.8133 48.7925 50.7404 52.3785 48.8724C56.0321 46.9694 57.7001 43.936 57.9651 39.9298C58.0702 38.3319 57.8026 37.044 56.7323 35.7211C55.1994 33.8281 54.9693 31.3824 54.6617 29.0167C54.6017 28.5616 54.2666 28.1164 53.9865 27.7163C53.3138 26.7585 52.401 25.9133 51.9509 24.8655C51.4858 23.7877 51.3807 22.5323 51.2482 21.3395C51.0631 19.6715 51.8359 18.6937 53.4939 18.2086C53.3888 16.1705 53.0737 14.1349 53.2413 12.1393C53.4288 9.88619 53.859 7.61303 54.5242 5.45241C55.3494 2.77664 57.6025 1.45626 60.1708 0.848589C64.9722 -0.289239 69.8261 -0.234223 74.6549 0.723553C79.1212 1.61131 81.1568 4.64718 81.792 8.92591C82.2546 12.0168 82.2571 15.0702 81.627 18.1886ZM120.728 160.157C120.933 162.835 121.076 165.276 121.323 167.704C121.463 169.059 121.661 170.435 122.074 171.725C122.236 172.238 123.024 172.816 123.579 172.873C124.414 172.961 124.552 172.185 124.487 171.44C124.449 170.995 124.564 170.537 124.514 170.095C124.207 167.286 123.854 164.483 123.559 161.672C123.506 161.172 123.659 160.652 123.719 160.142C123.872 160.159 124.022 160.177 124.174 160.194C124.607 163.675 125.039 167.156 125.472 170.637C126.665 170.495 127.438 169.67 127.433 168.029C127.423 165.581 127.29 163.128 127.07 160.69C126.902 158.832 126.452 157.001 126.25 155.145C126.05 153.3 126.435 153.06 128.07 153.858C129.003 154.313 129.883 154.893 130.836 155.293C131.461 155.556 132.179 155.603 132.854 155.748C132.897 155.636 132.939 155.523 132.982 155.411C132.144 154.605 131.246 153.853 130.479 152.987C128.961 151.272 127.543 149.469 126.032 147.751C124.542 146.055 122.849 144.687 120.416 144.675C119.625 144.67 119.233 144.235 119.15 143.432C118.773 139.754 118.27 136.085 117.995 132.399C117.495 125.762 117.19 119.108 116.667 112.473C116.477 110.048 116.184 107.564 114.611 105.509C113.601 104.191 113.341 102.67 113.261 101.05C113.184 99.4795 113.031 97.8965 112.718 96.3561C112.123 93.4327 111.033 90.5644 110.8 87.6211C110.495 83.7424 110.75 79.8113 110.885 75.9077C111.075 70.3661 110.31 65.1146 106.772 60.5933C104.008 57.0623 100.592 54.424 96.0536 53.8888C92.8502 53.5112 89.5817 53.6863 86.3408 53.6188C85.7356 53.6063 85.1305 53.6163 84.5253 53.6163C84.5128 53.3987 84.4978 53.1811 84.4853 52.9661C85.5506 52.8761 86.6159 52.786 87.6812 52.6935C87.2661 52.4209 86.871 52.3059 86.4833 52.1734C80.9342 50.2778 76.653 47.1744 76.0804 40.7876C75.9453 39.2671 75.7653 37.3441 76.5255 36.2388C78.0234 34.0606 78.7611 31.775 79.2213 28.9042C76.8531 33.9806 73.0645 36.2663 67.8655 36.3213C62.7315 36.3763 58.8129 34.3207 56.3472 29.6694C56.5747 31.905 56.9949 34.0381 58.5353 35.6886C59.368 36.5789 59.5956 37.5166 59.4506 38.6495C59.3706 39.2671 59.3605 39.8948 59.2905 40.5175C58.8429 44.5362 57.2424 47.8996 53.5839 49.9327C51.7158 50.9705 49.7203 51.7857 47.7297 52.726C48.7325 52.7985 49.7428 52.8736 50.7506 52.9486C50.7406 53.1636 50.7306 53.3787 50.7231 53.5913C49.9978 53.5913 49.2701 53.6313 48.5474 53.5838C44.9664 53.3437 41.3729 53.2462 37.8744 54.1314C31.1374 55.8394 25.1032 62.5588 24.5555 71.2163C24.328 74.8199 24.6255 78.4584 24.7606 82.0795C24.8781 85.2179 24.6806 88.2962 23.8603 91.3521C23.0026 94.553 21.9048 97.7265 22.0298 101.112C22.0898 102.713 21.5722 104.106 20.7669 105.469C20.1618 106.491 19.5441 107.587 19.299 108.73C17.9611 114.981 17.9186 121.366 17.511 127.715C17.1784 132.902 16.6808 138.078 16.2406 143.257C16.1681 144.12 15.6355 144.662 14.7727 144.675C12.7371 144.702 11.1917 145.718 9.89881 147.121C7.39309 149.844 4.9674 152.642 2.51419 155.413C2.48668 155.443 2.54669 155.551 2.63172 155.861C3.52697 155.541 4.42473 155.273 5.27248 154.9C6.07021 154.55 6.80042 154.05 7.59065 153.68C8.74848 153.137 9.1886 153.395 9.05356 154.658C8.81349 156.886 8.32836 159.089 8.16581 161.32C7.98826 163.79 7.97826 166.284 8.06079 168.759C8.09079 169.692 8.60594 170.592 9.8588 170.722C9.98134 169.477 10.0764 168.284 10.2189 167.099C10.369 165.861 10.459 164.601 10.7766 163.405C11.0566 162.348 10.574 161.082 11.6018 160.202C11.7093 161.715 11.5518 163.18 11.4167 164.648C11.2017 167.004 10.9566 169.36 10.8341 171.723C10.8141 172.11 11.2717 172.666 11.6568 172.883C11.8844 173.011 12.5821 172.733 12.7496 172.448C13.1598 171.755 13.5624 170.975 13.6524 170.195C13.985 167.304 14.1825 164.398 14.4501 161.5C14.4876 161.095 14.6377 160.702 14.7377 160.302C14.9578 160.342 15.1778 160.382 15.3979 160.422C15.0303 164.373 14.6652 168.327 14.2951 172.315C15.0603 172.553 15.6855 172.21 15.9856 171.415C16.4207 170.257 16.8583 169.082 17.1134 167.874C17.516 165.969 17.7736 164.031 18.0862 162.105C18.1787 161.532 18.2462 160.955 18.3262 160.379C18.4738 160.374 18.6188 160.372 18.7664 160.367C18.8064 160.802 18.9389 161.25 18.8739 161.67C18.5513 163.805 18.1512 165.926 17.8511 168.064C17.7936 168.472 18.0762 168.929 18.2012 169.362C18.5913 169.11 19.189 168.944 19.334 168.592C19.8667 167.294 20.3618 165.961 20.6694 164.596C21.6922 160.057 21.6747 155.431 21.7272 150.807C21.7497 148.821 21.6922 146.678 22.3874 144.883C24.1704 140.284 26.216 135.772 28.4141 131.351C31.0624 126.025 34.0032 120.841 34.8085 114.816C35.2236 111.71 35.5837 108.595 35.9713 105.449C34.756 106.479 33.6281 107.434 32.5028 108.387C32.3578 108.229 32.2102 108.072 32.0652 107.912C32.3153 107.647 32.5403 107.354 32.8179 107.124C34.781 105.506 36.4414 103.716 36.729 101.01C36.8466 99.8971 37.1266 98.8043 37.3142 97.699C38.2545 92.1449 38.7596 86.5658 38.5521 80.9216C38.422 77.3881 38.367 73.8446 38.4695 70.3111C38.532 68.1455 39.3323 66.1499 41.0653 64.702C41.3729 64.4469 41.9155 64.4744 42.3507 64.3719C42.2406 64.827 42.2781 65.4397 41.993 65.7122C40.5201 67.1302 39.7924 68.8732 39.7974 70.8487C39.8124 76.6779 39.9199 82.5096 40.0025 88.3388C40.0075 88.7089 40.0725 89.089 40.1825 89.4441C40.9077 91.7823 41.5429 94.1554 42.4157 96.4386C44.2012 101.102 45.4065 105.854 45.289 110.893C45.2165 114.056 45.2365 117.222 45.2215 120.388C45.219 120.811 45.264 121.233 45.289 121.738C46.5068 120.678 47.5772 119.745 48.6475 118.813C48.7925 118.948 48.94 119.083 49.0851 119.218C48.8325 119.525 48.6275 119.898 48.3174 120.133C46.6894 121.363 45.459 122.884 44.5963 124.747C42.3031 129.696 41.5204 134.982 41.0378 140.336C40.7227 143.817 40.4501 147.301 40.1725 150.784C39.8649 154.64 39.3248 158.496 39.3398 162.35C39.3623 167.839 39.6924 173.333 40.095 178.81C40.3526 182.326 40.6702 185.889 41.5129 189.295C42.6932 194.077 44.2812 198.771 45.8867 203.432C47.9548 209.431 49.2401 215.485 48.0423 222.202C48.4599 221.287 48.735 220.689 49.0026 220.089C49.5027 218.974 49.5002 218.974 50.3179 219.176C49.5977 220.737 48.9 222.282 48.1773 223.813C47.3621 225.541 46.3668 227.199 45.7241 228.987C44.4788 232.455 44.6313 236.061 45.4465 239.575C47.6947 249.278 50.0729 258.95 52.4135 268.631C53.3463 272.492 54.2516 276.385 52.9937 280.309C51.9909 283.437 51.2357 286.513 52.2885 289.772C52.3785 290.049 52.2485 290.399 52.221 290.715C52.0659 290.729 51.9109 290.744 51.7534 290.759C51.5033 289.677 51.2532 288.594 50.9506 287.281C49.4502 290.404 47.5822 293.018 45.254 295.296C44.8689 295.671 44.5263 296.104 44.2337 296.554C43.8211 297.186 43.8561 297.729 44.7413 297.989C44.8964 297.699 45.0489 297.419 45.184 297.169C45.7266 297.624 46.1818 298.332 46.6494 298.342C48.825 298.382 51.0056 298.227 53.2163 298.142C52.5086 295.693 52.5436 294.16 53.7514 292.83C55.7395 290.637 56.5122 288.056 56.7173 285.208C56.7373 284.92 57.0149 284.653 57.1749 284.375C57.48 284.783 57.5575 285.068 57.53 285.345C57.2599 287.974 56.8223 290.542 54.9593 292.613C54.074 293.598 53.3863 294.711 53.5639 296.091C53.6839 297.014 53.7989 298.219 54.9518 298.342C56.7173 298.527 58.5203 298.512 60.2933 298.397C61.6087 298.312 62.4464 297.479 62.754 296.126C63.1341 294.448 62.3639 293.053 61.7887 291.595C61.0435 289.707 60.2983 287.816 59.6106 285.906C59.4506 285.463 59.5231 284.938 59.4881 284.45C59.6306 284.423 59.7707 284.393 59.9132 284.365C60.5834 286.306 61.2536 288.244 61.9213 290.184C61.036 283.935 60.5884 277.721 60.7284 271.469C60.7935 268.516 60.9635 265.56 61.2036 262.614C61.6237 257.475 62.2214 252.348 62.574 247.204C62.769 244.346 62.8816 241.433 62.559 238.597C61.9788 233.473 60.6459 228.494 58.7854 223.668C58.3828 222.622 58.0677 221.542 57.7801 220.459C57.6726 220.057 57.7626 219.604 57.7626 219.174C57.9051 219.154 58.0477 219.134 58.1902 219.111C58.6403 220.499 59.088 221.887 59.5131 223.198C59.7807 219.261 60.0482 215.308 60.3408 210.984C59.3881 212.069 58.7104 212.837 58.0327 213.607C57.8951 213.51 57.7551 213.41 57.6175 213.312C57.7676 213.002 57.8876 212.672 58.0727 212.382C59.0029 210.907 60.3583 209.559 60.8085 207.953C61.9788 203.769 63.2417 199.511 63.5718 195.212C64.0619 188.835 63.8343 182.398 63.8018 175.989C63.7818 171.893 63.4692 167.794 64.3895 163.868C62.2189 164.268 59.9982 164.798 57.7476 165.068C53.7964 165.541 50.0479 164.803 46.6169 162.72C46.3018 162.53 46.0792 162.19 45.8141 161.92C45.9017 161.807 45.9917 161.692 46.0792 161.58C46.4243 161.745 46.7844 161.882 47.112 162.075C49.7928 163.663 52.6986 164.383 55.7995 164.378C59.5631 164.371 63.1041 163.35 66.5626 161.99C66.8627 161.872 67.1603 161.34 67.1778 160.987C67.2478 159.532 67.1878 158.071 67.2278 156.613C67.2378 156.266 67.4479 155.926 67.5654 155.583C67.7254 155.613 67.8855 155.641 68.0455 155.671C68.0455 156.733 68.0455 157.794 68.0455 158.857C68.0455 161.812 68.038 161.832 70.8088 162.76C76.8531 164.783 82.8298 165.378 88.604 161.867C88.829 161.73 89.1816 161.805 89.4767 161.782C89.4892 161.927 89.4992 162.072 89.5117 162.218C83.6675 166.159 77.3907 165.666 70.9014 163.703C71.0514 164.458 71.279 165.091 71.289 165.729C71.3565 170.057 71.4765 174.389 71.3965 178.715C71.2715 185.627 70.9489 192.549 72.3043 199.383C73.2395 204.097 73.9097 208.946 77.4983 212.642C77.6308 212.777 77.5383 213.127 77.5533 213.377C77.3057 213.29 76.9806 213.272 76.8206 213.102C76.2554 212.492 75.7453 211.832 75.2151 211.189C75.1176 211.232 75.0175 211.274 74.92 211.314C75.2401 215.12 75.5602 218.924 75.9028 223.005C76.2979 221.717 76.5905 220.682 76.9431 219.669C77.0106 219.476 77.3057 219.361 77.4983 219.211C77.5708 219.421 77.7258 219.647 77.6983 219.842C77.6383 220.247 77.4933 220.644 77.3632 221.037C76.543 223.518 75.5902 225.961 74.93 228.484C74.0923 231.688 73.3321 234.928 72.8244 238.199C72.0092 243.438 72.9445 248.66 73.3571 253.881C73.7622 259.023 74.3073 264.162 74.5099 269.311C74.79 276.368 74.5049 283.415 73.1995 290.409C73.8797 288.799 74.4049 287.148 74.975 285.513C75.1101 285.125 75.3852 284.788 75.5952 284.428C75.6602 284.86 75.8878 285.35 75.7603 285.718C75.0801 287.674 74.2598 289.584 73.5921 291.542C73.142 292.86 72.6669 294.225 72.5643 295.596C72.4468 297.184 73.3971 298.229 74.995 298.389C76.5955 298.549 78.226 298.382 79.8414 298.429C80.7567 298.457 81.2193 298.009 81.4919 297.221C82.1046 295.456 81.6045 293.945 80.3941 292.628C78.441 290.497 78.0334 287.831 77.7758 285.12C77.7533 284.885 78.0209 284.62 78.1535 284.37C78.4885 284.79 78.5311 285.108 78.5786 285.425C78.8962 287.569 79.0962 289.812 80.5667 291.507C82.2771 293.478 83.1899 295.513 82.0596 298.139C83.8926 298.237 85.5931 298.352 87.2936 298.404C88.3764 298.439 89.6268 298.749 89.9218 296.676C90.2919 297.456 90.4395 297.769 90.5845 298.077C91.8274 297.599 91.4298 296.889 90.8596 296.239C88.4789 293.523 85.9307 290.935 84.4928 287.434C83.7526 288.504 84.2802 289.939 83.0974 290.89C83.0199 290.487 82.9548 290.324 82.9673 290.169C82.9898 289.882 83.0374 289.592 83.1074 289.312C83.7326 286.843 83.7501 284.45 82.8098 281.999C81.627 278.919 81.3494 275.695 82.0996 272.434C83.7651 265.192 85.443 257.953 87.1035 250.708C88.1963 245.937 89.4317 241.188 90.2844 236.374C90.8796 233.008 90.3045 229.694 88.569 226.609C87.3686 224.475 86.4183 222.2 85.388 219.974C85.248 219.672 85.288 219.284 85.2455 218.934C85.3855 218.889 85.5231 218.841 85.6631 218.796C86.1283 219.747 86.5934 220.699 87.061 221.65C86.5484 218.281 86.5634 214.923 87.2561 211.677C88.0213 208.076 89.1616 204.545 90.317 201.041C91.8674 196.347 93.7554 191.756 94.2731 186.782C94.8032 181.696 95.4809 176.617 95.751 171.515C96.0086 166.699 96.0011 161.852 95.7785 157.034C95.551 152.095 95.0233 147.163 94.4331 142.249C93.918 137.968 93.3253 133.677 92.4101 129.471C91.5873 125.697 90.0394 122.178 86.6259 119.87C86.4333 119.74 86.3558 119.438 86.2233 119.218C86.3058 119.13 86.3883 119.045 86.4708 118.958C88.0313 119.445 88.9115 120.896 90.0569 121.878C90.0569 118.64 90.1069 115.434 90.0444 112.231C89.9493 107.399 90.502 102.69 92.29 98.1616C92.9452 96.5011 93.5529 94.8206 94.113 93.1276C94.9333 90.6369 95.4709 88.1487 95.3609 85.4429C95.2109 81.7919 95.546 78.1233 95.6535 74.4623C95.7485 71.1888 95.8435 67.9129 93.0577 65.4497C92.8602 65.2746 92.9252 64.807 92.8677 64.4744C93.2303 64.4569 93.7505 64.2793 93.9305 64.4519C94.5832 65.0771 95.2234 65.7623 95.6835 66.5325C97.2314 69.1357 97.1614 72.0491 96.9989 74.9124C96.5562 82.6671 96.6938 90.3769 98.0367 98.0566C98.6093 101.34 99.1245 104.558 102.013 106.742C102.453 107.074 102.896 107.399 103.338 107.727C103.231 107.882 103.126 108.039 103.018 108.194C101.418 107.832 100.515 106.379 99.3546 105.166C99.6021 107.447 99.8222 109.552 100.065 111.658C100.567 116.014 101.428 120.285 103.388 124.249C105.416 128.348 107.602 132.369 109.562 136.5C111.698 141.001 113.664 145.54 113.629 150.734C113.601 154.758 113.929 158.802 114.374 162.805C114.594 164.788 115.389 166.719 116.029 168.637C116.137 168.962 116.782 169.109 117.177 169.34C117.277 168.969 117.505 168.584 117.455 168.237C117.205 166.471 116.84 164.723 116.605 162.955C116.494 162.12 116.585 161.257 116.585 160.407C116.712 160.399 116.84 160.389 116.967 160.382C117.247 161.905 117.505 163.43 117.815 164.948C118.217 166.924 118.623 168.902 119.103 170.86C119.348 171.855 119.91 172.586 121.128 172.268C120.883 170.187 120.641 168.177 120.411 166.166C119.963 162.373 119.993 160.882 120.728 160.157ZM55.1618 20.1716C55.3694 21.7946 55.5094 23.4551 55.807 25.0856C57.1899 32.6602 62.7615 36.6239 70.2687 35.2885C75.2401 34.4032 78.0459 31.0598 79.1262 26.3909C79.8865 23.105 80.139 19.6865 80.4241 16.313C80.6092 14.1299 80.5716 11.9043 80.4016 9.71614C80.049 5.14983 78.0459 2.58159 73.8072 2.04643C70.1587 1.5863 66.3976 1.49627 62.7365 1.81887C58.0527 2.23399 55.9496 4.23706 55.1343 8.10067C54.9218 9.11096 54.7817 10.1663 54.8042 11.1941C54.8743 14.1774 55.0368 17.1558 55.1618 20.1716ZM80.144 26.9286C80.8067 26.3034 81.5269 25.9458 81.657 25.4382C82.0496 23.8927 82.3147 22.2973 82.4272 20.7093C82.4897 19.8165 81.727 19.6265 80.9818 19.7715C80.7167 22.0347 80.4566 24.2403 80.144 26.9286ZM54.8868 26.706C54.9693 26.6235 55.0493 26.541 55.1293 26.456C54.8492 24.2178 54.5692 21.9797 54.2866 19.734C53.3888 19.624 52.7561 20.0266 52.8287 20.8568C52.9587 22.3723 53.2088 23.8952 53.6014 25.3631C53.7439 25.8858 54.4416 26.2609 54.8868 26.706Z" fill="black"/>
</svg>
