<svg width="20" height="20" viewBox="0 0 20 20" fill="none" xmlns="http://www.w3.org/2000/svg">
<rect width="20" height="20" rx="10" fill="#F1E2E3"/>
<path d="M14.8889 6.53846H13L12.55 5.29121C12.5189 5.20586 12.4619 5.13209 12.3869 5.07997C12.3118 5.02785 12.2223 4.99992 12.1306 5H7.86944C7.68194 5 7.51389 5.11676 7.45139 5.29121L7 6.53846H5.11111C4.49722 6.53846 4 7.03022 4 7.63736V13.9011C4 14.5082 4.49722 15 5.11111 15H14.8889C15.5028 15 16 14.5082 16 13.9011V7.63736C16 7.03022 15.5028 6.53846 14.8889 6.53846ZM10 12.8022C8.77222 12.8022 7.77778 11.8187 7.77778 10.6044C7.77778 9.39011 8.77222 8.40659 10 8.40659C11.2278 8.40659 12.2222 9.39011 12.2222 10.6044C12.2222 11.8187 11.2278 12.8022 10 12.8022ZM8.66667 10.6044C8.66667 10.9541 8.80714 11.2895 9.05719 11.5368C9.30724 11.7841 9.64638 11.9231 10 11.9231C10.3536 11.9231 10.6928 11.7841 10.9428 11.5368C11.1929 11.2895 11.3333 10.9541 11.3333 10.6044C11.3333 10.2547 11.1929 9.91925 10.9428 9.67195C10.6928 9.42465 10.3536 9.28571 10 9.28571C9.64638 9.28571 9.30724 9.42465 9.05719 9.67195C8.80714 9.91925 8.66667 10.2547 8.66667 10.6044Z" fill="#AF1F25"/>
</svg>
