<svg width="20" height="18" viewBox="0 0 20 18" fill="none" xmlns="http://www.w3.org/2000/svg">
<path fill-rule="evenodd" clip-rule="evenodd" d="M6 10C6 7.832 7.83203 6 10 6C12.168 6 14 7.832 14 10C14 12.168 12.168 14 10 14C7.83203 14 6 12.168 6 10ZM8 10C8 11.065 8.93506 12 10 12C11.0649 12 12 11.065 12 10C12 8.935 11.0649 8 10 8C8.93506 8 8 8.935 8 10Z" fill="#AF1F25"/>
<path fill-rule="evenodd" clip-rule="evenodd" d="M15.4141 3H18C19.103 3 20 3.897 20 5V16C20 17.103 19.103 18 18 18H2C0.896973 18 0 17.103 0 16V5C0 3.897 0.896973 3 2 3H4.58594L7.29297 0.293C7.38574 0.199952 7.49609 0.126161 7.61719 0.0758982C7.73877 0.0256052 7.86865 -0.000182137 8 9.68307e-07H12C12.1313 -0.000182137 12.2612 0.0256052 12.3828 0.0758982C12.5039 0.126161 12.6143 0.199952 12.707 0.293L15.4141 3ZM2 5V16H18.002L18 5H15C14.8687 5.00018 14.7388 4.9744 14.6172 4.9241C14.4961 4.87384 14.3857 4.80005 14.293 4.707L11.5859 2H8.41406L5.70703 4.707C5.52002 4.89499 5.26611 5 5 5H2Z" fill="#AF1F25"/>
</svg>
