<svg width="20" height="20" viewBox="0 0 20 20" fill="none" xmlns="http://www.w3.org/2000/svg">
<path fill-rule="evenodd" clip-rule="evenodd" d="M14.7143 8.63246C14.2173 8.53566 13.7329 8.35038 13.3161 8.06221C12.6345 7.59096 12.1429 6.84209 12.1429 5.857C12.1429 4.33254 12.6356 3.14222 13.2961 2.32019C13.9184 1.5459 14.782 1 15.5714 1C16.3609 1 17.2245 1.5459 17.8467 2.32019C18.5073 3.14222 19 4.33254 19 5.857C19 6.84209 18.5083 7.59096 17.8268 8.06221C17.41 8.35038 16.9255 8.53566 16.4286 8.63246V18.1429C16.4286 18.6162 16.0448 19 15.5714 19C15.098 19 14.7143 18.6162 14.7143 18.1429V8.63246ZM13.8571 5.857C13.8571 4.71489 14.2216 3.90528 14.6324 3.39403C14.8406 3.13501 15.0584 2.95508 15.245 2.84453C15.338 2.78943 15.4174 2.75498 15.4785 2.73524C15.5393 2.71558 15.5699 2.71435 15.5714 2.71429C15.5729 2.71435 15.6036 2.71558 15.6644 2.73524C15.7255 2.75498 15.8049 2.78943 15.8979 2.84453C16.0844 2.95508 16.3023 3.13501 16.5104 3.39403C16.9213 3.90528 17.2857 4.71489 17.2857 5.857C17.2857 6.20541 17.1345 6.45667 16.8518 6.65217C16.5458 6.86375 16.0885 6.99799 15.5834 7.00008C15.5794 7.00003 15.5754 7 15.5714 7C15.5674 7 15.5634 7.00003 15.5594 7.00008C15.0544 6.99799 14.597 6.86375 14.2911 6.65217C14.0083 6.45667 13.8571 6.20541 13.8571 5.857Z" fill="#AF1F25"/>
<path fill-rule="evenodd" clip-rule="evenodd" d="M7.86815 1.85714H10C10.4734 1.85714 10.8571 2.2409 10.8571 2.71429C10.8571 3.18767 10.4734 3.57143 10 3.57143H8.71429V9.81078L13.2711 11.3297C13.7201 11.4794 13.9629 11.9648 13.8132 12.4139C13.6635 12.863 13.178 13.1057 12.7289 12.956L7.58609 11.2417C7.57093 11.2367 7.556 11.2312 7.54131 11.2254L2.71429 12.7687V16C2.71429 16.341 2.84974 16.668 3.09086 16.9091C3.33198 17.1503 3.65901 17.2857 4 17.2857H12.5714C13.0448 17.2857 13.4286 17.6695 13.4286 18.1429C13.4286 18.6162 13.0448 19 12.5714 19H4C3.20435 19 2.44129 18.6839 1.87868 18.1213C1.31607 17.5587 1 16.7956 1 16V4.85714C1 4.06149 1.31607 3.29843 1.87868 2.73582C2.44129 2.17321 3.20435 1.85714 4 1.85714H7.84618C7.8535 1.85705 7.86082 1.85705 7.86815 1.85714ZM2.71429 9.19938L6.29571 3.57143H4C3.65901 3.57143 3.33198 3.70689 3.09086 3.94801C2.84974 4.18912 2.71429 4.51615 2.71429 4.85714V9.19938ZM7 5.65776V9.59873L3.85155 10.6053L7 5.65776Z" fill="#AF1F25"/>
</svg>
