<svg width="28" height="27" viewBox="0 0 28 27" fill="none" xmlns="http://www.w3.org/2000/svg">
<path d="M2.94292 13.2493C2.97507 11.8446 3.26435 10.4818 3.80756 9.19929C4.36363 7.88143 5.16077 6.70179 6.17648 5.68286C7.19218 4.66393 8.37503 3.86679 9.69288 3.31071C11.0557 2.73536 12.5022 2.44286 13.9968 2.44286C15.4914 2.44286 16.9378 2.73536 18.2975 3.31071C19.6115 3.86564 20.8049 4.67138 21.8107 5.68286C22.1289 6.00107 22.4278 6.33857 22.7042 6.69214L20.7692 8.20286C20.731 8.23248 20.7018 8.2723 20.6852 8.31774C20.6685 8.36319 20.665 8.41242 20.6751 8.45976C20.6851 8.5071 20.7084 8.55064 20.7421 8.58537C20.7758 8.6201 20.8186 8.64461 20.8657 8.65607L26.5131 10.0382C26.6739 10.0768 26.8314 9.95464 26.8314 9.79072L26.8571 3.97607C26.8571 3.76071 26.6096 3.63857 26.4424 3.77357L24.6296 5.19107C22.1578 2.02821 18.3135 0 13.9936 0C6.62969 0 0.638294 5.90143 0.50008 13.2364C0.499222 13.2707 0.50524 13.3049 0.517778 13.3368C0.530315 13.3688 0.54912 13.3979 0.573084 13.4224C0.597048 13.447 0.625686 13.4665 0.65731 13.4798C0.688935 13.4932 0.722906 13.5 0.757222 13.5H2.68578C2.82721 13.5 2.93971 13.3875 2.94292 13.2493ZM27.2428 13.5H25.3142C25.1728 13.5 25.0603 13.6125 25.0571 13.7507C25.0249 15.1554 24.7356 16.5182 24.1924 17.8007C23.6364 19.1186 22.8392 20.3014 21.8235 21.3171C20.7983 22.3466 19.5795 23.1629 18.2373 23.719C16.8951 24.275 15.4561 24.5599 14.0032 24.5571C12.5509 24.5599 11.1123 24.275 9.77067 23.7189C8.42899 23.1628 7.21071 22.3465 6.18612 21.3171C5.86791 20.9989 5.56898 20.6614 5.29255 20.3079L7.22754 18.7971C7.26583 18.7675 7.29497 18.7277 7.31163 18.6823C7.32829 18.6368 7.33179 18.5876 7.32171 18.5402C7.31164 18.4929 7.28841 18.4494 7.25469 18.4146C7.22097 18.3799 7.17814 18.3554 7.13111 18.3439L1.48365 16.9618C1.32293 16.9232 1.16543 17.0454 1.16543 17.2093L1.14293 23.0271C1.14293 23.2425 1.39043 23.3646 1.55757 23.2296L3.37042 21.8121C5.84219 24.9718 9.68645 27 14.0064 27C21.3735 27 27.3617 21.0954 27.4999 13.7636C27.5008 13.7293 27.4948 13.6951 27.4822 13.6632C27.4697 13.6312 27.4509 13.6021 27.4269 13.5776C27.403 13.553 27.3743 13.5335 27.3427 13.5202C27.3111 13.5068 27.2771 13.5 27.2428 13.5Z" fill="#121132"/>
</svg>
