<svg width="18" height="18" viewBox="0 0 18 18" fill="none" xmlns="http://www.w3.org/2000/svg">
<path d="M9.87423 0C10.1712 0.102415 10.4633 0.203849 10.7122 0.414559C11.24 0.86195 11.4417 1.63766 11.2031 2.38837C11.0087 3.0009 10.3985 3.47083 9.73235 3.52032C9.25027 3.55609 9.10692 3.71094 9.10643 4.19508C9.10643 4.44598 9.10643 4.69687 9.10643 4.94678C9.51242 4.99774 9.90172 5.03792 10.2886 5.09624C11.321 5.25304 12.3165 5.55392 13.209 6.09049C14.1653 6.66529 15.0735 7.32094 15.9999 7.94523C16.3156 8.1579 16.6258 8.37841 16.9326 8.60333C17.2905 8.86549 17.4746 9.22125 17.4172 9.66668C17.3588 10.1175 17.1182 10.4517 16.6808 10.6114C16.5468 10.6604 16.3961 10.6805 16.2522 10.683C15.7544 10.6913 15.2562 10.6864 14.7584 10.6864C14.6955 10.6864 14.6332 10.6864 14.5527 10.6864C14.5527 10.7682 14.5527 10.831 14.5527 10.8937C14.5527 11.9012 14.5532 12.9092 14.5527 13.9166C14.5527 14.2925 14.4221 14.4253 14.047 14.4268C13.4378 14.4287 12.8286 14.4272 12.2189 14.4272C12.156 14.4272 12.0927 14.4272 12.0092 14.4272C12.0092 14.5164 12.0092 14.585 12.0092 14.6536C12.0092 15.5969 12.0073 16.5402 12.0107 17.4835C12.0117 17.7222 11.9371 17.9064 11.7029 18C9.0544 18 6.40589 18 3.75739 18C3.52813 17.8741 3.48002 17.6697 3.48051 17.4252C3.48493 15.2637 3.48297 13.1017 3.48297 10.9402C3.48297 10.8643 3.48297 10.7883 3.48297 10.6859C3.41277 10.6859 3.35091 10.6859 3.28955 10.6859C2.59833 10.6859 1.90712 10.6869 1.21591 10.6854C0.635644 10.6845 0.218364 10.3924 0.0563608 9.87543C-0.0997511 9.37903 0.0710883 8.90126 0.535988 8.5754C1.56593 7.85261 2.5841 7.11072 3.63613 6.42175C4.76083 5.68524 6.00776 5.24422 7.34306 5.06438C7.66166 5.02126 7.98174 4.99235 8.32489 4.95413C8.32489 4.68609 8.33078 4.41853 8.32391 4.15196C8.30918 3.57815 8.52813 3.13271 9.05341 2.87986C9.22671 2.79656 9.43289 2.76618 9.6273 2.74609C10.0976 2.69757 10.4599 2.37514 10.507 1.9351C10.5664 1.38333 10.3234 0.967795 9.85901 0.829118C9.3136 0.665941 8.7569 1.04473 8.70928 1.61364C8.69848 1.74154 8.70093 1.8714 8.68424 1.99831C8.65577 2.21196 8.49131 2.35652 8.29544 2.35211C8.09809 2.3477 7.93805 2.19481 7.91154 1.98606C7.79519 1.07119 8.34747 0.268042 9.25224 0.0357716C9.28513 0.0274413 9.31655 0.0122506 9.34846 0C9.52273 0 9.69848 0 9.87423 0ZM11.4707 9.4545C11.3784 9.4545 11.3205 9.4545 11.2621 9.4545C9.26451 9.4545 7.26696 9.45401 5.26991 9.4545C4.63564 9.4545 4.28022 9.80927 4.28022 10.4424C4.27973 12.6333 4.27973 14.8237 4.28022 17.0146C4.28022 17.0763 4.28562 17.1381 4.28856 17.1993C6.60521 17.1993 8.90368 17.1993 11.213 17.1993C11.213 17.1155 11.213 17.0459 11.213 16.9759C11.213 14.8673 11.2154 12.7582 11.2105 10.6497C11.2095 10.2415 11.2321 9.84357 11.4707 9.4545ZM15.4491 9.89356C15.4491 9.89258 15.4491 9.8916 15.4491 9.89111C15.7304 9.89111 16.0117 9.8916 16.2925 9.89111C16.454 9.89111 16.5625 9.8029 16.6111 9.66031C16.6617 9.51183 16.6307 9.37021 16.4987 9.26584C16.4619 9.23693 16.4241 9.20899 16.3858 9.18204C15.668 8.67634 14.9577 8.15888 14.2292 7.66934C13.6911 7.30771 13.1511 6.93774 12.5733 6.64961C11.0038 5.86753 9.33618 5.61174 7.59392 5.82735C6.3622 5.98024 5.20216 6.35559 4.16289 7.02594C3.07649 7.72668 2.03231 8.49356 0.971432 9.23399C0.807956 9.34816 0.752482 9.50448 0.813847 9.66031C0.879139 9.82593 1.00776 9.89552 1.18645 9.89503C1.93069 9.89209 2.67492 9.8965 3.41866 9.88915C3.47462 9.88866 3.56102 9.83328 3.58164 9.78232C3.88601 9.03504 4.45057 8.66458 5.24242 8.66164C7.7677 8.65331 10.293 8.65625 12.8183 8.66017C13.5885 8.66115 14.1727 9.06689 14.4457 9.77056C14.48 9.85975 14.5227 9.89846 14.6224 9.89601C14.8983 9.88915 15.1737 9.89356 15.4491 9.89356ZM13.7589 10.6972C13.1737 10.6972 12.5983 10.6972 12.021 10.6972C12.021 11.6816 12.021 12.6548 12.021 13.627C12.6082 13.627 13.183 13.627 13.7589 13.627C13.7589 12.6436 13.7589 11.6743 13.7589 10.6972ZM13.6322 9.88474C13.4245 9.58092 13.1644 9.44323 12.8413 9.46136C12.5532 9.47753 12.3121 9.60199 12.1491 9.88474C12.6489 9.88474 13.1236 9.88474 13.6322 9.88474Z" fill="#AF1F25"/>
</svg>
