<svg width="21" height="21" viewBox="0 0 21 21" fill="none" xmlns="http://www.w3.org/2000/svg">
<path d="M10.002 0C15.526 0 20.004 4.478 20.004 10.002C20.004 15.525 15.526 20.002 10.002 20.002C4.478 20.003 0 15.525 0 10.002C0 4.478 4.478 0 10.002 0ZM10.002 1.5C8.87781 1.48781 7.76236 1.6987 6.72022 2.12047C5.67807 2.54224 4.72993 3.16652 3.93066 3.95717C3.13139 4.74781 2.49687 5.68913 2.06382 6.72664C1.63077 7.76415 1.4078 8.87724 1.4078 10.0015C1.4078 11.1258 1.63077 12.2389 2.06382 13.2764C2.49687 14.3139 3.13139 15.2552 3.93066 16.0458C4.72993 16.8365 5.67807 17.4608 6.72022 17.8825C7.76236 18.3043 8.87781 18.5152 10.002 18.503C12.2408 18.4787 14.3796 17.5723 15.9541 15.9806C17.5287 14.3889 18.4118 12.2404 18.4118 10.0015C18.4118 7.7626 17.5287 5.61407 15.9541 4.02237C14.3796 2.43066 12.2408 1.52428 10.002 1.5ZM6.464 12.785C6.8849 13.3208 7.42216 13.7538 8.03512 14.0512C8.64808 14.3487 9.32067 14.5029 10.002 14.502C10.6826 14.5028 11.3545 14.349 11.9669 14.052C12.5793 13.7551 13.1162 13.3229 13.537 12.788C13.5981 12.7107 13.6738 12.6462 13.7597 12.5982C13.8457 12.5502 13.9403 12.5195 14.0382 12.5081C14.136 12.4966 14.2351 12.5045 14.3299 12.5313C14.4247 12.5582 14.5132 12.6034 14.5905 12.6645C14.6678 12.7256 14.7323 12.8013 14.7803 12.8872C14.8283 12.9732 14.859 13.0678 14.8704 13.1657C14.8819 13.2635 14.874 13.3626 14.8471 13.4574C14.8203 13.5522 14.7751 13.6407 14.714 13.718C14.1527 14.4306 13.437 15.0064 12.6207 15.4021C11.8045 15.7977 10.9091 16.0028 10.002 16.002C9.09376 16.0027 8.19723 15.797 7.38021 15.4002C6.5632 15.0035 5.84708 14.4262 5.286 13.712C5.22243 13.6349 5.1749 13.5459 5.1462 13.4502C5.1175 13.3545 5.10821 13.2541 5.11887 13.1547C5.12954 13.0554 5.15994 12.9592 5.2083 12.8718C5.25666 12.7843 5.32199 12.7075 5.40047 12.6456C5.47895 12.5838 5.56899 12.5383 5.66531 12.5117C5.76163 12.4852 5.86228 12.4782 5.96135 12.4911C6.06042 12.5039 6.15592 12.5365 6.24224 12.5868C6.32855 12.6371 6.40395 12.7042 6.464 12.784V12.785ZM7.002 6.752C7.16906 6.74727 7.33537 6.7761 7.4911 6.83676C7.64683 6.89743 7.78881 6.98871 7.90865 7.1052C8.02848 7.2217 8.12374 7.36104 8.18879 7.51499C8.25384 7.66894 8.28735 7.83437 8.28735 8.0015C8.28735 8.16863 8.25384 8.33406 8.18879 8.48801C8.12374 8.64196 8.02848 8.7813 7.90865 8.89779C7.78881 9.01429 7.64683 9.10557 7.4911 9.16624C7.33537 9.2269 7.16906 9.25573 7.002 9.251C6.67673 9.2418 6.36787 9.10612 6.14106 8.8728C5.91424 8.63947 5.78735 8.3269 5.78735 8.0015C5.78735 7.6761 5.91424 7.36353 6.14106 7.13021C6.36787 6.89688 6.67673 6.7612 7.002 6.752ZM13.002 6.752C13.1691 6.74727 13.3354 6.7761 13.4911 6.83676C13.6468 6.89743 13.7888 6.98871 13.9086 7.1052C14.0285 7.2217 14.1237 7.36104 14.1888 7.51499C14.2538 7.66894 14.2874 7.83437 14.2874 8.0015C14.2874 8.16863 14.2538 8.33406 14.1888 8.48801C14.1237 8.64196 14.0285 8.7813 13.9086 8.89779C13.7888 9.01429 13.6468 9.10557 13.4911 9.16624C13.3354 9.2269 13.1691 9.25573 13.002 9.251C12.6767 9.2418 12.3679 9.10612 12.1411 8.8728C11.9142 8.63947 11.7874 8.3269 11.7874 8.0015C11.7874 7.6761 11.9142 7.36353 12.1411 7.13021C12.3679 6.89688 12.6767 6.7612 13.002 6.752Z" fill="#AF1F25"/>
</svg>
