<svg width="64" height="64" viewBox="0 0 64 64" fill="none" xmlns="http://www.w3.org/2000/svg">
<g filter="url(#filter0_d_404_465)">
<rect x="12" y="10" width="40" height="40" rx="8" fill="white"/>
</g>
<path d="M22.6628 34.7772L27.5524 39.6667C27.6579 39.7726 27.7832 39.8565 27.9212 39.9137C28.0592 39.9709 28.2072 40.0002 28.3566 40H42.0062V37.7252H34.0923L42.3065 29.5111C43.1936 28.6251 43.1936 27.1806 42.3065 26.2946L36.6753 20.6646C36.2483 20.239 35.67 20 35.0671 20C34.4642 20 33.8858 20.239 33.4588 20.6646L28.0563 26.066L22.6492 31.5743C22.2306 32.0031 21.9975 32.5793 22 33.1785C22.0026 33.7778 22.2406 34.3519 22.6628 34.7772ZM35.0671 22.2729L40.6971 27.9029L37.7558 30.8441L32.1258 25.2141L35.0671 22.2729ZM29.6725 27.6663L30.5176 26.8224L36.1476 32.4524L30.9646 37.6354C30.9369 37.664 30.9107 37.694 30.8861 37.7252H28.8274L24.2722 33.1678L29.6725 27.6663Z" fill="#AF1F25"/>
<defs>
<filter id="filter0_d_404_465" x="0" y="0" width="64" height="64" filterUnits="userSpaceOnUse" color-interpolation-filters="sRGB">
<feFlood flood-opacity="0" result="BackgroundImageFix"/>
<feColorMatrix in="SourceAlpha" type="matrix" values="0 0 0 0 0 0 0 0 0 0 0 0 0 0 0 0 0 0 127 0" result="hardAlpha"/>
<feOffset dy="2"/>
<feGaussianBlur stdDeviation="6"/>
<feComposite in2="hardAlpha" operator="out"/>
<feColorMatrix type="matrix" values="0 0 0 0 0 0 0 0 0 0 0 0 0 0 0 0 0 0 0.08 0"/>
<feBlend mode="normal" in2="BackgroundImageFix" result="effect1_dropShadow_404_465"/>
<feBlend mode="normal" in="SourceGraphic" in2="effect1_dropShadow_404_465" result="shape"/>
</filter>
</defs>
</svg>
