<svg width="18" height="12" viewBox="0 0 18 12" fill="none" xmlns="http://www.w3.org/2000/svg">
<path d="M10.6557 7.92827C11.1672 7.4169 11.4545 6.72337 11.4545 6C11.4545 5.27663 11.1672 4.5831 10.6557 4.07173C10.1443 3.55984 9.45061 3.27273 8.72727 3.27273C8.00394 3.27273 7.31027 3.55984 6.79881 4.07173C6.28734 4.5831 6 5.27663 6 6C6 6.72337 6.28734 7.4169 6.79881 7.92827C7.31027 8.44016 8.00394 8.72727 8.72727 8.72727C9.45061 8.72727 10.1443 8.44016 10.6557 7.92827Z" fill="#484C4F"/>
<path fill-rule="evenodd" clip-rule="evenodd" d="M8.72727 0C3.27273 0 0 6 0 6C0 6 3.27273 12 8.72727 12C14.1818 12 17.4545 6 17.4545 6C17.4545 6 14.1818 0 8.72727 0ZM11.4271 8.70011C10.7111 9.41602 9.73991 9.81818 8.72727 9.81818C7.71463 9.81818 6.74347 9.41602 6.0274 8.70011C5.31136 7.98366 4.90909 7.01261 4.90909 6C4.90909 4.98739 5.31136 4.01634 6.0274 3.29989C6.74347 2.58398 7.71463 2.18182 8.72727 2.18182C9.73991 2.18182 10.7111 2.58398 11.4271 3.29989C12.1432 4.01634 12.5455 4.98739 12.5455 6C12.5455 7.01261 12.1432 7.98366 11.4271 8.70011Z" fill="#484C4F"/>
</svg>
