<svg width="19" height="20" viewBox="0 0 19 20" fill="none" xmlns="http://www.w3.org/2000/svg">
<path d="M8.2 5.5C12.1762 5.5 15.4 6.3055 15.4 7.3M15.4 7.3C15.4 8.2945 12.1762 9.1 8.2 9.1C4.2238 9.1 1 8.2945 1 7.3M15.4 7.3V15.7087C15.4 16.6636 15.0031 17.5807 14.1319 17.9704C13.0393 18.4591 11.161 19 8.2 19C5.2399 19 3.3616 18.4591 2.2681 17.9704C1.396 17.5807 1 16.6636 1 15.7087V7.3M15.4 7.3H1M1 7.3C1 6.9787 1.3375 6.6763 1.9297 6.4144M4.6 1.9V5.5M8.2 1V2.8M11.8 2.8V5.5M15.4 8.2C16.1161 8.2 16.8028 8.48446 17.3092 8.99081C17.8155 9.49716 18.1 10.1839 18.1 10.9C18.1 11.6161 17.8155 12.3028 17.3092 12.8092C16.8028 13.3155 16.1161 13.6 15.4 13.6V8.2Z" stroke="#AF1F25" stroke-width="1.5" stroke-linecap="round" stroke-linejoin="round"/>
</svg>
