<svg width="19" height="18" viewBox="0 0 19 18" fill="none" xmlns="http://www.w3.org/2000/svg">
<path d="M0.825228 0.0573257L18.3814 8.49964C18.4772 8.54568 18.5578 8.61696 18.6141 8.7054C18.6705 8.79385 18.7004 8.89592 18.7004 9.00008C18.7004 9.10424 18.6705 9.20632 18.6141 9.29477C18.5578 9.38321 18.4772 9.45449 18.3814 9.50053L0.824084 17.9428C0.725724 17.99 0.615548 18.0086 0.506678 17.9963C0.397808 17.9841 0.294833 17.9416 0.210017 17.8739C0.125201 17.8062 0.0621171 17.7161 0.0282803 17.6144C-0.00555656 17.5126 -0.00872091 17.4036 0.0191638 17.3001L1.7582 10.8897C1.78639 10.786 1.84464 10.6924 1.92596 10.6202C2.00728 10.5479 2.10822 10.5001 2.21669 10.4825L10.0841 9.2026C10.131 9.19503 10.1752 9.17616 10.2127 9.14772C10.2503 9.11927 10.2799 9.08215 10.2991 9.03969L10.3196 8.97275C10.3303 8.91069 10.3192 8.84694 10.288 8.79185C10.2569 8.73675 10.2076 8.69354 10.1481 8.66924L10.0841 8.65139L2.17324 7.36485C2.06498 7.34699 1.96429 7.29908 1.88319 7.22686C1.80208 7.15464 1.74401 7.06115 1.7159 6.95757L0.0191638 0.701155C-0.00901097 0.597651 -0.00606553 0.48842 0.0276487 0.386505C0.0613629 0.284591 0.124421 0.194299 0.209293 0.126413C0.294166 0.0585263 0.397265 0.0159133 0.506282 0.00366262C0.615298 -0.00858808 0.725623 0.0100412 0.824084 0.0573257H0.825228Z" fill="#AF1F25"/>
</svg>
