<svg width="282" height="298" viewBox="0 0 282 298" fill="none" xmlns="http://www.w3.org/2000/svg">
<path d="M6.6804 5.78267C6.64631 5.43892 6.5 5.17187 6.24148 4.98153C5.98295 4.79119 5.6321 4.69602 5.18892 4.69602C4.88778 4.69602 4.63352 4.73864 4.42614 4.82386C4.21875 4.90625 4.05966 5.02131 3.94886 5.16903C3.84091 5.31676 3.78693 5.48438 3.78693 5.67188C3.78125 5.82812 3.81392 5.96449 3.88494 6.08097C3.95881 6.19744 4.05966 6.2983 4.1875 6.38352C4.31534 6.46591 4.46307 6.53835 4.63068 6.60085C4.7983 6.66051 4.97727 6.71165 5.16761 6.75426L5.9517 6.94176C6.33239 7.02699 6.68182 7.14062 7 7.28267C7.31818 7.42472 7.59375 7.59943 7.8267 7.80682C8.05966 8.0142 8.24006 8.25852 8.3679 8.53977C8.49858 8.82102 8.56534 9.14347 8.56818 9.5071C8.56534 10.0412 8.42898 10.5043 8.15909 10.8963C7.89205 11.2855 7.50568 11.5881 7 11.804C6.49716 12.017 5.89063 12.1236 5.1804 12.1236C4.47585 12.1236 3.86222 12.0156 3.33949 11.7997C2.8196 11.5838 2.41335 11.2642 2.12074 10.8409C1.83097 10.4148 1.67898 9.88778 1.66477 9.25994H3.45028C3.47017 9.55256 3.55398 9.79687 3.7017 9.9929C3.85227 10.1861 4.05256 10.3324 4.30256 10.4318C4.5554 10.5284 4.84091 10.5767 5.15909 10.5767C5.47159 10.5767 5.7429 10.5312 5.97301 10.4403C6.20597 10.3494 6.38636 10.223 6.5142 10.0611C6.64205 9.89915 6.70597 9.71307 6.70597 9.50284C6.70597 9.30682 6.64773 9.14205 6.53125 9.00852C6.41761 8.875 6.25 8.76136 6.02841 8.66761C5.80966 8.57386 5.54119 8.48864 5.22301 8.41193L4.27273 8.1733C3.53693 7.99432 2.95597 7.71449 2.52983 7.33381C2.10369 6.95312 1.89205 6.44034 1.89489 5.79545C1.89205 5.26705 2.03267 4.8054 2.31676 4.41051C2.60369 4.01562 2.99716 3.70739 3.49716 3.4858C3.99716 3.2642 4.56534 3.15341 5.2017 3.15341C5.84943 3.15341 6.41477 3.2642 6.89773 3.4858C7.38352 3.70739 7.76136 4.01562 8.03125 4.41051C8.30114 4.8054 8.44034 5.26278 8.44886 5.78267H6.6804ZM13.2567 5.45455V6.81818H9.31499V5.45455H13.2567ZM10.2099 3.88636H12.0252V9.98864C12.0252 10.1562 12.0508 10.2869 12.1019 10.3807C12.1531 10.4716 12.2241 10.5355 12.315 10.5724C12.4087 10.6094 12.5167 10.6278 12.6388 10.6278C12.7241 10.6278 12.8093 10.6207 12.8945 10.6065C12.9798 10.5895 13.0451 10.5767 13.0906 10.5682L13.3761 11.919C13.2852 11.9474 13.1573 11.9801 12.9925 12.017C12.8278 12.0568 12.6275 12.081 12.3917 12.0895C11.9542 12.1065 11.5707 12.0483 11.2411 11.9148C10.9144 11.7812 10.6602 11.5739 10.4783 11.2926C10.2965 11.0114 10.207 10.6562 10.2099 10.2273V3.88636ZM16.3058 12.1236C15.8881 12.1236 15.516 12.0511 15.1893 11.9062C14.8626 11.7585 14.604 11.5412 14.4137 11.2543C14.2262 10.9645 14.1325 10.6037 14.1325 10.1719C14.1325 9.80824 14.1992 9.50284 14.3327 9.25568C14.4663 9.00852 14.6481 8.80966 14.8782 8.65909C15.1083 8.50852 15.3697 8.39489 15.6623 8.31818C15.9577 8.24148 16.2674 8.1875 16.5913 8.15625C16.9719 8.11648 17.2788 8.07955 17.5117 8.04545C17.7447 8.00852 17.9137 7.95455 18.0188 7.88352C18.1239 7.8125 18.1765 7.70739 18.1765 7.56818V7.54261C18.1765 7.27273 18.0913 7.06392 17.9208 6.91619C17.7532 6.76847 17.5146 6.6946 17.2049 6.6946C16.8782 6.6946 16.6183 6.76705 16.4251 6.91193C16.2319 7.05398 16.104 7.23295 16.0415 7.44886L14.3626 7.3125C14.4478 6.91477 14.6154 6.57102 14.8654 6.28125C15.1154 5.98864 15.4379 5.7642 15.8327 5.60795C16.2305 5.44886 16.6907 5.36932 17.2134 5.36932C17.5771 5.36932 17.9251 5.41193 18.2575 5.49716C18.5927 5.58239 18.8896 5.71449 19.1481 5.89347C19.4094 6.07244 19.6154 6.30256 19.766 6.58381C19.9165 6.86222 19.9918 7.19602 19.9918 7.58523V12H18.2702V11.0923H18.2191C18.114 11.2969 17.9734 11.4773 17.7972 11.6335C17.6211 11.7869 17.4094 11.9077 17.1623 11.9957C16.9151 12.081 16.6296 12.1236 16.3058 12.1236ZM16.8256 10.8707C17.0927 10.8707 17.3285 10.8182 17.533 10.7131C17.7376 10.6051 17.8981 10.4602 18.0146 10.2784C18.131 10.0966 18.1893 9.89062 18.1893 9.66051V8.96591C18.1325 9.00284 18.0543 9.03693 17.9549 9.06818C17.8583 9.09659 17.7489 9.12358 17.6268 9.14915C17.5046 9.17187 17.3825 9.19318 17.2603 9.21307C17.1381 9.23011 17.0273 9.24574 16.9279 9.25994C16.7148 9.29119 16.5288 9.34091 16.3697 9.40909C16.2106 9.47727 16.087 9.5696 15.9989 9.68608C15.9109 9.79972 15.8668 9.94176 15.8668 10.1122C15.8668 10.3594 15.9563 10.5483 16.1353 10.679C16.3171 10.8068 16.5472 10.8707 16.8256 10.8707ZM21.4002 12V5.45455H23.1602V6.59659H23.2283C23.3477 6.19034 23.5479 5.88352 23.8292 5.67614C24.1104 5.46591 24.4343 5.3608 24.8008 5.3608C24.8917 5.3608 24.9897 5.36648 25.0948 5.37784C25.1999 5.3892 25.2923 5.40483 25.3718 5.42472V7.03551C25.2866 7.00994 25.1687 6.98722 25.0181 6.96733C24.8675 6.94744 24.7298 6.9375 24.6048 6.9375C24.3377 6.9375 24.0991 6.99574 23.8888 7.11222C23.6815 7.22585 23.5167 7.38494 23.3945 7.58949C23.2752 7.79403 23.2156 8.02983 23.2156 8.29688V12H21.4002ZM30.12 5.45455V6.81818H26.1783V5.45455H30.12ZM27.0732 3.88636H28.8885V9.98864C28.8885 10.1562 28.9141 10.2869 28.9652 10.3807C29.0163 10.4716 29.0874 10.5355 29.1783 10.5724C29.272 10.6094 29.38 10.6278 29.5021 10.6278C29.5874 10.6278 29.6726 10.6207 29.7578 10.6065C29.843 10.5895 29.9084 10.5767 29.9538 10.5682L30.2393 11.919C30.1484 11.9474 30.0206 11.9801 29.8558 12.017C29.6911 12.0568 29.4908 12.081 29.255 12.0895C28.8175 12.1065 28.4339 12.0483 28.1044 11.9148C27.7777 11.7812 27.5234 11.5739 27.3416 11.2926C27.1598 11.0114 27.0703 10.6562 27.0732 10.2273V3.88636ZM37.2077 12H34.114V3.27273H37.2333C38.1112 3.27273 38.8668 3.44744 39.5004 3.79688C40.1339 4.14347 40.6211 4.64205 40.962 5.29261C41.3058 5.94318 41.4776 6.72159 41.4776 7.62784C41.4776 8.53693 41.3058 9.31818 40.962 9.97159C40.6211 10.625 40.131 11.1264 39.4918 11.4759C38.8555 11.8253 38.0941 12 37.2077 12ZM35.9592 10.419H37.131C37.6765 10.419 38.1353 10.3224 38.5075 10.1293C38.8825 9.93324 39.1637 9.63068 39.3512 9.22159C39.5415 8.80966 39.6367 8.27841 39.6367 7.62784C39.6367 6.98295 39.5415 6.45597 39.3512 6.04688C39.1637 5.63778 38.8839 5.33665 38.5117 5.14347C38.1396 4.95028 37.6808 4.85369 37.1353 4.85369H35.9592V10.419ZM44.6768 12.1236C44.2592 12.1236 43.8871 12.0511 43.5604 11.9062C43.2337 11.7585 42.9751 11.5412 42.7848 11.2543C42.5973 10.9645 42.5036 10.6037 42.5036 10.1719C42.5036 9.80824 42.5703 9.50284 42.7038 9.25568C42.8374 9.00852 43.0192 8.80966 43.2493 8.65909C43.4794 8.50852 43.7408 8.39489 44.0334 8.31818C44.3288 8.24148 44.6385 8.1875 44.9624 8.15625C45.343 8.11648 45.6499 8.07955 45.8828 8.04545C46.1158 8.00852 46.2848 7.95455 46.3899 7.88352C46.495 7.8125 46.5476 7.70739 46.5476 7.56818V7.54261C46.5476 7.27273 46.4624 7.06392 46.2919 6.91619C46.1243 6.76847 45.8857 6.6946 45.576 6.6946C45.2493 6.6946 44.9893 6.76705 44.7962 6.91193C44.603 7.05398 44.4751 7.23295 44.4126 7.44886L42.7337 7.3125C42.8189 6.91477 42.9865 6.57102 43.2365 6.28125C43.4865 5.98864 43.8089 5.7642 44.2038 5.60795C44.6016 5.44886 45.0618 5.36932 45.5845 5.36932C45.9482 5.36932 46.2962 5.41193 46.6286 5.49716C46.9638 5.58239 47.2607 5.71449 47.5192 5.89347C47.7805 6.07244 47.9865 6.30256 48.1371 6.58381C48.2876 6.86222 48.3629 7.19602 48.3629 7.58523V12H46.6413V11.0923H46.5902C46.4851 11.2969 46.3445 11.4773 46.1683 11.6335C45.9922 11.7869 45.7805 11.9077 45.5334 11.9957C45.2862 12.081 45.0007 12.1236 44.6768 12.1236ZM45.1967 10.8707C45.4638 10.8707 45.6996 10.8182 45.9041 10.7131C46.1087 10.6051 46.2692 10.4602 46.3857 10.2784C46.5021 10.0966 46.5604 9.89062 46.5604 9.66051V8.96591C46.5036 9.00284 46.4254 9.03693 46.326 9.06818C46.2294 9.09659 46.12 9.12358 45.9979 9.14915C45.8757 9.17187 45.7536 9.19318 45.6314 9.21307C45.5092 9.23011 45.3984 9.24574 45.299 9.25994C45.0859 9.29119 44.8999 9.34091 44.7408 9.40909C44.5817 9.47727 44.4581 9.5696 44.37 9.68608C44.282 9.79972 44.2379 9.94176 44.2379 10.1122C44.2379 10.3594 44.3274 10.5483 44.5064 10.679C44.6882 10.8068 44.9183 10.8707 45.1967 10.8707ZM53.2528 5.45455V6.81818H49.3111V5.45455H53.2528ZM50.206 3.88636H52.0213V9.98864C52.0213 10.1562 52.0469 10.2869 52.098 10.3807C52.1491 10.4716 52.2202 10.5355 52.3111 10.5724C52.4048 10.6094 52.5128 10.6278 52.6349 10.6278C52.7202 10.6278 52.8054 10.6207 52.8906 10.6065C52.9759 10.5895 53.0412 10.5767 53.0866 10.5682L53.3722 11.919C53.2813 11.9474 53.1534 11.9801 52.9886 12.017C52.8239 12.0568 52.6236 12.081 52.3878 12.0895C51.9503 12.1065 51.5668 12.0483 51.2372 11.9148C50.9105 11.7812 50.6563 11.5739 50.4744 11.2926C50.2926 11.0114 50.2031 10.6562 50.206 10.2273V3.88636ZM57.348 12.1278C56.6747 12.1278 56.0952 11.9915 55.6094 11.7188C55.1264 11.4432 54.7543 11.054 54.4929 10.5511C54.2315 10.0455 54.1009 9.44744 54.1009 8.7571C54.1009 8.08381 54.2315 7.4929 54.4929 6.98438C54.7543 6.47585 55.1222 6.07955 55.5966 5.79545C56.0739 5.51136 56.6335 5.36932 57.2756 5.36932C57.7074 5.36932 58.1094 5.43892 58.4815 5.57812C58.8565 5.71449 59.1832 5.92045 59.4616 6.19602C59.7429 6.47159 59.9616 6.81818 60.1179 7.2358C60.2741 7.65057 60.3523 8.13636 60.3523 8.69318V9.19176H54.8253V8.06676H58.6435C58.6435 7.8054 58.5866 7.57386 58.473 7.37216C58.3594 7.17045 58.2017 7.01278 58 6.89915C57.8011 6.78267 57.5696 6.72443 57.3054 6.72443C57.0298 6.72443 56.7855 6.78835 56.5724 6.91619C56.3622 7.04119 56.1974 7.21023 56.0781 7.4233C55.9588 7.63352 55.8977 7.8679 55.8949 8.12642V9.19602C55.8949 9.51989 55.9545 9.79972 56.0739 10.0355C56.196 10.2713 56.3679 10.4531 56.5895 10.581C56.8111 10.7088 57.0739 10.7727 57.3778 10.7727C57.5795 10.7727 57.7642 10.7443 57.9318 10.6875C58.0994 10.6307 58.2429 10.5455 58.3622 10.4318C58.4815 10.3182 58.5724 10.179 58.6349 10.0142L60.3139 10.125C60.2287 10.5284 60.054 10.8807 59.7898 11.1818C59.5284 11.4801 59.1903 11.7131 58.7756 11.8807C58.3636 12.0455 57.8878 12.1278 57.348 12.1278Z" fill="black"/>
<path d="M12.7729 72.2727H14.7076L17.2985 78.5966H17.4007L19.9917 72.2727H21.9263V81H20.4093V75.0043H20.3283L17.9164 80.9744H16.7828L14.3709 74.9915H14.29V81H12.7729V72.2727ZM26.4348 81.1278C25.7956 81.1278 25.2417 80.9872 24.7729 80.706C24.3042 80.4247 23.9405 80.0312 23.682 79.5256C23.4263 79.0199 23.2985 78.429 23.2985 77.7528C23.2985 77.0767 23.4263 76.4844 23.682 75.9759C23.9405 75.4673 24.3042 75.0724 24.7729 74.7912C25.2417 74.5099 25.7956 74.3693 26.4348 74.3693C27.074 74.3693 27.628 74.5099 28.0968 74.7912C28.5655 75.0724 28.9277 75.4673 29.1834 75.9759C29.4419 76.4844 29.5712 77.0767 29.5712 77.7528C29.5712 78.429 29.4419 79.0199 29.1834 79.5256C28.9277 80.0312 28.5655 80.4247 28.0968 80.706C27.628 80.9872 27.074 81.1278 26.4348 81.1278ZM26.4434 79.892C26.79 79.892 27.0797 79.7969 27.3127 79.6065C27.5456 79.4134 27.7189 79.1548 27.8326 78.831C27.949 78.5071 28.0073 78.1463 28.0073 77.7486C28.0073 77.348 27.949 76.9858 27.8326 76.6619C27.7189 76.3352 27.5456 76.0753 27.3127 75.8821C27.0797 75.6889 26.79 75.5923 26.4434 75.5923C26.0882 75.5923 25.7928 75.6889 25.557 75.8821C25.324 76.0753 25.1493 76.3352 25.0328 76.6619C24.9192 76.9858 24.8624 77.348 24.8624 77.7486C24.8624 78.1463 24.9192 78.5071 25.0328 78.831C25.1493 79.1548 25.324 79.4134 25.557 79.6065C25.7928 79.7969 26.0882 79.892 26.4434 79.892Z" fill="#121212"/>
<path d="M54.3113 73.598V72.2727H61.2743V73.598H58.5769V81H57.0087V73.598H54.3113ZM65.8297 78.2472V74.4545H67.3723V81H65.8766V79.8366H65.8084C65.6607 80.2031 65.4178 80.5028 65.0797 80.7358C64.7445 80.9687 64.3311 81.0852 63.8397 81.0852C63.4107 81.0852 63.0314 80.9901 62.7019 80.7997C62.3752 80.6065 62.1195 80.3267 61.9348 79.9602C61.7502 79.5909 61.6578 79.1449 61.6578 78.6222V74.4545H63.2005V78.3835C63.2005 78.7983 63.3141 79.1278 63.5414 79.3722C63.7686 79.6165 64.0669 79.7386 64.4363 79.7386C64.6635 79.7386 64.8837 79.6832 65.0968 79.5724C65.3098 79.4616 65.4846 79.2969 65.6209 79.0781C65.7601 78.8565 65.8297 78.5795 65.8297 78.2472Z" fill="#121212"/>
<path d="M94.4338 81L91.9707 72.2727H93.671L95.2434 78.6861H95.3244L97.0034 72.2727H98.5502L100.233 78.6903H100.31L101.883 72.2727H103.583L101.12 81H99.5602L97.813 74.8764H97.7449L95.9934 81H94.4338ZM106.841 81.1278C106.184 81.1278 105.618 80.9915 105.14 80.7188C104.666 80.4432 104.301 80.054 104.045 79.5511C103.79 79.0455 103.662 78.4503 103.662 77.7656C103.662 77.0923 103.79 76.5014 104.045 75.9929C104.304 75.4815 104.665 75.0838 105.128 74.7997C105.591 74.5128 106.135 74.3693 106.76 74.3693C107.163 74.3693 107.544 74.4347 107.902 74.5653C108.263 74.6932 108.581 74.892 108.856 75.1619C109.135 75.4318 109.354 75.7756 109.513 76.1932C109.672 76.608 109.751 77.1023 109.751 77.6761V78.1491H104.386V77.1094H108.273C108.27 76.8139 108.206 76.5511 108.081 76.321C107.956 76.0881 107.781 75.9048 107.557 75.7713C107.335 75.6378 107.077 75.571 106.781 75.571C106.466 75.571 106.189 75.6477 105.95 75.8011C105.711 75.9517 105.525 76.1506 105.392 76.3977C105.261 76.642 105.194 76.9105 105.192 77.2031V78.1108C105.192 78.4915 105.261 78.8182 105.4 79.0909C105.54 79.3608 105.734 79.5682 105.984 79.7131C106.234 79.8551 106.527 79.9261 106.862 79.9261C107.086 79.9261 107.29 79.8949 107.471 79.8324C107.653 79.767 107.811 79.6719 107.944 79.5469C108.078 79.4219 108.179 79.267 108.247 79.0824L109.687 79.2443C109.596 79.625 109.423 79.9574 109.167 80.2415C108.915 80.5227 108.591 80.7415 108.196 80.8977C107.801 81.0511 107.349 81.1278 106.841 81.1278Z" fill="#121212"/>
<path d="M133.837 73.598V72.2727H140.8V73.598H138.102V81H136.534V73.598H133.837ZM143.616 77.1648V81H142.074V72.2727H143.582V75.5668H143.659C143.813 75.1974 144.05 74.9062 144.371 74.6932C144.695 74.4773 145.107 74.3693 145.607 74.3693C146.061 74.3693 146.457 74.4645 146.795 74.6548C147.134 74.8452 147.395 75.1236 147.58 75.4901C147.767 75.8565 147.861 76.304 147.861 76.8324V81H146.318V77.071C146.318 76.6307 146.205 76.2884 145.977 76.044C145.753 75.7969 145.438 75.6733 145.031 75.6733C144.759 75.6733 144.514 75.733 144.298 75.8523C144.085 75.9687 143.918 76.1378 143.795 76.3594C143.676 76.581 143.616 76.8494 143.616 77.1648Z" fill="#121212"/>
<path d="M176.013 81V72.2727H181.604V73.598H177.594V75.9673H181.221V77.2926H177.594V81H176.013ZM182.882 81V74.4545H184.378V75.5455H184.446C184.566 75.1676 184.77 74.8764 185.06 74.6719C185.353 74.4645 185.686 74.3608 186.061 74.3608C186.147 74.3608 186.242 74.3651 186.347 74.3736C186.455 74.3793 186.544 74.3892 186.615 74.4034V75.8224C186.55 75.7997 186.446 75.7798 186.304 75.7628C186.165 75.7429 186.03 75.733 185.9 75.733C185.618 75.733 185.365 75.794 185.141 75.9162C184.919 76.0355 184.745 76.2017 184.617 76.4148C184.489 76.6278 184.425 76.8736 184.425 77.152V81H182.882Z" fill="#121212"/>
<path d="M219.262 74.6719C219.222 74.2997 219.055 74.0099 218.759 73.8026C218.466 73.5952 218.086 73.4915 217.617 73.4915C217.287 73.4915 217.005 73.5412 216.769 73.6406C216.533 73.7401 216.353 73.875 216.228 74.0455C216.103 74.2159 216.039 74.4105 216.036 74.6293C216.036 74.8111 216.077 74.9687 216.16 75.1023C216.245 75.2358 216.36 75.3494 216.505 75.4432C216.65 75.5341 216.81 75.6108 216.986 75.6733C217.162 75.7358 217.34 75.7884 217.519 75.831L218.337 76.0355C218.667 76.1122 218.983 76.2159 219.287 76.3466C219.594 76.4773 219.868 76.642 220.11 76.8409C220.354 77.0398 220.547 77.2798 220.689 77.5611C220.831 77.8423 220.903 78.1719 220.903 78.5497C220.903 79.0611 220.772 79.5114 220.51 79.9006C220.249 80.2869 219.871 80.5895 219.377 80.8082C218.885 81.0241 218.29 81.1321 217.591 81.1321C216.912 81.1321 216.323 81.027 215.823 80.8168C215.326 80.6065 214.937 80.2997 214.655 79.8963C214.377 79.4929 214.226 79.0014 214.204 78.4219H215.759C215.782 78.7259 215.876 78.9787 216.04 79.1804C216.205 79.3821 216.42 79.5327 216.684 79.6321C216.951 79.7315 217.249 79.7812 217.579 79.7812C217.922 79.7812 218.224 79.7301 218.482 79.6278C218.743 79.5227 218.948 79.3778 219.096 79.1932C219.243 79.0057 219.319 78.7869 219.322 78.5369C219.319 78.3097 219.252 78.1222 219.121 77.9744C218.991 77.8239 218.807 77.6989 218.572 77.5994C218.339 77.4972 218.066 77.4062 217.753 77.3267L216.76 77.071C216.042 76.8864 215.474 76.6065 215.056 76.2315C214.641 75.8537 214.434 75.3523 214.434 74.7273C214.434 74.2131 214.573 73.7628 214.851 73.3764C215.133 72.9901 215.515 72.6903 215.998 72.4773C216.481 72.2614 217.028 72.1534 217.638 72.1534C218.258 72.1534 218.8 72.2614 219.266 72.4773C219.735 72.6903 220.103 72.9872 220.37 73.3679C220.637 73.7457 220.775 74.1804 220.783 74.6719H219.262ZM224.127 81.1321C223.713 81.1321 223.339 81.0582 223.007 80.9105C222.677 80.7599 222.416 80.5384 222.222 80.2457C222.032 79.9531 221.937 79.5923 221.937 79.1634C221.937 78.794 222.005 78.4886 222.142 78.2472C222.278 78.0057 222.464 77.8125 222.7 77.6676C222.936 77.5227 223.201 77.4134 223.497 77.3395C223.795 77.2628 224.103 77.2074 224.421 77.1733C224.805 77.1335 225.116 77.098 225.355 77.0668C225.593 77.0327 225.767 76.9815 225.874 76.9134C225.985 76.8423 226.041 76.733 226.041 76.5852V76.5597C226.041 76.2386 225.945 75.9901 225.755 75.8139C225.565 75.6378 225.291 75.5497 224.933 75.5497C224.555 75.5497 224.255 75.6321 224.034 75.7969C223.815 75.9616 223.667 76.1562 223.59 76.3807L222.15 76.1761C222.264 75.7784 222.451 75.446 222.713 75.179C222.974 74.9091 223.294 74.7074 223.671 74.5739C224.049 74.4375 224.467 74.3693 224.924 74.3693C225.24 74.3693 225.553 74.4062 225.866 74.4801C226.178 74.554 226.464 74.6761 226.722 74.8466C226.981 75.0142 227.188 75.2429 227.345 75.5327C227.504 75.8224 227.583 76.1847 227.583 76.6193V81H226.1V80.1009H226.049C225.955 80.2827 225.823 80.4531 225.653 80.6122C225.485 80.7685 225.274 80.8949 225.018 80.9915C224.765 81.0852 224.468 81.1321 224.127 81.1321ZM224.528 79.9986C224.838 79.9986 225.106 79.9375 225.333 79.8153C225.561 79.6903 225.735 79.5256 225.857 79.321C225.982 79.1165 226.045 78.8935 226.045 78.652V77.8807C225.997 77.9205 225.914 77.9574 225.798 77.9915C225.684 78.0256 225.556 78.0554 225.414 78.081C225.272 78.1065 225.132 78.1293 224.992 78.1491C224.853 78.169 224.732 78.1861 224.63 78.2003C224.4 78.2315 224.194 78.2827 224.012 78.3537C223.83 78.4247 223.687 78.5241 223.582 78.652C223.477 78.777 223.424 78.9389 223.424 79.1378C223.424 79.4219 223.528 79.6364 223.735 79.7812C223.943 79.9261 224.207 79.9986 224.528 79.9986Z" fill="#121212"/>
<path d="M259.057 74.6719C259.017 74.2997 258.849 74.0099 258.554 73.8026C258.261 73.5952 257.881 73.4915 257.412 73.4915C257.082 73.4915 256.8 73.5412 256.564 73.6406C256.328 73.7401 256.148 73.875 256.023 74.0455C255.898 74.2159 255.834 74.4105 255.831 74.6293C255.831 74.8111 255.872 74.9687 255.955 75.1023C256.04 75.2358 256.155 75.3494 256.3 75.4432C256.445 75.5341 256.605 75.6108 256.781 75.6733C256.957 75.7358 257.135 75.7884 257.314 75.831L258.132 76.0355C258.462 76.1122 258.778 76.2159 259.082 76.3466C259.389 76.4773 259.663 76.642 259.905 76.8409C260.149 77.0398 260.342 77.2798 260.484 77.5611C260.626 77.8423 260.697 78.1719 260.697 78.5497C260.697 79.0611 260.567 79.5114 260.305 79.9006C260.044 80.2869 259.666 80.5895 259.172 80.8082C258.68 81.0241 258.085 81.1321 257.386 81.1321C256.707 81.1321 256.118 81.027 255.618 80.8168C255.121 80.6065 254.732 80.2997 254.45 79.8963C254.172 79.4929 254.021 79.0014 253.999 78.4219H255.554C255.577 78.7259 255.67 78.9787 255.835 79.1804C256 79.3821 256.214 79.5327 256.479 79.6321C256.746 79.7315 257.044 79.7812 257.374 79.7812C257.717 79.7812 258.018 79.7301 258.277 79.6278C258.538 79.5227 258.743 79.3778 258.891 79.1932C259.038 79.0057 259.114 78.7869 259.116 78.5369C259.114 78.3097 259.047 78.1222 258.916 77.9744C258.786 77.8239 258.602 77.6989 258.366 77.5994C258.134 77.4972 257.861 77.4062 257.548 77.3267L256.555 77.071C255.837 76.8864 255.268 76.6065 254.851 76.2315C254.436 75.8537 254.229 75.3523 254.229 74.7273C254.229 74.2131 254.368 73.7628 254.646 73.3764C254.928 72.9901 255.31 72.6903 255.793 72.4773C256.276 72.2614 256.822 72.1534 257.433 72.1534C258.053 72.1534 258.595 72.2614 259.061 72.4773C259.53 72.6903 259.898 72.9872 260.165 73.3679C260.432 73.7457 260.57 74.1804 260.578 74.6719H259.057ZM266.211 78.2472V74.4545H267.753V81H266.257V79.8366H266.189C266.042 80.2031 265.799 80.5028 265.461 80.7358C265.125 80.9687 264.712 81.0852 264.221 81.0852C263.792 81.0852 263.412 80.9901 263.083 80.7997C262.756 80.6065 262.5 80.3267 262.316 79.9602C262.131 79.5909 262.039 79.1449 262.039 78.6222V74.4545H263.581V78.3835C263.581 78.7983 263.695 79.1278 263.922 79.3722C264.15 79.6165 264.448 79.7386 264.817 79.7386C265.044 79.7386 265.265 79.6832 265.478 79.5724C265.691 79.4616 265.865 79.2969 266.002 79.0781C266.141 78.8565 266.211 78.5795 266.211 78.2472Z" fill="#121212"/>
<path d="M22.1777 112.273V121H21.1209V113.381H21.0698L18.9391 114.795V113.722L21.1209 112.273H22.1777Z" fill="#121212"/>
<rect x="1" y="97" width="40" height="40" stroke="#DFDFDF"/>
<path d="M58.2743 121V120.233L61.155 117.08C61.4931 116.71 61.7715 116.389 61.9902 116.116C62.209 115.841 62.3709 115.582 62.476 115.341C62.584 115.097 62.638 114.841 62.638 114.574C62.638 114.267 62.5641 114.001 62.4164 113.777C62.2715 113.553 62.0726 113.379 61.8198 113.257C61.5669 113.135 61.2828 113.074 60.9675 113.074C60.6323 113.074 60.3397 113.143 60.0897 113.283C59.8425 113.419 59.6507 113.611 59.5144 113.858C59.3809 114.105 59.3141 114.395 59.3141 114.727H58.3084C58.3084 114.216 58.4263 113.767 58.6621 113.381C58.8979 112.994 59.2189 112.693 59.6252 112.477C60.0343 112.261 60.4931 112.153 61.0016 112.153C61.513 112.153 61.9661 112.261 62.361 112.477C62.7559 112.693 63.0655 112.984 63.29 113.351C63.5144 113.717 63.6266 114.125 63.6266 114.574C63.6266 114.895 63.5684 115.209 63.4519 115.516C63.3382 115.82 63.1394 116.159 62.8553 116.534C62.574 116.906 62.1834 117.361 61.6834 117.898L59.7232 119.994V120.062H63.78V121H58.2743Z" fill="#121212"/>
<rect x="41" y="97" width="40" height="40" stroke="#DFDFDF"/>
<path d="M101.036 121.119C100.473 121.119 99.9718 121.023 99.5314 120.83C99.0939 120.636 98.7459 120.368 98.4874 120.024C98.2317 119.678 98.0925 119.276 98.0698 118.818H99.1436C99.1664 119.099 99.263 119.342 99.4334 119.547C99.6039 119.749 99.8269 119.905 100.102 120.016C100.378 120.126 100.683 120.182 101.019 120.182C101.394 120.182 101.726 120.116 102.016 119.986C102.306 119.855 102.533 119.673 102.698 119.44C102.862 119.207 102.945 118.938 102.945 118.631C102.945 118.31 102.865 118.027 102.706 117.783C102.547 117.536 102.314 117.342 102.007 117.203C101.7 117.064 101.325 116.994 100.882 116.994H100.183V116.057H100.882C101.229 116.057 101.533 115.994 101.794 115.869C102.058 115.744 102.264 115.568 102.412 115.341C102.563 115.114 102.638 114.847 102.638 114.54C102.638 114.244 102.573 113.987 102.442 113.768C102.311 113.55 102.127 113.379 101.888 113.257C101.652 113.135 101.374 113.074 101.053 113.074C100.752 113.074 100.468 113.129 100.2 113.24C99.9363 113.348 99.7203 113.506 99.5527 113.713C99.3851 113.918 99.2942 114.165 99.28 114.455H98.2573C98.2743 113.997 98.4121 113.597 98.6706 113.253C98.9292 112.906 99.2672 112.636 99.6848 112.443C100.105 112.25 100.567 112.153 101.07 112.153C101.61 112.153 102.073 112.263 102.459 112.482C102.845 112.697 103.142 112.983 103.35 113.338C103.557 113.693 103.661 114.077 103.661 114.489C103.661 114.98 103.531 115.399 103.273 115.746C103.017 116.092 102.669 116.332 102.229 116.466V116.534C102.78 116.625 103.21 116.859 103.52 117.237C103.83 117.612 103.985 118.077 103.985 118.631C103.985 119.105 103.855 119.531 103.597 119.909C103.341 120.284 102.992 120.58 102.548 120.795C102.105 121.011 101.601 121.119 101.036 121.119Z" fill="#121212"/>
<rect x="81" y="97" width="40" height="40" stroke="#DFDFDF"/>
<rect x="121" y="97" width="40" height="40" fill="#AF1F25" fill-opacity="0.1"/>
<path d="M137.814 119.21V118.341L141.649 112.273H142.28V113.619H141.854L138.956 118.205V118.273H144.121V119.21H137.814ZM141.922 121V118.946V118.541V112.273H142.928V121H141.922Z" fill="#121212"/>
<rect x="121" y="97" width="40" height="40" stroke="#DFDFDF"/>
<path d="M180.968 121.119C180.468 121.119 180.017 121.02 179.617 120.821C179.216 120.622 178.895 120.349 178.654 120.003C178.412 119.656 178.28 119.261 178.257 118.818H179.28C179.32 119.213 179.499 119.54 179.817 119.798C180.138 120.054 180.521 120.182 180.968 120.182C181.325 120.182 181.644 120.098 181.922 119.93C182.203 119.763 182.423 119.533 182.583 119.24C182.744 118.945 182.825 118.611 182.825 118.239C182.825 117.858 182.742 117.518 182.574 117.22C182.409 116.919 182.182 116.682 181.892 116.509C181.602 116.335 181.271 116.247 180.899 116.244C180.632 116.241 180.358 116.283 180.077 116.368C179.796 116.45 179.564 116.557 179.382 116.688L178.394 116.568L178.922 112.273H183.456V113.21H179.808L179.502 115.784H179.553C179.732 115.642 179.956 115.524 180.226 115.43C180.496 115.337 180.777 115.29 181.07 115.29C181.604 115.29 182.08 115.418 182.497 115.673C182.918 115.926 183.247 116.273 183.486 116.713C183.727 117.153 183.848 117.656 183.848 118.222C183.848 118.778 183.723 119.276 183.473 119.713C183.226 120.148 182.885 120.491 182.45 120.744C182.016 120.994 181.521 121.119 180.968 121.119Z" fill="#121212"/>
<rect x="161" y="97" width="40" height="40" stroke="#DFDFDF"/>
<path d="M221.053 121.119C220.695 121.114 220.337 121.045 219.979 120.915C219.621 120.784 219.294 120.564 218.999 120.254C218.703 119.942 218.466 119.52 218.287 118.989C218.108 118.455 218.019 117.784 218.019 116.977C218.019 116.205 218.091 115.52 218.236 114.923C218.381 114.324 218.591 113.82 218.867 113.411C219.142 112.999 219.475 112.686 219.864 112.473C220.256 112.26 220.698 112.153 221.189 112.153C221.678 112.153 222.112 112.251 222.493 112.447C222.877 112.641 223.189 112.911 223.431 113.257C223.672 113.604 223.828 114.003 223.899 114.455H222.86C222.763 114.062 222.575 113.737 222.297 113.479C222.019 113.22 221.649 113.091 221.189 113.091C220.513 113.091 219.98 113.385 219.591 113.973C219.205 114.561 219.01 115.386 219.007 116.449H219.075C219.235 116.207 219.423 116.001 219.642 115.831C219.864 115.658 220.108 115.524 220.375 115.43C220.642 115.337 220.925 115.29 221.223 115.29C221.723 115.29 222.181 115.415 222.595 115.665C223.01 115.912 223.343 116.254 223.593 116.692C223.843 117.126 223.968 117.625 223.968 118.188C223.968 118.727 223.847 119.222 223.605 119.67C223.364 120.116 223.024 120.472 222.587 120.736C222.152 120.997 221.641 121.125 221.053 121.119ZM221.053 120.182C221.411 120.182 221.732 120.092 222.016 119.913C222.303 119.734 222.529 119.494 222.693 119.193C222.861 118.892 222.945 118.557 222.945 118.188C222.945 117.827 222.864 117.499 222.702 117.203C222.543 116.905 222.323 116.668 222.041 116.491C221.763 116.315 221.445 116.227 221.087 116.227C220.817 116.227 220.566 116.281 220.333 116.389C220.1 116.494 219.895 116.639 219.719 116.824C219.546 117.009 219.409 117.22 219.31 117.459C219.21 117.695 219.161 117.943 219.161 118.205C219.161 118.551 219.242 118.875 219.404 119.176C219.568 119.477 219.793 119.72 220.077 119.905C220.364 120.089 220.689 120.182 221.053 120.182Z" fill="#121212"/>
<rect x="201" y="97" width="40" height="40" stroke="#DFDFDF"/>
<path d="M258.752 121L262.655 113.278V113.21H258.155V112.273H263.746V113.261L259.86 121H258.752Z" fill="#121212"/>
<rect x="241" y="97" width="40" height="40" stroke="#DFDFDF"/>
<rect x="1" y="137" width="40" height="40" fill="#AF1F25" fill-opacity="0.1"/>
<path d="M21.0016 161.119C20.4164 161.119 19.8993 161.016 19.4505 160.808C19.0044 160.598 18.6564 160.31 18.4064 159.943C18.1564 159.574 18.0328 159.153 18.0357 158.682C18.0328 158.312 18.1053 157.972 18.253 157.659C18.4007 157.344 18.6025 157.081 18.8581 156.871C19.1167 156.658 19.405 156.523 19.7232 156.466V156.415C19.3056 156.307 18.9732 156.072 18.726 155.712C18.4789 155.348 18.3567 154.935 18.3596 154.472C18.3567 154.028 18.4689 153.632 18.6962 153.283C18.9235 152.933 19.236 152.658 19.6337 152.456C20.0343 152.254 20.4902 152.153 21.0016 152.153C21.5073 152.153 21.959 152.254 22.3567 152.456C22.7544 152.658 23.0669 152.933 23.2942 153.283C23.5243 153.632 23.6408 154.028 23.6436 154.472C23.6408 154.935 23.5144 155.348 23.2644 155.712C23.0172 156.072 22.6891 156.307 22.28 156.415V156.466C22.5953 156.523 22.8794 156.658 23.1323 156.871C23.3851 157.081 23.5868 157.344 23.7374 157.659C23.888 157.972 23.9647 158.312 23.9675 158.682C23.9647 159.153 23.8368 159.574 23.584 159.943C23.334 160.31 22.986 160.598 22.54 160.808C22.0968 161.016 21.584 161.119 21.0016 161.119ZM21.0016 160.182C21.3965 160.182 21.7374 160.118 22.0243 159.99C22.3113 159.862 22.5328 159.682 22.6891 159.449C22.8453 159.216 22.9249 158.943 22.9277 158.631C22.9249 158.301 22.8397 158.01 22.6721 157.757C22.5044 157.504 22.2757 157.305 21.986 157.161C21.699 157.016 21.3709 156.943 21.0016 156.943C20.6294 156.943 20.2971 157.016 20.0044 157.161C19.7147 157.305 19.486 157.504 19.3184 157.757C19.1536 158.01 19.0726 158.301 19.0755 158.631C19.0726 158.943 19.1479 159.216 19.3013 159.449C19.4576 159.682 19.6806 159.862 19.9703 159.99C20.2601 160.118 20.6039 160.182 21.0016 160.182ZM21.0016 156.04C21.3141 156.04 21.5911 155.977 21.8326 155.852C22.0769 155.727 22.2686 155.553 22.4078 155.328C22.5471 155.104 22.6181 154.841 22.6209 154.54C22.6181 154.244 22.5485 153.987 22.4121 153.768C22.2757 153.547 22.0868 153.376 21.8453 153.257C21.6039 153.135 21.3226 153.074 21.0016 153.074C20.6749 153.074 20.3894 153.135 20.1451 153.257C19.9007 153.376 19.7118 153.547 19.5783 153.768C19.4448 153.987 19.3794 154.244 19.3823 154.54C19.3794 154.841 19.4462 155.104 19.5826 155.328C19.7218 155.553 19.9135 155.727 20.1578 155.852C20.4022 155.977 20.6834 156.04 21.0016 156.04Z" fill="#121212"/>
<rect x="1" y="137" width="40" height="40" stroke="#DFDFDF"/>
<path d="M60.9334 152.153C61.2914 152.156 61.6493 152.224 62.0073 152.358C62.3652 152.491 62.6919 152.713 62.9874 153.023C63.2828 153.33 63.5201 153.749 63.699 154.28C63.878 154.811 63.9675 155.477 63.9675 156.278C63.9675 157.054 63.8936 157.743 63.7459 158.345C63.601 158.945 63.3908 159.45 63.1152 159.862C62.8425 160.274 62.5101 160.587 62.1181 160.8C61.7289 161.013 61.2885 161.119 60.7971 161.119C60.3084 161.119 59.8723 161.023 59.4888 160.83C59.1081 160.634 58.7956 160.362 58.5513 160.016C58.3098 159.666 58.155 159.261 58.0868 158.801H59.1266C59.2203 159.202 59.4064 159.533 59.6848 159.794C59.9661 160.053 60.3368 160.182 60.7971 160.182C61.4703 160.182 62.0016 159.888 62.3908 159.3C62.7828 158.712 62.9789 157.881 62.9789 156.807H62.9107C62.7516 157.045 62.5627 157.251 62.3439 157.425C62.1252 157.598 61.8823 157.732 61.6152 157.825C61.3482 157.919 61.0641 157.966 60.763 157.966C60.263 157.966 59.8042 157.842 59.3865 157.595C58.9718 157.345 58.6394 157.003 58.3894 156.568C58.1422 156.131 58.0186 155.631 58.0186 155.068C58.0186 154.534 58.138 154.045 58.3766 153.602C58.6181 153.156 58.9561 152.801 59.3908 152.537C59.8283 152.273 60.3425 152.145 60.9334 152.153ZM60.9334 153.091C60.5755 153.091 60.253 153.18 59.9661 153.359C59.682 153.536 59.4561 153.774 59.2885 154.075C59.1238 154.374 59.0414 154.705 59.0414 155.068C59.0414 155.432 59.1209 155.763 59.28 156.061C59.4419 156.357 59.6621 156.592 59.9405 156.768C60.2218 156.942 60.5414 157.028 60.8993 157.028C61.1692 157.028 61.4206 156.976 61.6536 156.871C61.8865 156.763 62.0897 156.616 62.263 156.432C62.4391 156.244 62.5769 156.033 62.6763 155.797C62.7757 155.558 62.8255 155.31 62.8255 155.051C62.8255 154.71 62.7431 154.391 62.5783 154.092C62.4164 153.794 62.1919 153.553 61.905 153.368C61.6209 153.183 61.2971 153.091 60.9334 153.091Z" fill="#121212"/>
<rect x="41" y="137" width="40" height="40" stroke="#DFDFDF"/>
<path d="M98.293 152.273V161H97.2362V153.381H97.185L95.0543 154.795V153.722L97.2362 152.273H98.293ZM104.886 161.119C104.244 161.119 103.697 160.945 103.246 160.595C102.794 160.243 102.449 159.733 102.21 159.065C101.972 158.395 101.852 157.585 101.852 156.636C101.852 155.693 101.972 154.888 102.21 154.22C102.452 153.55 102.798 153.038 103.25 152.686C103.705 152.331 104.25 152.153 104.886 152.153C105.523 152.153 106.067 152.331 106.518 152.686C106.973 153.038 107.32 153.55 107.558 154.22C107.8 154.888 107.92 155.693 107.92 156.636C107.92 157.585 107.801 158.395 107.562 159.065C107.324 159.733 106.979 160.243 106.527 160.595C106.075 160.945 105.528 161.119 104.886 161.119ZM104.886 160.182C105.523 160.182 106.017 159.875 106.369 159.261C106.722 158.648 106.898 157.773 106.898 156.636C106.898 155.881 106.817 155.237 106.655 154.706C106.496 154.175 106.266 153.77 105.964 153.491C105.666 153.213 105.307 153.074 104.886 153.074C104.256 153.074 103.763 153.385 103.408 154.007C103.053 154.626 102.875 155.503 102.875 156.636C102.875 157.392 102.955 158.034 103.114 158.562C103.273 159.091 103.501 159.493 103.8 159.768C104.101 160.044 104.463 160.182 104.886 160.182Z" fill="#121212"/>
<rect x="81" y="137" width="40" height="40" stroke="#DFDFDF"/>
<path d="M138.293 152.273V161H137.236V153.381H137.185L135.054 154.795V153.722L137.236 152.273H138.293ZM146.062 152.273V161H145.006V153.381H144.955L142.824 154.795V153.722L145.006 152.273H146.062Z" fill="#121212"/>
<rect x="121" y="137" width="40" height="40" stroke="#DFDFDF"/>
<path d="M178.293 152.273V161H177.236V153.381H177.185L175.054 154.795V153.722L177.236 152.273H178.293ZM182.159 161V160.233L185.04 157.08C185.378 156.71 185.656 156.389 185.875 156.116C186.094 155.841 186.256 155.582 186.361 155.341C186.469 155.097 186.523 154.841 186.523 154.574C186.523 154.267 186.449 154.001 186.301 153.777C186.156 153.553 185.957 153.379 185.705 153.257C185.452 153.135 185.168 153.074 184.852 153.074C184.517 153.074 184.224 153.143 183.974 153.283C183.727 153.419 183.536 153.611 183.399 153.858C183.266 154.105 183.199 154.395 183.199 154.727H182.193C182.193 154.216 182.311 153.767 182.547 153.381C182.783 152.994 183.104 152.693 183.51 152.477C183.919 152.261 184.378 152.153 184.886 152.153C185.398 152.153 185.851 152.261 186.246 152.477C186.641 152.693 186.95 152.984 187.175 153.351C187.399 153.717 187.511 154.125 187.511 154.574C187.511 154.895 187.453 155.209 187.337 155.516C187.223 155.82 187.024 156.159 186.74 156.534C186.459 156.906 186.068 157.361 185.568 157.898L183.608 159.994V160.062H187.665V161H182.159Z" fill="#121212"/>
<rect x="161" y="137" width="40" height="40" stroke="#DFDFDF"/>
<rect x="201" y="137" width="40" height="40" fill="#AF1F25" fill-opacity="0.1"/>
<path d="M218.293 152.273V161H217.236V153.381H217.185L215.054 154.795V153.722L217.236 152.273H218.293ZM224.92 161.119C224.358 161.119 223.857 161.023 223.416 160.83C222.979 160.636 222.631 160.368 222.372 160.024C222.116 159.678 221.977 159.276 221.955 158.818H223.028C223.051 159.099 223.148 159.342 223.318 159.547C223.489 159.749 223.712 159.905 223.987 160.016C224.263 160.126 224.568 160.182 224.903 160.182C225.278 160.182 225.611 160.116 225.901 159.986C226.19 159.855 226.418 159.673 226.582 159.44C226.747 159.207 226.83 158.938 226.83 158.631C226.83 158.31 226.75 158.027 226.591 157.783C226.432 157.536 226.199 157.342 225.892 157.203C225.585 157.064 225.21 156.994 224.767 156.994H224.068V156.057H224.767C225.114 156.057 225.418 155.994 225.679 155.869C225.943 155.744 226.149 155.568 226.297 155.341C226.447 155.114 226.523 154.847 226.523 154.54C226.523 154.244 226.457 153.987 226.327 153.768C226.196 153.55 226.011 153.379 225.773 153.257C225.537 153.135 225.259 153.074 224.938 153.074C224.636 153.074 224.352 153.129 224.085 153.24C223.821 153.348 223.605 153.506 223.438 153.713C223.27 153.918 223.179 154.165 223.165 154.455H222.142C222.159 153.997 222.297 153.597 222.555 153.253C222.814 152.906 223.152 152.636 223.57 152.443C223.99 152.25 224.452 152.153 224.955 152.153C225.494 152.153 225.957 152.263 226.344 152.482C226.73 152.697 227.027 152.983 227.234 153.338C227.442 153.693 227.545 154.077 227.545 154.489C227.545 154.98 227.416 155.399 227.158 155.746C226.902 156.092 226.554 156.332 226.114 156.466V156.534C226.665 156.625 227.095 156.859 227.405 157.237C227.714 157.612 227.869 158.077 227.869 158.631C227.869 159.105 227.74 159.531 227.482 159.909C227.226 160.284 226.876 160.58 226.433 160.795C225.99 161.011 225.486 161.119 224.92 161.119Z" fill="#121212"/>
<rect x="201" y="137" width="40" height="40" stroke="#DFDFDF"/>
<path d="M258.293 152.273V161H257.236V153.381H257.185L255.054 154.795V153.722L257.236 152.273H258.293ZM261.699 159.21V158.341L265.534 152.273H266.165V153.619H265.739L262.841 158.205V158.273H268.006V159.21H261.699ZM265.807 161V158.946V158.541V152.273H266.812V161H265.807Z" fill="#121212"/>
<rect x="241" y="137" width="40" height="40" stroke="#DFDFDF"/>
<path d="M18.293 192.273V201H17.2362V193.381H17.185L15.0543 194.795V193.722L17.2362 192.273H18.293ZM24.8523 201.119C24.3523 201.119 23.902 201.02 23.5014 200.821C23.1009 200.622 22.7798 200.349 22.5384 200.003C22.2969 199.656 22.1648 199.261 22.142 198.818H23.1648C23.2045 199.213 23.3835 199.54 23.7017 199.798C24.0227 200.054 24.4063 200.182 24.8523 200.182C25.2102 200.182 25.5284 200.098 25.8068 199.93C26.0881 199.763 26.3082 199.533 26.4673 199.24C26.6293 198.945 26.7102 198.611 26.7102 198.239C26.7102 197.858 26.6264 197.518 26.4588 197.22C26.294 196.919 26.0668 196.682 25.777 196.509C25.4872 196.335 25.1563 196.247 24.7841 196.244C24.517 196.241 24.2429 196.283 23.9616 196.368C23.6804 196.45 23.4489 196.557 23.267 196.688L22.2784 196.568L22.8068 192.273H27.3409V193.21H23.6932L23.3864 195.784H23.4375C23.6165 195.642 23.8409 195.524 24.1108 195.43C24.3807 195.337 24.6619 195.29 24.9545 195.29C25.4886 195.29 25.9645 195.418 26.3821 195.673C26.8026 195.926 27.1321 196.273 27.3707 196.713C27.6122 197.153 27.733 197.656 27.733 198.222C27.733 198.778 27.608 199.276 27.358 199.713C27.1108 200.148 26.7699 200.491 26.3352 200.744C25.9006 200.994 25.4063 201.119 24.8523 201.119Z" fill="#121212"/>
<rect x="1" y="177" width="40" height="40" stroke="#DFDFDF"/>
<path d="M58.293 192.273V201H57.2362V193.381H57.185L55.0543 194.795V193.722L57.2362 192.273H58.293ZM64.9375 201.119C64.5795 201.114 64.2216 201.045 63.8636 200.915C63.5057 200.784 63.179 200.564 62.8835 200.254C62.5881 199.942 62.3509 199.52 62.1719 198.989C61.9929 198.455 61.9034 197.784 61.9034 196.977C61.9034 196.205 61.9759 195.52 62.1207 194.923C62.2656 194.324 62.4759 193.82 62.7514 193.411C63.027 192.999 63.3594 192.686 63.7486 192.473C64.1406 192.26 64.5824 192.153 65.0739 192.153C65.5625 192.153 65.9972 192.251 66.3778 192.447C66.7614 192.641 67.0739 192.911 67.3153 193.257C67.5568 193.604 67.7131 194.003 67.7841 194.455H66.7443C66.6477 194.062 66.4602 193.737 66.1818 193.479C65.9034 193.22 65.5341 193.091 65.0739 193.091C64.3977 193.091 63.8651 193.385 63.4759 193.973C63.0895 194.561 62.8949 195.386 62.892 196.449H62.9602C63.1193 196.207 63.3082 196.001 63.527 195.831C63.7486 195.658 63.9929 195.524 64.2599 195.43C64.527 195.337 64.8097 195.29 65.108 195.29C65.608 195.29 66.0653 195.415 66.4801 195.665C66.8949 195.912 67.2273 196.254 67.4773 196.692C67.7273 197.126 67.8523 197.625 67.8523 198.188C67.8523 198.727 67.7315 199.222 67.4901 199.67C67.2486 200.116 66.9091 200.472 66.4716 200.736C66.0369 200.997 65.5256 201.125 64.9375 201.119ZM64.9375 200.182C65.2955 200.182 65.6165 200.092 65.9006 199.913C66.1875 199.734 66.4134 199.494 66.5781 199.193C66.7457 198.892 66.8295 198.557 66.8295 198.188C66.8295 197.827 66.7486 197.499 66.5866 197.203C66.4276 196.905 66.2074 196.668 65.9261 196.491C65.6477 196.315 65.3295 196.227 64.9716 196.227C64.7017 196.227 64.4503 196.281 64.2173 196.389C63.9844 196.494 63.7798 196.639 63.6037 196.824C63.4304 197.009 63.294 197.22 63.1946 197.459C63.0952 197.695 63.0455 197.943 63.0455 198.205C63.0455 198.551 63.1264 198.875 63.2884 199.176C63.4531 199.477 63.6776 199.72 63.9616 199.905C64.2486 200.089 64.5739 200.182 64.9375 200.182Z" fill="#121212"/>
<rect x="41" y="177" width="40" height="40" stroke="#DFDFDF"/>
<path d="M98.293 192.273V201H97.2362V193.381H97.185L95.0543 194.795V193.722L97.2362 192.273H98.293ZM102.636 201L106.54 193.278V193.21H102.04V192.273H107.631V193.261L103.744 201H102.636Z" fill="#121212"/>
<rect x="81" y="177" width="40" height="40" stroke="#DFDFDF"/>
<rect x="121" y="177" width="40" height="40" fill="#AF1F25"/>
<path d="M138.468 192.273V201H136.887V193.811H136.836L134.794 195.115V193.666L136.963 192.273H138.468ZM145.023 201.119C144.389 201.119 143.827 201.013 143.335 200.8C142.847 200.587 142.463 200.295 142.185 199.926C141.909 199.554 141.773 199.132 141.776 198.661C141.773 198.294 141.852 197.957 142.014 197.651C142.176 197.344 142.395 197.088 142.67 196.884C142.949 196.676 143.259 196.544 143.599 196.487V196.428C143.151 196.328 142.787 196.099 142.509 195.741C142.233 195.381 142.097 194.964 142.099 194.493C142.097 194.044 142.222 193.643 142.474 193.291C142.727 192.939 143.074 192.662 143.514 192.46C143.955 192.256 144.457 192.153 145.023 192.153C145.582 192.153 146.081 192.256 146.518 192.46C146.959 192.662 147.305 192.939 147.558 193.291C147.814 193.643 147.942 194.044 147.942 194.493C147.942 194.964 147.801 195.381 147.52 195.741C147.241 196.099 146.882 196.328 146.442 196.428V196.487C146.783 196.544 147.089 196.676 147.362 196.884C147.638 197.088 147.857 197.344 148.018 197.651C148.183 197.957 148.266 198.294 148.266 198.661C148.266 199.132 148.126 199.554 147.848 199.926C147.57 200.295 147.186 200.587 146.697 200.8C146.212 201.013 145.653 201.119 145.023 201.119ZM145.023 199.901C145.349 199.901 145.634 199.845 145.875 199.734C146.116 199.621 146.304 199.462 146.438 199.257C146.571 199.053 146.639 198.817 146.642 198.55C146.639 198.271 146.567 198.026 146.425 197.812C146.286 197.597 146.094 197.428 145.849 197.305C145.608 197.183 145.332 197.122 145.023 197.122C144.71 197.122 144.432 197.183 144.188 197.305C143.943 197.428 143.75 197.597 143.608 197.812C143.469 198.026 143.401 198.271 143.403 198.55C143.401 198.817 143.466 199.053 143.599 199.257C143.733 199.459 143.92 199.616 144.162 199.73C144.406 199.844 144.693 199.901 145.023 199.901ZM145.023 195.925C145.29 195.925 145.526 195.871 145.73 195.763C145.938 195.655 146.101 195.504 146.22 195.311C146.339 195.118 146.401 194.895 146.403 194.642C146.401 194.392 146.341 194.173 146.224 193.986C146.108 193.795 145.946 193.649 145.739 193.547C145.531 193.442 145.293 193.389 145.023 193.389C144.747 193.389 144.504 193.442 144.294 193.547C144.087 193.649 143.925 193.795 143.808 193.986C143.695 194.173 143.639 194.392 143.642 194.642C143.639 194.895 143.696 195.118 143.812 195.311C143.932 195.501 144.095 195.652 144.303 195.763C144.513 195.871 144.753 195.925 145.023 195.925Z" fill="white"/>
<rect x="121" y="177" width="40" height="40" stroke="#DFDFDF"/>
<path d="M178.293 192.273V201H177.236V193.381H177.185L175.054 194.795V193.722L177.236 192.273H178.293ZM184.818 192.153C185.176 192.156 185.534 192.224 185.892 192.358C186.25 192.491 186.577 192.713 186.872 193.023C187.168 193.33 187.405 193.749 187.584 194.28C187.763 194.811 187.852 195.477 187.852 196.278C187.852 197.054 187.778 197.743 187.631 198.345C187.486 198.945 187.276 199.45 187 199.862C186.727 200.274 186.395 200.587 186.003 200.8C185.614 201.013 185.173 201.119 184.682 201.119C184.193 201.119 183.757 201.023 183.374 200.83C182.993 200.634 182.68 200.362 182.436 200.016C182.195 199.666 182.04 199.261 181.972 198.801H183.011C183.105 199.202 183.291 199.533 183.57 199.794C183.851 200.053 184.222 200.182 184.682 200.182C185.355 200.182 185.886 199.888 186.276 199.3C186.668 198.712 186.864 197.881 186.864 196.807H186.795C186.636 197.045 186.447 197.251 186.229 197.425C186.01 197.598 185.767 197.732 185.5 197.825C185.233 197.919 184.949 197.966 184.648 197.966C184.148 197.966 183.689 197.842 183.271 197.595C182.857 197.345 182.524 197.003 182.274 196.568C182.027 196.131 181.903 195.631 181.903 195.068C181.903 194.534 182.023 194.045 182.261 193.602C182.503 193.156 182.841 192.801 183.276 192.537C183.713 192.273 184.227 192.145 184.818 192.153ZM184.818 193.091C184.46 193.091 184.138 193.18 183.851 193.359C183.567 193.536 183.341 193.774 183.173 194.075C183.009 194.374 182.926 194.705 182.926 195.068C182.926 195.432 183.006 195.763 183.165 196.061C183.327 196.357 183.547 196.592 183.825 196.768C184.107 196.942 184.426 197.028 184.784 197.028C185.054 197.028 185.305 196.976 185.538 196.871C185.771 196.763 185.974 196.616 186.148 196.432C186.324 196.244 186.462 196.033 186.561 195.797C186.661 195.558 186.71 195.31 186.71 195.051C186.71 194.71 186.628 194.391 186.463 194.092C186.301 193.794 186.077 193.553 185.79 193.368C185.506 193.183 185.182 193.091 184.818 193.091Z" fill="#121212"/>
<rect x="161" y="177" width="40" height="40" stroke="#DFDFDF"/>
<path d="M214.39 201V200.233L217.27 197.08C217.608 196.71 217.887 196.389 218.105 196.116C218.324 195.841 218.486 195.582 218.591 195.341C218.699 195.097 218.753 194.841 218.753 194.574C218.753 194.267 218.679 194.001 218.532 193.777C218.387 193.553 218.188 193.379 217.935 193.257C217.682 193.135 217.398 193.074 217.083 193.074C216.748 193.074 216.455 193.143 216.205 193.283C215.958 193.419 215.766 193.611 215.63 193.858C215.496 194.105 215.429 194.395 215.429 194.727H214.424C214.424 194.216 214.542 193.767 214.777 193.381C215.013 192.994 215.334 192.693 215.74 192.477C216.15 192.261 216.608 192.153 217.117 192.153C217.628 192.153 218.081 192.261 218.476 192.477C218.871 192.693 219.181 192.984 219.405 193.351C219.63 193.717 219.742 194.125 219.742 194.574C219.742 194.895 219.684 195.209 219.567 195.516C219.453 195.82 219.255 196.159 218.971 196.534C218.689 196.906 218.299 197.361 217.799 197.898L215.838 199.994V200.062H219.895V201H214.39ZM224.886 201.119C224.244 201.119 223.697 200.945 223.246 200.595C222.794 200.243 222.449 199.733 222.21 199.065C221.972 198.395 221.852 197.585 221.852 196.636C221.852 195.693 221.972 194.888 222.21 194.22C222.452 193.55 222.798 193.038 223.25 192.686C223.705 192.331 224.25 192.153 224.886 192.153C225.523 192.153 226.067 192.331 226.518 192.686C226.973 193.038 227.32 193.55 227.558 194.22C227.8 194.888 227.92 195.693 227.92 196.636C227.92 197.585 227.801 198.395 227.562 199.065C227.324 199.733 226.979 200.243 226.527 200.595C226.075 200.945 225.528 201.119 224.886 201.119ZM224.886 200.182C225.523 200.182 226.017 199.875 226.369 199.261C226.722 198.648 226.898 197.773 226.898 196.636C226.898 195.881 226.817 195.237 226.655 194.706C226.496 194.175 226.266 193.77 225.964 193.491C225.666 193.213 225.307 193.074 224.886 193.074C224.256 193.074 223.763 193.385 223.408 194.007C223.053 194.626 222.875 195.503 222.875 196.636C222.875 197.392 222.955 198.034 223.114 198.562C223.273 199.091 223.501 199.493 223.8 199.768C224.101 200.044 224.463 200.182 224.886 200.182Z" fill="#121212"/>
<rect x="201" y="177" width="40" height="40" stroke="#DFDFDF"/>
<rect x="241" y="177" width="40" height="40" fill="#F4E6E7"/>
<path d="M254.39 201V200.233L257.27 197.08C257.608 196.71 257.887 196.389 258.105 196.116C258.324 195.841 258.486 195.582 258.591 195.341C258.699 195.097 258.753 194.841 258.753 194.574C258.753 194.267 258.679 194.001 258.532 193.777C258.387 193.553 258.188 193.379 257.935 193.257C257.682 193.135 257.398 193.074 257.083 193.074C256.748 193.074 256.455 193.143 256.205 193.283C255.958 193.419 255.766 193.611 255.63 193.858C255.496 194.105 255.429 194.395 255.429 194.727H254.424C254.424 194.216 254.542 193.767 254.777 193.381C255.013 192.994 255.334 192.693 255.74 192.477C256.15 192.261 256.608 192.153 257.117 192.153C257.628 192.153 258.081 192.261 258.476 192.477C258.871 192.693 259.181 192.984 259.405 193.351C259.63 193.717 259.742 194.125 259.742 194.574C259.742 194.895 259.684 195.209 259.567 195.516C259.453 195.82 259.255 196.159 258.971 196.534C258.689 196.906 258.299 197.361 257.799 197.898L255.838 199.994V200.062H259.895V201H254.39ZM266.062 192.273V201H265.006V193.381H264.955L262.824 194.795V193.722L265.006 192.273H266.062Z" fill="#121212"/>
<rect x="241" y="177" width="40" height="40" stroke="#DFDFDF"/>
<rect x="1" y="217" width="40" height="40" fill="#F4E6E7"/>
<path d="M14.3896 241V240.233L17.2702 237.08C17.6083 236.71 17.8867 236.389 18.1055 236.116C18.3242 235.841 18.4862 235.582 18.5913 235.341C18.6992 235.097 18.7532 234.841 18.7532 234.574C18.7532 234.267 18.6793 234.001 18.5316 233.777C18.3867 233.553 18.1879 233.379 17.935 233.257C17.6822 233.135 17.3981 233.074 17.0827 233.074C16.7475 233.074 16.4549 233.143 16.2049 233.283C15.9577 233.419 15.766 233.611 15.6296 233.858C15.4961 234.105 15.4293 234.395 15.4293 234.727H14.4237C14.4237 234.216 14.5415 233.767 14.7773 233.381C15.0131 232.994 15.3342 232.693 15.7404 232.477C16.1495 232.261 16.6083 232.153 17.1168 232.153C17.6282 232.153 18.0813 232.261 18.4762 232.477C18.8711 232.693 19.1808 232.984 19.4052 233.351C19.6296 233.717 19.7418 234.125 19.7418 234.574C19.7418 234.895 19.6836 235.209 19.5671 235.516C19.4535 235.82 19.2546 236.159 18.9705 236.534C18.6893 236.906 18.2987 237.361 17.7987 237.898L15.8384 239.994V240.062H19.8952V241H14.3896ZM22.1591 241V240.233L25.0398 237.08C25.3778 236.71 25.6562 236.389 25.875 236.116C26.0938 235.841 26.2557 235.582 26.3608 235.341C26.4688 235.097 26.5227 234.841 26.5227 234.574C26.5227 234.267 26.4489 234.001 26.3011 233.777C26.1563 233.553 25.9574 233.379 25.7045 233.257C25.4517 233.135 25.1676 233.074 24.8523 233.074C24.517 233.074 24.2244 233.143 23.9744 233.283C23.7273 233.419 23.5355 233.611 23.3991 233.858C23.2656 234.105 23.1989 234.395 23.1989 234.727H22.1932C22.1932 234.216 22.3111 233.767 22.5469 233.381C22.7827 232.994 23.1037 232.693 23.5099 232.477C23.919 232.261 24.3778 232.153 24.8864 232.153C25.3977 232.153 25.8509 232.261 26.2457 232.477C26.6406 232.693 26.9503 232.984 27.1747 233.351C27.3991 233.717 27.5114 234.125 27.5114 234.574C27.5114 234.895 27.4531 235.209 27.3366 235.516C27.223 235.82 27.0241 236.159 26.7401 236.534C26.4588 236.906 26.0682 237.361 25.5682 237.898L23.608 239.994V240.062H27.6648V241H22.1591Z" fill="#121212"/>
<rect x="1" y="217" width="40" height="40" stroke="#DFDFDF"/>
<path d="M54.3896 241V240.233L57.2702 237.08C57.6083 236.71 57.8867 236.389 58.1055 236.116C58.3242 235.841 58.4862 235.582 58.5913 235.341C58.6992 235.097 58.7532 234.841 58.7532 234.574C58.7532 234.267 58.6793 234.001 58.5316 233.777C58.3867 233.553 58.1879 233.379 57.935 233.257C57.6822 233.135 57.3981 233.074 57.0827 233.074C56.7475 233.074 56.4549 233.143 56.2049 233.283C55.9577 233.419 55.766 233.611 55.6296 233.858C55.4961 234.105 55.4293 234.395 55.4293 234.727H54.4237C54.4237 234.216 54.5415 233.767 54.7773 233.381C55.0131 232.994 55.3342 232.693 55.7404 232.477C56.1495 232.261 56.6083 232.153 57.1168 232.153C57.6282 232.153 58.0813 232.261 58.4762 232.477C58.8711 232.693 59.1808 232.984 59.4052 233.351C59.6296 233.717 59.7418 234.125 59.7418 234.574C59.7418 234.895 59.6836 235.209 59.5671 235.516C59.4535 235.82 59.2546 236.159 58.9705 236.534C58.6893 236.906 58.2987 237.361 57.7987 237.898L55.8384 239.994V240.062H59.8952V241H54.3896ZM64.9205 241.119C64.358 241.119 63.8565 241.023 63.4162 240.83C62.9787 240.636 62.6307 240.368 62.3722 240.024C62.1165 239.678 61.9773 239.276 61.9545 238.818H63.0284C63.0511 239.099 63.1477 239.342 63.3182 239.547C63.4886 239.749 63.7116 239.905 63.9872 240.016C64.2628 240.126 64.5682 240.182 64.9034 240.182C65.2784 240.182 65.6108 240.116 65.9006 239.986C66.1903 239.855 66.4176 239.673 66.5824 239.44C66.7472 239.207 66.8295 238.938 66.8295 238.631C66.8295 238.31 66.75 238.027 66.5909 237.783C66.4318 237.536 66.1989 237.342 65.892 237.203C65.5852 237.064 65.2102 236.994 64.767 236.994H64.0682V236.057H64.767C65.1136 236.057 65.4176 235.994 65.679 235.869C65.9432 235.744 66.1491 235.568 66.2969 235.341C66.4474 235.114 66.5227 234.847 66.5227 234.54C66.5227 234.244 66.4574 233.987 66.3267 233.768C66.196 233.55 66.0114 233.379 65.7727 233.257C65.5369 233.135 65.2585 233.074 64.9375 233.074C64.6364 233.074 64.3523 233.129 64.0852 233.24C63.821 233.348 63.6051 233.506 63.4375 233.713C63.2699 233.918 63.179 234.165 63.1648 234.455H62.142C62.1591 233.997 62.2969 233.597 62.5554 233.253C62.8139 232.906 63.152 232.636 63.5696 232.443C63.9901 232.25 64.4517 232.153 64.9545 232.153C65.4943 232.153 65.9574 232.263 66.3438 232.482C66.7301 232.697 67.027 232.983 67.2344 233.338C67.4418 233.693 67.5455 234.077 67.5455 234.489C67.5455 234.98 67.4162 235.399 67.1577 235.746C66.902 236.092 66.554 236.332 66.1136 236.466V236.534C66.6648 236.625 67.0952 236.859 67.4048 237.237C67.7145 237.612 67.8693 238.077 67.8693 238.631C67.8693 239.105 67.7401 239.531 67.4815 239.909C67.2259 240.284 66.8764 240.58 66.4332 240.795C65.9901 241.011 65.4858 241.119 64.9205 241.119Z" fill="#121212"/>
<rect x="41" y="217" width="40" height="40" stroke="#DFDFDF"/>
<rect x="81" y="217" width="40" height="40" fill="#F4E6E7"/>
<path d="M94.3896 241V240.233L97.2702 237.08C97.6083 236.71 97.8867 236.389 98.1055 236.116C98.3242 235.841 98.4862 235.582 98.5913 235.341C98.6992 235.097 98.7532 234.841 98.7532 234.574C98.7532 234.267 98.6793 234.001 98.5316 233.777C98.3867 233.553 98.1879 233.379 97.935 233.257C97.6822 233.135 97.3981 233.074 97.0827 233.074C96.7475 233.074 96.4549 233.143 96.2049 233.283C95.9577 233.419 95.766 233.611 95.6296 233.858C95.4961 234.105 95.4293 234.395 95.4293 234.727H94.4237C94.4237 234.216 94.5415 233.767 94.7773 233.381C95.0131 232.994 95.3342 232.693 95.7404 232.477C96.1495 232.261 96.6083 232.153 97.1168 232.153C97.6282 232.153 98.0813 232.261 98.4762 232.477C98.8711 232.693 99.1808 232.984 99.4052 233.351C99.6296 233.717 99.7418 234.125 99.7418 234.574C99.7418 234.895 99.6836 235.209 99.5671 235.516C99.4535 235.82 99.2546 236.159 98.9705 236.534C98.6893 236.906 98.2987 237.361 97.7987 237.898L95.8384 239.994V240.062H99.8952V241H94.3896ZM101.699 239.21V238.341L105.534 232.273H106.165V233.619H105.739L102.841 238.205V238.273H108.006V239.21H101.699ZM105.807 241V238.946V238.541V232.273H106.812V241H105.807Z" fill="#121212"/>
<rect x="81" y="217" width="40" height="40" stroke="#DFDFDF"/>
<path d="M134.39 241V240.233L137.27 237.08C137.608 236.71 137.887 236.389 138.105 236.116C138.324 235.841 138.486 235.582 138.591 235.341C138.699 235.097 138.753 234.841 138.753 234.574C138.753 234.267 138.679 234.001 138.532 233.777C138.387 233.553 138.188 233.379 137.935 233.257C137.682 233.135 137.398 233.074 137.083 233.074C136.748 233.074 136.455 233.143 136.205 233.283C135.958 233.419 135.766 233.611 135.63 233.858C135.496 234.105 135.429 234.395 135.429 234.727H134.424C134.424 234.216 134.542 233.767 134.777 233.381C135.013 232.994 135.334 232.693 135.74 232.477C136.15 232.261 136.608 232.153 137.117 232.153C137.628 232.153 138.081 232.261 138.476 232.477C138.871 232.693 139.181 232.984 139.405 233.351C139.63 233.717 139.742 234.125 139.742 234.574C139.742 234.895 139.684 235.209 139.567 235.516C139.453 235.82 139.255 236.159 138.971 236.534C138.689 236.906 138.299 237.361 137.799 237.898L135.838 239.994V240.062H139.895V241H134.39ZM144.852 241.119C144.352 241.119 143.902 241.02 143.501 240.821C143.101 240.622 142.78 240.349 142.538 240.003C142.297 239.656 142.165 239.261 142.142 238.818H143.165C143.205 239.213 143.384 239.54 143.702 239.798C144.023 240.054 144.406 240.182 144.852 240.182C145.21 240.182 145.528 240.098 145.807 239.93C146.088 239.763 146.308 239.533 146.467 239.24C146.629 238.945 146.71 238.611 146.71 238.239C146.71 237.858 146.626 237.518 146.459 237.22C146.294 236.919 146.067 236.682 145.777 236.509C145.487 236.335 145.156 236.247 144.784 236.244C144.517 236.241 144.243 236.283 143.962 236.368C143.68 236.45 143.449 236.557 143.267 236.688L142.278 236.568L142.807 232.273H147.341V233.21H143.693L143.386 235.784H143.438C143.616 235.642 143.841 235.524 144.111 235.43C144.381 235.337 144.662 235.29 144.955 235.29C145.489 235.29 145.964 235.418 146.382 235.673C146.803 235.926 147.132 236.273 147.371 236.713C147.612 237.153 147.733 237.656 147.733 238.222C147.733 238.778 147.608 239.276 147.358 239.713C147.111 240.148 146.77 240.491 146.335 240.744C145.901 240.994 145.406 241.119 144.852 241.119Z" fill="#121212"/>
<rect x="121" y="217" width="40" height="40" stroke="#DFDFDF"/>
<path d="M174.39 241V240.233L177.27 237.08C177.608 236.71 177.887 236.389 178.105 236.116C178.324 235.841 178.486 235.582 178.591 235.341C178.699 235.097 178.753 234.841 178.753 234.574C178.753 234.267 178.679 234.001 178.532 233.777C178.387 233.553 178.188 233.379 177.935 233.257C177.682 233.135 177.398 233.074 177.083 233.074C176.748 233.074 176.455 233.143 176.205 233.283C175.958 233.419 175.766 233.611 175.63 233.858C175.496 234.105 175.429 234.395 175.429 234.727H174.424C174.424 234.216 174.542 233.767 174.777 233.381C175.013 232.994 175.334 232.693 175.74 232.477C176.15 232.261 176.608 232.153 177.117 232.153C177.628 232.153 178.081 232.261 178.476 232.477C178.871 232.693 179.181 232.984 179.405 233.351C179.63 233.717 179.742 234.125 179.742 234.574C179.742 234.895 179.684 235.209 179.567 235.516C179.453 235.82 179.255 236.159 178.971 236.534C178.689 236.906 178.299 237.361 177.799 237.898L175.838 239.994V240.062H179.895V241H174.39ZM184.938 241.119C184.58 241.114 184.222 241.045 183.864 240.915C183.506 240.784 183.179 240.564 182.884 240.254C182.588 239.942 182.351 239.52 182.172 238.989C181.993 238.455 181.903 237.784 181.903 236.977C181.903 236.205 181.976 235.52 182.121 234.923C182.266 234.324 182.476 233.82 182.751 233.411C183.027 232.999 183.359 232.686 183.749 232.473C184.141 232.26 184.582 232.153 185.074 232.153C185.563 232.153 185.997 232.251 186.378 232.447C186.761 232.641 187.074 232.911 187.315 233.257C187.557 233.604 187.713 234.003 187.784 234.455H186.744C186.648 234.062 186.46 233.737 186.182 233.479C185.903 233.22 185.534 233.091 185.074 233.091C184.398 233.091 183.865 233.385 183.476 233.973C183.089 234.561 182.895 235.386 182.892 236.449H182.96C183.119 236.207 183.308 236.001 183.527 235.831C183.749 235.658 183.993 235.524 184.26 235.43C184.527 235.337 184.81 235.29 185.108 235.29C185.608 235.29 186.065 235.415 186.48 235.665C186.895 235.912 187.227 236.254 187.477 236.692C187.727 237.126 187.852 237.625 187.852 238.188C187.852 238.727 187.732 239.222 187.49 239.67C187.249 240.116 186.909 240.472 186.472 240.736C186.037 240.997 185.526 241.125 184.938 241.119ZM184.938 240.182C185.295 240.182 185.616 240.092 185.901 239.913C186.188 239.734 186.413 239.494 186.578 239.193C186.746 238.892 186.83 238.557 186.83 238.188C186.83 237.827 186.749 237.499 186.587 237.203C186.428 236.905 186.207 236.668 185.926 236.491C185.648 236.315 185.33 236.227 184.972 236.227C184.702 236.227 184.45 236.281 184.217 236.389C183.984 236.494 183.78 236.639 183.604 236.824C183.43 237.009 183.294 237.22 183.195 237.459C183.095 237.695 183.045 237.943 183.045 238.205C183.045 238.551 183.126 238.875 183.288 239.176C183.453 239.477 183.678 239.72 183.962 239.905C184.249 240.089 184.574 240.182 184.938 240.182Z" fill="#121212"/>
<rect x="161" y="217" width="40" height="40" stroke="#DFDFDF"/>
<path d="M214.39 241V240.233L217.27 237.08C217.608 236.71 217.887 236.389 218.105 236.116C218.324 235.841 218.486 235.582 218.591 235.341C218.699 235.097 218.753 234.841 218.753 234.574C218.753 234.267 218.679 234.001 218.532 233.777C218.387 233.553 218.188 233.379 217.935 233.257C217.682 233.135 217.398 233.074 217.083 233.074C216.748 233.074 216.455 233.143 216.205 233.283C215.958 233.419 215.766 233.611 215.63 233.858C215.496 234.105 215.429 234.395 215.429 234.727H214.424C214.424 234.216 214.542 233.767 214.777 233.381C215.013 232.994 215.334 232.693 215.74 232.477C216.15 232.261 216.608 232.153 217.117 232.153C217.628 232.153 218.081 232.261 218.476 232.477C218.871 232.693 219.181 232.984 219.405 233.351C219.63 233.717 219.742 234.125 219.742 234.574C219.742 234.895 219.684 235.209 219.567 235.516C219.453 235.82 219.255 236.159 218.971 236.534C218.689 236.906 218.299 237.361 217.799 237.898L215.838 239.994V240.062H219.895V241H214.39ZM222.636 241L226.54 233.278V233.21H222.04V232.273H227.631V233.261L223.744 241H222.636Z" fill="#121212"/>
<rect x="201" y="217" width="40" height="40" stroke="#DFDFDF"/>
<path d="M254.39 241V240.233L257.27 237.08C257.608 236.71 257.887 236.389 258.105 236.116C258.324 235.841 258.486 235.582 258.591 235.341C258.699 235.097 258.753 234.841 258.753 234.574C258.753 234.267 258.679 234.001 258.532 233.777C258.387 233.553 258.188 233.379 257.935 233.257C257.682 233.135 257.398 233.074 257.083 233.074C256.748 233.074 256.455 233.143 256.205 233.283C255.958 233.419 255.766 233.611 255.63 233.858C255.496 234.105 255.429 234.395 255.429 234.727H254.424C254.424 234.216 254.542 233.767 254.777 233.381C255.013 232.994 255.334 232.693 255.74 232.477C256.15 232.261 256.608 232.153 257.117 232.153C257.628 232.153 258.081 232.261 258.476 232.477C258.871 232.693 259.181 232.984 259.405 233.351C259.63 233.717 259.742 234.125 259.742 234.574C259.742 234.895 259.684 235.209 259.567 235.516C259.453 235.82 259.255 236.159 258.971 236.534C258.689 236.906 258.299 237.361 257.799 237.898L255.838 239.994V240.062H259.895V241H254.39ZM264.886 241.119C264.301 241.119 263.784 241.016 263.335 240.808C262.889 240.598 262.541 240.31 262.291 239.943C262.041 239.574 261.918 239.153 261.92 238.682C261.918 238.312 261.99 237.972 262.138 237.659C262.286 237.344 262.487 237.081 262.743 236.871C263.001 236.658 263.29 236.523 263.608 236.466V236.415C263.19 236.307 262.858 236.072 262.611 235.712C262.364 235.348 262.241 234.935 262.244 234.472C262.241 234.028 262.354 233.632 262.581 233.283C262.808 232.933 263.121 232.658 263.518 232.456C263.919 232.254 264.375 232.153 264.886 232.153C265.392 232.153 265.844 232.254 266.241 232.456C266.639 232.658 266.952 232.933 267.179 233.283C267.409 233.632 267.526 234.028 267.528 234.472C267.526 234.935 267.399 235.348 267.149 235.712C266.902 236.072 266.574 236.307 266.165 236.415V236.466C266.48 236.523 266.764 236.658 267.017 236.871C267.27 237.081 267.472 237.344 267.622 237.659C267.773 237.972 267.849 238.312 267.852 238.682C267.849 239.153 267.722 239.574 267.469 239.943C267.219 240.31 266.871 240.598 266.425 240.808C265.982 241.016 265.469 241.119 264.886 241.119ZM264.886 240.182C265.281 240.182 265.622 240.118 265.909 239.99C266.196 239.862 266.418 239.682 266.574 239.449C266.73 239.216 266.81 238.943 266.812 238.631C266.81 238.301 266.724 238.01 266.557 237.757C266.389 237.504 266.161 237.305 265.871 237.161C265.584 237.016 265.256 236.943 264.886 236.943C264.514 236.943 264.182 237.016 263.889 237.161C263.599 237.305 263.371 237.504 263.203 237.757C263.038 238.01 262.957 238.301 262.96 238.631C262.957 238.943 263.033 239.216 263.186 239.449C263.342 239.682 263.565 239.862 263.855 239.99C264.145 240.118 264.489 240.182 264.886 240.182ZM264.886 236.04C265.199 236.04 265.476 235.977 265.717 235.852C265.962 235.727 266.153 235.553 266.293 235.328C266.432 235.104 266.503 234.841 266.506 234.54C266.503 234.244 266.433 233.987 266.297 233.768C266.161 233.547 265.972 233.376 265.73 233.257C265.489 233.135 265.207 233.074 264.886 233.074C264.56 233.074 264.274 233.135 264.03 233.257C263.786 233.376 263.597 233.547 263.463 233.768C263.33 233.987 263.264 234.244 263.267 234.54C263.264 234.841 263.331 235.104 263.467 235.328C263.607 235.553 263.798 235.727 264.043 235.852C264.287 235.977 264.568 236.04 264.886 236.04Z" fill="#121212"/>
<rect x="241" y="217" width="40" height="40" stroke="#DFDFDF"/>
<path d="M14.3896 281V280.233L17.2702 277.08C17.6083 276.71 17.8867 276.389 18.1055 276.116C18.3242 275.841 18.4862 275.582 18.5913 275.341C18.6992 275.097 18.7532 274.841 18.7532 274.574C18.7532 274.267 18.6793 274.001 18.5316 273.777C18.3867 273.553 18.1879 273.379 17.935 273.257C17.6822 273.135 17.3981 273.074 17.0827 273.074C16.7475 273.074 16.4549 273.143 16.2049 273.283C15.9577 273.419 15.766 273.611 15.6296 273.858C15.4961 274.105 15.4293 274.395 15.4293 274.727H14.4237C14.4237 274.216 14.5415 273.767 14.7773 273.381C15.0131 272.994 15.3342 272.693 15.7404 272.477C16.1495 272.261 16.6083 272.153 17.1168 272.153C17.6282 272.153 18.0813 272.261 18.4762 272.477C18.8711 272.693 19.1808 272.984 19.4052 273.351C19.6296 273.717 19.7418 274.125 19.7418 274.574C19.7418 274.895 19.6836 275.209 19.5671 275.516C19.4535 275.82 19.2546 276.159 18.9705 276.534C18.6893 276.906 18.2987 277.361 17.7987 277.898L15.8384 279.994V280.062H19.8952V281H14.3896ZM24.8182 272.153C25.1761 272.156 25.5341 272.224 25.892 272.358C26.25 272.491 26.5767 272.713 26.8722 273.023C27.1676 273.33 27.4048 273.749 27.5838 274.28C27.7628 274.811 27.8523 275.477 27.8523 276.278C27.8523 277.054 27.7784 277.743 27.6307 278.345C27.4858 278.945 27.2756 279.45 27 279.862C26.7273 280.274 26.3949 280.587 26.0028 280.8C25.6136 281.013 25.1733 281.119 24.6818 281.119C24.1932 281.119 23.7571 281.023 23.3736 280.83C22.9929 280.634 22.6804 280.362 22.4361 280.016C22.1946 279.666 22.0398 279.261 21.9716 278.801H23.0114C23.1051 279.202 23.2912 279.533 23.5696 279.794C23.8509 280.053 24.2216 280.182 24.6818 280.182C25.3551 280.182 25.8864 279.888 26.2756 279.3C26.6676 278.712 26.8636 277.881 26.8636 276.807H26.7955C26.6364 277.045 26.4474 277.251 26.2287 277.425C26.0099 277.598 25.767 277.732 25.5 277.825C25.233 277.919 24.9489 277.966 24.6477 277.966C24.1477 277.966 23.6889 277.842 23.2713 277.595C22.8565 277.345 22.5241 277.003 22.2741 276.568C22.027 276.131 21.9034 275.631 21.9034 275.068C21.9034 274.534 22.0227 274.045 22.2614 273.602C22.5028 273.156 22.8409 272.801 23.2756 272.537C23.7131 272.273 24.2273 272.145 24.8182 272.153ZM24.8182 273.091C24.4602 273.091 24.1378 273.18 23.8509 273.359C23.5668 273.536 23.3409 273.774 23.1733 274.075C23.0085 274.374 22.9261 274.705 22.9261 275.068C22.9261 275.432 23.0057 275.763 23.1648 276.061C23.3267 276.357 23.5469 276.592 23.8253 276.768C24.1065 276.942 24.4261 277.028 24.7841 277.028C25.054 277.028 25.3054 276.976 25.5384 276.871C25.7713 276.763 25.9744 276.616 26.1477 276.432C26.3239 276.244 26.4616 276.033 26.5611 275.797C26.6605 275.558 26.7102 275.31 26.7102 275.051C26.7102 274.71 26.6278 274.391 26.4631 274.092C26.3011 273.794 26.0767 273.553 25.7898 273.368C25.5057 273.183 25.1818 273.091 24.8182 273.091Z" fill="#121212"/>
<rect x="1" y="257" width="40" height="40" stroke="#DFDFDF"/>
<path d="M57.1509 281.119C56.5884 281.119 56.087 281.023 55.6467 280.83C55.2092 280.636 54.8612 280.368 54.6026 280.024C54.3469 279.678 54.2077 279.276 54.185 278.818H55.2589C55.2816 279.099 55.3782 279.342 55.5487 279.547C55.7191 279.749 55.9421 279.905 56.2177 280.016C56.4933 280.126 56.7987 280.182 57.1339 280.182C57.5089 280.182 57.8413 280.116 58.131 279.986C58.4208 279.855 58.6481 279.673 58.8129 279.44C58.9776 279.207 59.06 278.938 59.06 278.631C59.06 278.31 58.9805 278.027 58.8214 277.783C58.6623 277.536 58.4293 277.342 58.1225 277.203C57.8157 277.064 57.4407 276.994 56.9975 276.994H56.2987V276.057H56.9975C57.3441 276.057 57.6481 275.994 57.9094 275.869C58.1737 275.744 58.3796 275.568 58.5273 275.341C58.6779 275.114 58.7532 274.847 58.7532 274.54C58.7532 274.244 58.6879 273.987 58.5572 273.768C58.4265 273.55 58.2418 273.379 58.0032 273.257C57.7674 273.135 57.489 273.074 57.168 273.074C56.8668 273.074 56.5827 273.129 56.3157 273.24C56.0515 273.348 55.8356 273.506 55.668 273.713C55.5004 273.918 55.4094 274.165 55.3952 274.455H54.3725C54.3896 273.997 54.5273 273.597 54.7859 273.253C55.0444 272.906 55.3825 272.636 55.8001 272.443C56.2205 272.25 56.6822 272.153 57.185 272.153C57.7248 272.153 58.1879 272.263 58.5742 272.482C58.9606 272.697 59.2575 272.983 59.4648 273.338C59.6722 273.693 59.7759 274.077 59.7759 274.489C59.7759 274.98 59.6467 275.399 59.3881 275.746C59.1325 276.092 58.7844 276.332 58.3441 276.466V276.534C58.8952 276.625 59.3256 276.859 59.6353 277.237C59.945 277.612 60.0998 278.077 60.0998 278.631C60.0998 279.105 59.9705 279.531 59.712 279.909C59.4563 280.284 59.1069 280.58 58.6637 280.795C58.2205 281.011 57.7163 281.119 57.1509 281.119ZM64.8864 281.119C64.2443 281.119 63.6974 280.945 63.2457 280.595C62.794 280.243 62.4489 279.733 62.2102 279.065C61.9716 278.395 61.8523 277.585 61.8523 276.636C61.8523 275.693 61.9716 274.888 62.2102 274.22C62.4517 273.55 62.7983 273.038 63.25 272.686C63.7045 272.331 64.25 272.153 64.8864 272.153C65.5227 272.153 66.0668 272.331 66.5185 272.686C66.973 273.038 67.3196 273.55 67.5582 274.22C67.7997 274.888 67.9205 275.693 67.9205 276.636C67.9205 277.585 67.8011 278.395 67.5625 279.065C67.3239 279.733 66.9787 280.243 66.527 280.595C66.0753 280.945 65.5284 281.119 64.8864 281.119ZM64.8864 280.182C65.5227 280.182 66.017 279.875 66.3693 279.261C66.7216 278.648 66.8977 277.773 66.8977 276.636C66.8977 275.881 66.8168 275.237 66.6548 274.706C66.4957 274.175 66.2656 273.77 65.9645 273.491C65.6662 273.213 65.3068 273.074 64.8864 273.074C64.2557 273.074 63.7628 273.385 63.4077 274.007C63.0526 274.626 62.875 275.503 62.875 276.636C62.875 277.392 62.9545 278.034 63.1136 278.562C63.2727 279.091 63.5014 279.493 63.7997 279.768C64.1009 280.044 64.4631 280.182 64.8864 280.182Z" fill="#121212"/>
<rect x="41" y="257" width="40" height="40" stroke="#DFDFDF"/>
<rect x="81" y="257" width="40" height="40" fill="#FCFCFC"/>
<path d="M102.178 272.273V281H101.121V273.381H101.07L98.9391 274.795V273.722L101.121 272.273H102.178Z" fill="#747474"/>
<rect x="81" y="257" width="40" height="40" stroke="#DFDFDF"/>
<rect x="121" y="257" width="40" height="40" fill="#FCFCFC"/>
<path d="M138.274 281V280.233L141.155 277.08C141.493 276.71 141.771 276.389 141.99 276.116C142.209 275.841 142.371 275.582 142.476 275.341C142.584 275.097 142.638 274.841 142.638 274.574C142.638 274.267 142.564 274.001 142.416 273.777C142.271 273.553 142.073 273.379 141.82 273.257C141.567 273.135 141.283 273.074 140.968 273.074C140.632 273.074 140.34 273.143 140.09 273.283C139.843 273.419 139.651 273.611 139.514 273.858C139.381 274.105 139.314 274.395 139.314 274.727H138.308C138.308 274.216 138.426 273.767 138.662 273.381C138.898 272.994 139.219 272.693 139.625 272.477C140.034 272.261 140.493 272.153 141.002 272.153C141.513 272.153 141.966 272.261 142.361 272.477C142.756 272.693 143.066 272.984 143.29 273.351C143.514 273.717 143.627 274.125 143.627 274.574C143.627 274.895 143.568 275.209 143.452 275.516C143.338 275.82 143.139 276.159 142.855 276.534C142.574 276.906 142.183 277.361 141.683 277.898L139.723 279.994V280.062H143.78V281H138.274Z" fill="#747474"/>
<rect x="121" y="257" width="40" height="40" stroke="#DFDFDF"/>
<rect x="161" y="257" width="40" height="40" fill="#FCFCFC"/>
<path d="M181.036 281.119C180.473 281.119 179.972 281.023 179.531 280.83C179.094 280.636 178.746 280.368 178.487 280.024C178.232 279.678 178.093 279.276 178.07 278.818H179.144C179.166 279.099 179.263 279.342 179.433 279.547C179.604 279.749 179.827 279.905 180.102 280.016C180.378 280.126 180.683 280.182 181.019 280.182C181.394 280.182 181.726 280.116 182.016 279.986C182.306 279.855 182.533 279.673 182.698 279.44C182.862 279.207 182.945 278.938 182.945 278.631C182.945 278.31 182.865 278.027 182.706 277.783C182.547 277.536 182.314 277.342 182.007 277.203C181.7 277.064 181.325 276.994 180.882 276.994H180.183V276.057H180.882C181.229 276.057 181.533 275.994 181.794 275.869C182.058 275.744 182.264 275.568 182.412 275.341C182.563 275.114 182.638 274.847 182.638 274.54C182.638 274.244 182.573 273.987 182.442 273.768C182.311 273.55 182.127 273.379 181.888 273.257C181.652 273.135 181.374 273.074 181.053 273.074C180.752 273.074 180.468 273.129 180.2 273.24C179.936 273.348 179.72 273.506 179.553 273.713C179.385 273.918 179.294 274.165 179.28 274.455H178.257C178.274 273.997 178.412 273.597 178.671 273.253C178.929 272.906 179.267 272.636 179.685 272.443C180.105 272.25 180.567 272.153 181.07 272.153C181.61 272.153 182.073 272.263 182.459 272.482C182.845 272.697 183.142 272.983 183.35 273.338C183.557 273.693 183.661 274.077 183.661 274.489C183.661 274.98 183.531 275.399 183.273 275.746C183.017 276.092 182.669 276.332 182.229 276.466V276.534C182.78 276.625 183.21 276.859 183.52 277.237C183.83 277.612 183.985 278.077 183.985 278.631C183.985 279.105 183.855 279.531 183.597 279.909C183.341 280.284 182.992 280.58 182.548 280.795C182.105 281.011 181.601 281.119 181.036 281.119Z" fill="#747474"/>
<rect x="161" y="257" width="40" height="40" stroke="#DFDFDF"/>
<rect x="201" y="257" width="40" height="40" fill="#FCFCFC"/>
<path d="M217.814 279.21V278.341L221.649 272.273H222.28V273.619H221.854L218.956 278.205V278.273H224.121V279.21H217.814ZM221.922 281V278.946V278.541V272.273H222.928V281H221.922Z" fill="#747474"/>
<rect x="201" y="257" width="40" height="40" stroke="#DFDFDF"/>
<rect x="241" y="257" width="40" height="40" fill="#FCFCFC"/>
<path d="M260.968 281.119C260.468 281.119 260.017 281.02 259.617 280.821C259.216 280.622 258.895 280.349 258.654 280.003C258.412 279.656 258.28 279.261 258.257 278.818H259.28C259.32 279.213 259.499 279.54 259.817 279.798C260.138 280.054 260.521 280.182 260.968 280.182C261.325 280.182 261.644 280.098 261.922 279.93C262.203 279.763 262.423 279.533 262.583 279.24C262.744 278.945 262.825 278.611 262.825 278.239C262.825 277.858 262.742 277.518 262.574 277.22C262.409 276.919 262.182 276.682 261.892 276.509C261.602 276.335 261.271 276.247 260.899 276.244C260.632 276.241 260.358 276.283 260.077 276.368C259.796 276.45 259.564 276.557 259.382 276.688L258.394 276.568L258.922 272.273H263.456V273.21H259.808L259.502 275.784H259.553C259.732 275.642 259.956 275.524 260.226 275.43C260.496 275.337 260.777 275.29 261.07 275.29C261.604 275.29 262.08 275.418 262.497 275.673C262.918 275.926 263.247 276.273 263.486 276.713C263.727 277.153 263.848 277.656 263.848 278.222C263.848 278.778 263.723 279.276 263.473 279.713C263.226 280.148 262.885 280.491 262.45 280.744C262.016 280.994 261.521 281.119 260.968 281.119Z" fill="#747474"/>
<rect x="241" y="257" width="40" height="40" stroke="#DFDFDF"/>
<path d="M6.77841 43H2.13778V29.9091H6.81676C8.13352 29.9091 9.26705 30.1712 10.2173 30.6953C11.1676 31.2152 11.8984 31.9631 12.4098 32.9389C12.9254 33.9148 13.1832 35.0824 13.1832 36.4418C13.1832 37.8054 12.9254 38.9773 12.4098 39.9574C11.8984 40.9375 11.1634 41.6896 10.2045 42.2138C9.25 42.7379 8.10795 43 6.77841 43ZM4.90554 40.6286H6.66335C7.48153 40.6286 8.16974 40.4837 8.72798 40.1939C9.29048 39.8999 9.71236 39.446 9.99361 38.8324C10.2791 38.2145 10.4219 37.4176 10.4219 36.4418C10.4219 35.4744 10.2791 34.6839 9.99361 34.0703C9.71236 33.4567 9.29261 33.005 8.73438 32.7152C8.17614 32.4254 7.48793 32.2805 6.66974 32.2805H4.90554V40.6286ZM19.6568 43.1918C18.6468 43.1918 17.7775 42.9872 17.0488 42.5781C16.3244 42.1648 15.7662 41.581 15.3741 40.8267C14.9821 40.0682 14.786 39.1712 14.786 38.1357C14.786 37.1257 14.9821 36.2393 15.3741 35.4766C15.7662 34.7138 16.318 34.1193 17.0297 33.6932C17.7456 33.267 18.585 33.054 19.5481 33.054C20.1958 33.054 20.7988 33.1584 21.3571 33.3672C21.9196 33.5717 22.4096 33.8807 22.8272 34.294C23.2491 34.7074 23.5772 35.2273 23.8116 35.8537C24.046 36.4759 24.1632 37.2045 24.1632 38.0398V38.7876H15.8727V37.1001H21.6C21.6 36.7081 21.5147 36.3608 21.3443 36.0582C21.1738 35.7557 20.9373 35.5192 20.6348 35.3487C20.3365 35.174 19.9892 35.0866 19.5929 35.0866C19.1795 35.0866 18.813 35.1825 18.4934 35.3743C18.1781 35.5618 17.9309 35.8153 17.752 36.1349C17.573 36.4503 17.4814 36.8018 17.4771 37.1896V38.794C17.4771 39.2798 17.5666 39.6996 17.7456 40.0533C17.9288 40.407 18.1866 40.6797 18.519 40.8714C18.8514 41.0632 19.2456 41.1591 19.7015 41.1591C20.0041 41.1591 20.2811 41.1165 20.5325 41.0312C20.7839 40.946 20.9991 40.8182 21.1781 40.6477C21.3571 40.4773 21.4934 40.2685 21.5872 40.0213L24.1056 40.1875C23.9778 40.7926 23.7157 41.321 23.3194 41.7727C22.9274 42.2202 22.4203 42.5696 21.7981 42.821C21.1802 43.0682 20.4664 43.1918 19.6568 43.1918ZM30.3762 43.1918C29.3706 43.1918 28.5055 42.9787 27.7811 42.5526C27.0609 42.1222 26.5069 41.5256 26.1191 40.7628C25.7356 40 25.5439 39.1222 25.5439 38.1293C25.5439 37.1236 25.7377 36.2415 26.1255 35.483C26.5176 34.7202 27.0737 34.1257 27.7939 33.6996C28.514 33.2692 29.3706 33.054 30.3635 33.054C31.22 33.054 31.97 33.2095 32.6135 33.5206C33.2569 33.8317 33.7662 34.2685 34.1412 34.831C34.5162 35.3935 34.7228 36.054 34.7612 36.8125H32.1916C32.1191 36.3224 31.9274 35.9283 31.6163 35.63C31.3095 35.3274 30.9068 35.1761 30.4082 35.1761C29.9863 35.1761 29.6177 35.2912 29.3024 35.5213C28.9913 35.7472 28.7484 36.0774 28.5737 36.5121C28.399 36.9467 28.3116 37.473 28.3116 38.0909C28.3116 38.7173 28.3968 39.25 28.5673 39.6889C28.742 40.1278 28.987 40.4624 29.3024 40.6925C29.6177 40.9226 29.9863 41.0376 30.4082 41.0376C30.7193 41.0376 30.9984 40.9737 31.2456 40.8459C31.497 40.718 31.7037 40.5327 31.8656 40.2898C32.0318 40.0426 32.1404 39.7464 32.1916 39.4013H34.7612C34.7186 40.1513 34.514 40.8118 34.1476 41.3828C33.7853 41.9496 33.2846 42.3928 32.6454 42.7124C32.0062 43.032 31.2498 43.1918 30.3762 43.1918ZM40.979 43.1918C39.9691 43.1918 39.0998 42.9872 38.3711 42.5781C37.6467 42.1648 37.0884 41.581 36.6964 40.8267C36.3043 40.0682 36.1083 39.1712 36.1083 38.1357C36.1083 37.1257 36.3043 36.2393 36.6964 35.4766C37.0884 34.7138 37.6403 34.1193 38.3519 33.6932C39.0678 33.267 39.9073 33.054 40.8704 33.054C41.5181 33.054 42.1211 33.1584 42.6793 33.3672C43.2418 33.5717 43.7319 33.8807 44.1495 34.294C44.5714 34.7074 44.8995 35.2273 45.1339 35.8537C45.3683 36.4759 45.4854 37.2045 45.4854 38.0398V38.7876H37.195V37.1001H42.9222C42.9222 36.7081 42.837 36.3608 42.6665 36.0582C42.4961 35.7557 42.2596 35.5192 41.957 35.3487C41.6587 35.174 41.3114 35.0866 40.9151 35.0866C40.5018 35.0866 40.1353 35.1825 39.8157 35.3743C39.5004 35.5618 39.2532 35.8153 39.0742 36.1349C38.8952 36.4503 38.8036 36.8018 38.7994 37.1896V38.794C38.7994 39.2798 38.8888 39.6996 39.0678 40.0533C39.2511 40.407 39.5089 40.6797 39.8413 40.8714C40.1737 41.0632 40.5678 41.1591 41.0238 41.1591C41.3263 41.1591 41.6033 41.1165 41.8548 41.0312C42.1062 40.946 42.3214 40.8182 42.5004 40.6477C42.6793 40.4773 42.8157 40.2685 42.9094 40.0213L45.4279 40.1875C45.3001 40.7926 45.038 41.321 44.6417 41.7727C44.2496 42.2202 43.7425 42.5696 43.1204 42.821C42.5025 43.0682 41.7887 43.1918 40.979 43.1918ZM47.2624 43V33.1818H49.8576V34.9141H49.9727C50.1772 34.3388 50.5181 33.8849 50.9954 33.5526C51.4727 33.2202 52.0437 33.054 52.7085 33.054C53.3817 33.054 53.9549 33.2223 54.4279 33.5589C54.9009 33.8913 55.2163 34.343 55.3739 34.9141H55.4762C55.6765 34.3516 56.0387 33.902 56.5629 33.5653C57.0913 33.2244 57.7156 33.054 58.4357 33.054C59.3519 33.054 60.0955 33.3459 60.6665 33.9297C61.2418 34.5092 61.5295 35.3317 61.5295 36.397V43H58.8129V36.9339C58.8129 36.3885 58.668 35.9794 58.3782 35.7067C58.0884 35.4339 57.7262 35.2976 57.2915 35.2976C56.7972 35.2976 56.4116 35.4553 56.1346 35.7706C55.8576 36.0817 55.7191 36.4929 55.7191 37.0043V43H53.0792V36.8764C53.0792 36.3949 52.9407 36.0114 52.6637 35.7259C52.391 35.4403 52.0309 35.2976 51.5835 35.2976C51.2809 35.2976 51.0082 35.3743 50.7653 35.5277C50.5266 35.6768 50.337 35.8878 50.1964 36.1605C50.0558 36.429 49.9854 36.7443 49.9854 37.1065V43H47.2624ZM63.7315 43V29.9091H66.4545V34.831H66.5376C66.657 34.5668 66.8295 34.2983 67.0554 34.0256C67.2855 33.7486 67.5838 33.5185 67.9503 33.3352C68.321 33.1477 68.7813 33.054 69.331 33.054C70.0469 33.054 70.7074 33.2415 71.3125 33.6165C71.9176 33.9872 72.4013 34.5476 72.7635 35.2976C73.1257 36.0433 73.3068 36.9787 73.3068 38.1037C73.3068 39.1989 73.13 40.1236 72.7763 40.8778C72.4268 41.6278 71.9496 42.1967 71.3445 42.5845C70.7436 42.968 70.0703 43.1598 69.3246 43.1598C68.7962 43.1598 68.3466 43.0724 67.9759 42.8977C67.6094 42.723 67.3089 42.5036 67.0746 42.2393C66.8402 41.9709 66.6612 41.7003 66.5376 41.4276H66.4162V43H63.7315ZM66.397 38.0909C66.397 38.6747 66.478 39.1839 66.6399 39.6186C66.8018 40.0533 67.0362 40.392 67.343 40.6349C67.6499 40.8736 68.0227 40.9929 68.4616 40.9929C68.9048 40.9929 69.2798 40.8714 69.5866 40.6286C69.8935 40.3814 70.1257 40.0405 70.2834 39.6058C70.4453 39.1669 70.5263 38.6619 70.5263 38.0909C70.5263 37.5241 70.4474 37.0256 70.2898 36.5952C70.1321 36.1648 69.8999 35.8281 69.593 35.5852C69.2862 35.3423 68.9091 35.2209 68.4616 35.2209C68.0185 35.2209 67.6435 35.3381 67.3366 35.5724C67.0341 35.8068 66.8018 36.1392 66.6399 36.5696C66.478 37 66.397 37.5071 66.397 38.0909ZM79.5982 43.1918C78.5882 43.1918 77.7189 42.9872 76.9902 42.5781C76.2658 42.1648 75.7076 41.581 75.3155 40.8267C74.9235 40.0682 74.7275 39.1712 74.7275 38.1357C74.7275 37.1257 74.9235 36.2393 75.3155 35.4766C75.7076 34.7138 76.2594 34.1193 76.9711 33.6932C77.687 33.267 78.5265 33.054 79.4895 33.054C80.1373 33.054 80.7402 33.1584 81.2985 33.3672C81.861 33.5717 82.351 33.8807 82.7686 34.294C83.1905 34.7074 83.5186 35.2273 83.753 35.8537C83.9874 36.4759 84.1046 37.2045 84.1046 38.0398V38.7876H75.8141V37.1001H81.5414C81.5414 36.7081 81.4561 36.3608 81.2857 36.0582C81.1152 35.7557 80.8787 35.5192 80.5762 35.3487C80.2779 35.174 79.9306 35.0866 79.5343 35.0866C79.1209 35.0866 78.7544 35.1825 78.4348 35.3743C78.1195 35.5618 77.8723 35.8153 77.6934 36.1349C77.5144 36.4503 77.4228 36.8018 77.4185 37.1896V38.794C77.4185 39.2798 77.508 39.6996 77.687 40.0533C77.8702 40.407 78.128 40.6797 78.4604 40.8714C78.7928 41.0632 79.187 41.1591 79.6429 41.1591C79.9455 41.1591 80.2225 41.1165 80.4739 41.0312C80.7253 40.946 80.9405 40.8182 81.1195 40.6477C81.2985 40.4773 81.4348 40.2685 81.5286 40.0213L84.0471 40.1875C83.9192 40.7926 83.6571 41.321 83.2608 41.7727C82.8688 42.2202 82.3617 42.5696 81.7395 42.821C81.1216 43.0682 80.4078 43.1918 79.5982 43.1918ZM85.8816 43V33.1818H88.5215V34.8949H88.6238C88.8027 34.2855 89.1032 33.8253 89.525 33.5142C89.9469 33.1989 90.4327 33.0412 90.9824 33.0412C91.1188 33.0412 91.2658 33.0497 91.4235 33.0668C91.5811 33.0838 91.7196 33.1072 91.839 33.1371V35.5533C91.7111 35.5149 91.5343 35.4808 91.3084 35.451C91.0826 35.4212 90.8759 35.4062 90.6884 35.4062C90.2878 35.4062 89.9299 35.4936 89.6145 35.6683C89.3034 35.8388 89.0563 36.0774 88.873 36.3842C88.6941 36.6911 88.6046 37.0447 88.6046 37.4453V43H85.8816ZM97.8539 43V41.0057L102.514 36.6911C102.91 36.3075 103.242 35.9624 103.511 35.6555C103.784 35.3487 103.99 35.0483 104.131 34.7543C104.271 34.456 104.342 34.1342 104.342 33.7891C104.342 33.4055 104.254 33.0753 104.08 32.7983C103.905 32.517 103.666 32.3018 103.364 32.1527C103.061 31.9993 102.718 31.9226 102.335 31.9226C101.934 31.9226 101.585 32.0036 101.286 32.1655C100.988 32.3274 100.758 32.5597 100.596 32.8622C100.434 33.1648 100.353 33.5249 100.353 33.9425H97.726C97.726 33.0859 97.9199 32.3423 98.3077 31.7116C98.6955 31.081 99.2388 30.593 99.9377 30.2479C100.637 29.9027 101.442 29.7301 102.354 29.7301C103.291 29.7301 104.107 29.8963 104.802 30.2287C105.501 30.5568 106.044 31.0128 106.432 31.5966C106.82 32.1804 107.014 32.8494 107.014 33.6037C107.014 34.098 106.916 34.5859 106.72 35.0675C106.528 35.549 106.185 36.0838 105.691 36.6719C105.196 37.2557 104.499 37.9567 103.6 38.7749L101.689 40.6477V40.7372H107.186V43H97.8539ZM114.732 43.2876C113.633 43.2834 112.687 43.0128 111.894 42.4759C111.106 41.9389 110.498 41.1612 110.072 40.1428C109.65 39.1243 109.442 37.8991 109.446 36.4673C109.446 35.0398 109.657 33.8232 110.079 32.8175C110.505 31.8118 111.112 31.0469 111.9 30.5227C112.693 29.9943 113.637 29.7301 114.732 29.7301C115.827 29.7301 116.769 29.9943 117.557 30.5227C118.35 31.0511 118.959 31.8182 119.385 32.8239C119.812 33.8253 120.023 35.0398 120.018 36.4673C120.018 37.9034 119.805 39.1307 119.379 40.1491C118.957 41.1676 118.352 41.9453 117.564 42.4822C116.775 43.0192 115.831 43.2876 114.732 43.2876ZM114.732 40.9929C115.482 40.9929 116.081 40.6158 116.528 39.8615C116.976 39.1072 117.197 37.9759 117.193 36.4673C117.193 35.4744 117.091 34.6477 116.886 33.9872C116.686 33.3267 116.4 32.8303 116.03 32.4979C115.663 32.1655 115.231 31.9993 114.732 31.9993C113.986 31.9993 113.39 32.3722 112.942 33.1179C112.495 33.8636 112.269 34.9801 112.265 36.4673C112.265 37.473 112.365 38.3125 112.565 38.9858C112.77 39.6548 113.057 40.1577 113.428 40.4943C113.799 40.8267 114.233 40.9929 114.732 40.9929ZM122.393 43V41.0057L127.053 36.6911C127.449 36.3075 127.781 35.9624 128.05 35.6555C128.323 35.3487 128.529 35.0483 128.67 34.7543C128.811 34.456 128.881 34.1342 128.881 33.7891C128.881 33.4055 128.794 33.0753 128.619 32.7983C128.444 32.517 128.205 32.3018 127.903 32.1527C127.6 31.9993 127.257 31.9226 126.874 31.9226C126.473 31.9226 126.124 32.0036 125.825 32.1655C125.527 32.3274 125.297 32.5597 125.135 32.8622C124.973 33.1648 124.892 33.5249 124.892 33.9425H122.265C122.265 33.0859 122.459 32.3423 122.847 31.7116C123.235 31.081 123.778 30.593 124.477 30.2479C125.176 29.9027 125.981 29.7301 126.893 29.7301C127.83 29.7301 128.646 29.8963 129.341 30.2287C130.04 30.5568 130.583 31.0128 130.971 31.5966C131.359 32.1804 131.553 32.8494 131.553 33.6037C131.553 34.098 131.455 34.5859 131.259 35.0675C131.067 35.549 130.724 36.0838 130.23 36.6719C129.735 37.2557 129.039 37.9567 128.139 38.7749L126.228 40.6477V40.7372H131.725V43H122.393ZM134.662 43V41.0057L139.322 36.6911C139.719 36.3075 140.051 35.9624 140.319 35.6555C140.592 35.3487 140.799 35.0483 140.939 34.7543C141.08 34.456 141.15 34.1342 141.15 33.7891C141.15 33.4055 141.063 33.0753 140.888 32.7983C140.714 32.517 140.475 32.3018 140.172 32.1527C139.87 31.9993 139.527 31.9226 139.143 31.9226C138.743 31.9226 138.393 32.0036 138.095 32.1655C137.797 32.3274 137.567 32.5597 137.405 32.8622C137.243 33.1648 137.162 33.5249 137.162 33.9425H134.535C134.535 33.0859 134.729 32.3423 135.116 31.7116C135.504 31.081 136.047 30.593 136.746 30.2479C137.445 29.9027 138.251 29.7301 139.162 29.7301C140.1 29.7301 140.916 29.8963 141.611 30.2287C142.309 30.5568 142.853 31.0128 143.241 31.5966C143.628 32.1804 143.822 32.8494 143.822 33.6037C143.822 34.098 143.724 34.5859 143.528 35.0675C143.336 35.549 142.993 36.0838 142.499 36.6719C142.005 37.2557 141.308 37.9567 140.409 38.7749L138.498 40.6477V40.7372H143.995V43H134.662Z" fill="#121212"/>
<path fill-rule="evenodd" clip-rule="evenodd" d="M270.457 42.9571L269.043 41.5429L274.836 35.75L269.043 29.9571L270.457 28.5429L277.664 35.75L270.457 42.9571Z" fill="#121212"/>
<path fill-rule="evenodd" clip-rule="evenodd" d="M251.543 28.5428L252.957 29.9571L247.164 35.75L252.957 41.5428L251.543 42.9571L244.336 35.75L251.543 28.5428Z" fill="#121212"/>
</svg>
