<svg width="20" height="14" viewBox="0 0 20 14" fill="none" xmlns="http://www.w3.org/2000/svg">
<path d="M9.55251 0L9.55201 0.00149965L9.55101 0.00349998L9.54751 0.00999975L9.53751 0.0314999C9.35587 0.420639 9.22061 0.829779 9.13451 1.2505C9.00251 1.911 8.95901 2.8895 9.64651 3.577C9.95901 3.8895 10.0025 4.411 9.88451 5.0005C9.8187 5.32067 9.71811 5.63269 9.58451 5.931L9.55951 5.986L9.55351 5.9985L9.55251 6L10.4475 6.4465L10.449 6.4435L10.4525 6.437L10.4625 6.4155C10.6441 6.02636 10.7794 5.61722 10.8655 5.1965C10.9975 4.536 11.041 3.5575 10.3535 2.87C10.041 2.5575 9.99751 2.036 10.1155 1.4465C10.1813 1.12633 10.2819 0.814311 10.4155 0.516L10.4405 0.461L10.4465 0.4485L10.4475 0.447L9.55251 0Z" fill="#AF1F25"/>
<path d="M5.58501 1.194L5.58451 1.195L5.58301 1.1975L5.57951 1.2035C5.51438 1.30508 5.45382 1.40952 5.39801 1.5165C5.30001 1.7055 5.17801 1.9745 5.09551 2.2805C4.93451 2.8765 4.89151 3.7745 5.70251 4.3755C6.01651 4.608 6.05951 4.9595 5.93951 5.4055C5.88101 5.6205 5.79201 5.8205 5.71451 5.9695C5.68417 6.02775 5.65216 6.0851 5.61851 6.1415L5.59151 6.1845L5.58501 6.194C5.58501 6.194 5.58551 6.1935 6.00001 6.4735C6.41451 6.7535 6.41501 6.7525 6.41501 6.7525L6.41651 6.75L6.42051 6.744C6.48569 6.64228 6.54625 6.53767 6.60201 6.4305C6.72952 6.18722 6.83092 5.93113 6.90451 5.6665C7.06551 5.071 7.10851 4.1725 6.29751 3.5715C5.98351 3.3395 5.94051 2.9875 6.06051 2.5415C6.11556 2.3463 6.19098 2.15743 6.28551 1.978C6.32359 1.9047 6.36462 1.83298 6.40851 1.763L6.41501 1.753C6.41501 1.753 6.41451 1.7535 6.00001 1.474L5.58501 1.194Z" fill="#AF1F25"/>
<path d="M14.085 1.194L14.0845 1.195L14.083 1.1975L14.079 1.2035C14.014 1.30509 13.9537 1.40953 13.898 1.5165C13.8 1.7055 13.678 1.9745 13.5955 2.2805C13.4345 2.8765 13.3915 3.7745 14.2025 4.3755C14.5165 4.608 14.5595 4.9595 14.4395 5.4055C14.381 5.6205 14.292 5.8205 14.2145 5.9695C14.1842 6.02775 14.1522 6.0851 14.1185 6.1415L14.0915 6.1845L14.085 6.194C14.085 6.194 14.0855 6.1935 14.5 6.4735C14.9145 6.7535 14.915 6.7525 14.915 6.7525L14.917 6.75L14.921 6.744C14.986 6.64227 15.0464 6.53767 15.102 6.4305C15.2295 6.18722 15.3309 5.93113 15.4045 5.6665C15.5655 5.071 15.6085 4.1725 14.7975 3.5715C14.4835 3.3395 14.4405 2.9875 14.5605 2.5415C14.6156 2.3463 14.691 2.15743 14.7855 1.978C14.8236 1.9047 14.8646 1.83298 14.9085 1.763L14.915 1.753C14.915 1.753 14.9145 1.7535 14.5 1.474L14.085 1.194Z" fill="#AF1F25"/>
<path d="M0.146447 9.11996C0.240215 9.02619 0.367392 8.97351 0.5 8.97351H19.5C19.6326 8.97351 19.7598 9.02619 19.8536 9.11996C19.9473 9.21373 20 9.3409 20 9.47351C20 9.60612 19.9473 9.7333 19.8536 9.82706C19.7598 9.92083 19.6326 9.97351 19.5 9.97351H18C18 11.0344 17.5786 12.0518 16.8284 12.8019C16.0783 13.5521 15.0609 13.9735 14 13.9735H6C4.93913 13.9735 3.92172 13.5521 3.17157 12.8019C2.42143 12.0518 2 11.0344 2 9.97351H0.5C0.367392 9.97351 0.240215 9.92083 0.146447 9.82706C0.0526785 9.7333 0 9.60612 0 9.47351C0 9.3409 0.0526785 9.21373 0.146447 9.11996Z" fill="#AF1F25"/>
</svg>
