<svg width="136" height="300" viewBox="0 0 136 300" fill="none" xmlns="http://www.w3.org/2000/svg">
<path d="M53.5514 18.1483C53.4513 17.3056 53.3788 16.4404 53.2413 15.5877C52.7662 12.6495 53.2388 9.79377 53.9089 6.94058C54.7842 3.21219 57.3723 1.34674 60.8856 0.661571C65.2942 -0.196135 69.7628 -0.241146 74.1638 0.651569C77.9372 1.41675 80.6104 3.44224 81.4081 7.56573C82.0407 10.834 82.4033 14.0498 81.6806 17.3306C81.6281 17.5706 81.6506 17.8257 81.6406 18.0633C83.8787 19.221 84.3913 20.1288 83.7936 22.6494C83.4386 24.1472 83.116 25.9827 82.0932 26.9104C80.8204 28.0632 80.5479 29.2385 80.3353 30.7163C80.0052 33.0019 79.2826 35.1599 77.6597 36.9203C77.3821 37.2204 77.167 37.7255 77.1821 38.1231C77.3946 43.3093 78.1848 46.8352 84.3488 49.6509C87.5671 51.1212 90.8328 51.8364 94.3037 52.1065C102.593 52.7541 110.373 59.8183 111.6 68.0153C112.09 71.2861 112.321 74.6744 112.053 77.9602C111.568 83.9066 112.178 89.6355 113.928 95.3169C114.434 96.9548 114.511 98.7477 114.629 100.481C114.746 102.221 115.061 103.821 116.121 105.279C117.762 107.537 117.929 110.263 118.119 112.901C118.695 120.913 119.132 128.932 119.68 136.947C119.807 138.81 120.12 140.66 120.432 142.503C120.487 142.821 120.938 143.266 121.255 143.316C123.751 143.704 125.564 145.136 127.194 146.942C129.675 149.687 132.195 152.396 134.718 155.099C135.446 155.879 135.339 156.447 134.316 156.864C132.665 157.537 131.135 157.097 129.645 156.352C129.025 156.042 128.419 155.706 127.622 155.286C127.954 157.332 128.399 159.155 128.514 160.998C128.684 163.721 128.732 166.464 128.607 169.187C128.549 170.437 127.797 171.52 126.476 172.043C126.189 172.155 125.974 172.535 125.801 172.833C124.974 174.271 123.568 174.734 122.078 174.078C121.678 173.901 121.215 173.736 120.793 173.763C119.26 173.866 118.402 173.083 117.807 171.783C117.654 171.45 117.247 171.03 116.932 171.01C115.884 170.938 115.104 170.432 114.804 169.53C114.061 167.302 113.158 165.059 112.883 162.756C112.406 158.757 112.17 154.706 112.175 150.678C112.178 146.537 110.795 142.836 109.112 139.227C106.864 134.406 104.351 129.708 102.003 124.932C99.9225 120.698 99.1048 116.137 98.5297 111.491C97.9571 106.877 97.1494 102.294 96.4517 97.6949C96.2091 96.0971 95.9891 94.4942 95.759 92.9138C92.7958 99.4004 90.9779 106.134 91.4255 113.376C91.6155 116.444 91.548 119.528 91.6305 122.606C91.6455 123.131 91.7431 123.699 91.9656 124.169C94.3287 129.18 95.1314 134.551 95.649 139.988C96.1366 145.079 96.7168 150.165 97.0468 155.269C97.3244 159.545 97.5294 163.848 97.3469 168.124C97.1093 173.643 96.5392 179.155 95.9591 184.653C95.3064 190.847 93.4385 196.739 91.2554 202.55C89.7351 206.596 88.4223 210.725 88.1447 215.078C87.9421 218.256 88.1222 221.425 89.4825 224.37C92.3832 230.659 92.2357 237.014 90.4627 243.588C88.5823 250.557 87.0444 257.618 85.4365 264.655C84.6338 268.171 83.9512 271.719 83.3285 275.27C83.146 276.308 83.161 277.463 83.4261 278.478C84.6138 283.037 85.2615 287.826 88.5323 291.574C89.0799 292.202 89.6726 292.789 90.2052 293.427C90.8678 294.225 91.5955 294.997 92.1106 295.885C93.3159 297.961 92.3807 299.639 89.9751 299.761C88.6048 299.831 87.227 299.749 85.8541 299.774C82.7434 299.834 79.6326 299.924 76.5219 299.994C76.1068 300.004 75.6842 300.009 75.2741 299.954C72.2609 299.546 70.688 297.618 71.0006 294.455C71.2731 291.689 71.9433 288.953 72.1108 286.185C72.5009 279.751 73.0436 273.295 72.8685 266.868C72.6785 259.937 71.6557 253.03 71.1506 246.103C70.778 241.012 71.1956 235.953 72.681 231.037C74.1188 226.273 74.6965 221.482 73.7987 216.519C73.4311 214.491 73.7362 212.338 73.3586 210.312C72.8685 207.671 71.9658 205.108 71.3106 202.495C69.8278 196.586 69.6952 190.557 69.7928 184.513C69.8703 179.682 69.9878 174.851 70.0403 170.017C70.0553 168.647 69.9353 167.272 69.8228 165.901C69.7028 164.426 68.9851 163.773 67.5897 163.773C66.2394 163.773 65.4442 164.381 65.4042 165.791C65.2917 169.702 65.2017 173.616 65.2742 177.527C65.4292 185.891 65.8868 194.268 63.8813 202.505C63.4012 204.481 62.5385 206.379 62.2184 208.372C61.7683 211.19 61.9184 214.115 61.3532 216.904C60.1504 222.833 61.8809 228.341 63.2237 233.955C64.2064 238.066 64.3164 242.272 64.0114 246.491C63.3962 255.038 61.9559 263.525 62.1709 272.129C62.3435 278.994 62.6861 285.843 64.0314 292.607C64.2639 293.772 64.2339 295.022 64.1214 296.215C63.9189 298.363 62.0434 299.906 59.5428 299.989C58.0099 300.039 56.4696 299.839 54.9342 299.824C52.6486 299.804 50.3631 299.889 48.0775 299.849C46.7572 299.826 45.4044 299.801 44.1316 299.499C42.6087 299.136 42.0936 298.048 42.7763 296.63C43.3239 295.493 44.0866 294.397 44.9693 293.492C47.87 290.521 49.873 287.113 50.5681 282.985C50.5756 282.945 50.5706 282.897 50.5881 282.862C52.9212 277.588 51.6859 272.377 50.4031 267.131C48.1876 258.059 46.0445 248.969 43.9315 239.874C42.9213 235.521 42.9588 231.145 44.8043 227.021C48.0125 219.842 47.4524 212.715 44.9893 205.516C43.5239 201.235 42.0011 196.966 40.7708 192.618C39.2379 187.204 38.6203 181.613 38.3152 176.006C38.0501 171.145 37.8126 166.271 37.8451 161.408C37.8701 157.714 38.3152 154.024 38.6178 150.333C38.8953 146.934 39.2429 143.541 39.543 140.145C40.0281 134.659 40.9158 129.28 43.1739 124.184C43.6565 123.096 43.6915 121.751 43.7015 120.52C43.729 116.359 43.634 112.198 43.6215 108.035C43.6115 104.867 42.8288 101.863 41.7685 98.9177C41.0508 96.9248 40.3082 94.9443 39.503 92.7588C39.0304 95.7145 38.5702 98.4851 38.1451 101.258C37.3074 106.717 36.5498 112.188 35.642 117.635C34.9844 121.573 33.2515 125.139 31.3785 128.622C28.5003 133.974 25.7322 139.375 23.7192 145.121C23.3541 146.162 23.2341 147.317 23.174 148.43C22.9565 152.421 22.9865 156.434 22.5839 160.405C22.3013 163.186 21.5637 165.936 20.841 168.65C20.4959 169.945 19.6957 171.08 18.0078 170.998C17.8178 170.988 17.5102 171.378 17.4177 171.638C16.8725 173.183 15.8523 173.913 14.1819 173.761C13.8093 173.726 13.3942 173.938 13.0291 174.103C11.8638 174.628 10.691 174.508 9.96836 173.538C9.31821 172.663 8.35797 172.128 7.77783 171.348C7.01015 170.312 6.48002 168.917 6.34749 167.627C5.94989 163.741 6.7976 159.93 7.46276 156.122C7.49777 155.924 7.51277 155.721 7.54278 155.489C6.07993 156.039 4.7071 156.694 3.25925 157.042C2.47906 157.229 1.53883 157.002 0.731137 156.759C-0.154076 156.494 -0.209089 155.829 0.423563 155.144C2.99168 152.366 5.5398 149.572 8.10791 146.794C9.7183 145.051 11.5237 143.641 13.9918 143.298C14.2994 143.256 14.7445 142.771 14.7845 142.448C15.1646 139.438 15.5597 136.424 15.7798 133.401C16.3374 125.764 16.7725 118.117 17.3301 110.481C17.4827 108.393 18.2128 106.47 19.3781 104.669C19.9808 103.736 20.4384 102.516 20.4409 101.426C20.4509 97.6574 21.4586 94.1116 22.4864 90.5607C23.4916 87.0974 23.3591 83.574 23.1915 80.0332C22.9765 75.4621 22.6389 70.871 23.8992 66.3799C26.0397 58.7581 33.0189 52.7941 40.9408 52.139C44.8268 51.8164 48.4201 50.8837 51.8935 49.1307C55.5318 47.2928 57.5723 44.5121 57.8349 40.4387C57.8624 40.0236 57.9124 39.6085 57.9749 39.1984C58.1325 38.1706 57.9624 37.3154 57.2047 36.4702C55.2718 34.3097 54.9542 31.5415 54.5691 28.8159C54.5266 28.5133 54.4666 28.0632 54.2665 27.9581C51.5759 26.5178 51.4859 23.8922 51.2883 21.3691C51.1258 19.4236 51.6484 18.8084 53.5514 18.1483ZM69.6552 162.808C71.0306 163.716 71.3406 165.089 71.3456 166.462C71.3631 171.5 71.3356 176.541 71.2181 181.58C71.0656 188.169 71.0706 194.748 72.5984 201.2C73.8788 206.604 75.3216 211.972 76.7719 217.334C77.137 218.682 77.6597 220.032 78.3698 221.227C79.5151 223.15 81.1655 223.485 82.8684 222.035C83.8987 221.157 84.7964 219.919 85.289 218.659C86.0667 216.664 86.4318 214.511 87.0144 212.438C88.1472 208.409 89.1899 204.351 90.4953 200.377C92.1181 195.443 93.9336 190.582 94.3887 185.344C94.7588 181.078 95.3464 176.829 95.6215 172.558C95.874 168.617 96.0216 164.649 95.8816 160.705C95.734 156.554 95.2139 152.416 94.8138 148.275C94.3312 143.311 93.8911 138.337 93.2634 133.391C92.8883 130.438 91.9806 127.59 90.7253 124.962C89.23 126.204 87.8096 127.405 86.3668 128.575C84.5263 130.068 82.9859 131.773 82.2233 134.081C82.1182 134.396 81.8007 134.641 81.5806 134.916C81.5656 134.546 81.4506 134.146 81.5531 133.814C82.4358 130.918 84.5488 128.99 86.8169 127.177C87.7571 126.427 88.6673 125.624 89.5 124.759C89.8401 124.404 90.1152 123.819 90.1152 123.336C90.1302 119.503 90.1652 115.667 90.0101 111.838C89.8001 106.632 90.6778 101.648 92.7183 96.8722C94.9113 91.7385 95.8791 86.4322 95.1389 80.9209C91.7381 85.9071 87.167 88.5652 83.9687 87.0324C84.8914 86.8673 85.5391 86.7073 86.1942 86.6398C88.9999 86.3522 91.2554 85.1094 92.9183 82.8214C94.4912 80.6583 95.5015 78.3328 95.499 75.5696C95.494 71.9562 96.0591 68.2529 92.9759 65.4072C92.7883 65.2346 92.8783 64.7645 92.8383 64.4319C93.1959 64.4644 93.6585 64.3644 93.8936 64.5495C95.9591 66.1974 96.8243 68.4729 96.8643 71.016C96.9093 73.8442 96.7593 76.6799 96.6642 79.5081C96.4542 85.6871 96.9043 91.816 97.927 97.91C98.4772 101.178 98.7672 104.569 102.203 106.392C102.466 106.532 102.648 106.895 102.768 107.195C102.848 107.395 102.751 107.665 102.726 107.962C101.545 106.932 100.485 106.007 99.2349 104.917C99.4724 106.975 99.7175 108.703 99.8675 110.438C100.293 115.404 101.288 120.223 103.508 124.721C105.809 129.383 108.27 133.969 110.458 138.682C111.585 141.108 112.661 143.681 113.061 146.294C113.606 149.853 113.343 153.526 113.683 157.127C113.996 160.423 114.606 163.691 115.186 166.954C115.319 167.694 115.814 168.392 116.236 169.05C116.366 169.252 116.812 169.357 117.092 169.322C117.244 169.302 117.492 168.872 117.454 168.672C116.924 165.769 116.989 162.718 115.394 159.832C118.565 159.832 121.738 159.832 124.884 159.832C124.653 160.285 124.211 160.735 124.253 161.135C124.586 164.311 125.011 167.477 125.416 170.703C126.819 170.495 127.277 169.432 127.274 168.372C127.272 165.641 127.134 162.906 126.917 160.185C126.774 158.41 126.369 156.657 126.126 154.886C125.936 153.491 126.461 153.123 127.762 153.738C128.739 154.201 129.657 154.796 130.647 155.219C131.308 155.501 132.053 155.584 132.76 155.756C132.035 154.684 131.228 153.908 130.492 153.071C128.704 151.04 126.994 148.937 125.166 146.944C123.656 145.299 121.755 144.459 119.46 144.691C119.092 144.729 118.715 144.651 118.409 144.634C118.65 143.974 119.012 143.471 118.98 142.996C118.54 137.024 118.054 131.055 117.559 125.089C117.147 120.118 116.737 115.147 116.274 110.18C116.061 107.897 115.061 105.929 113.591 104.159C112.996 104.914 112.453 105.602 111.91 106.292C111.775 106.194 111.64 106.094 111.505 105.997C111.753 105.557 111.963 105.084 112.258 104.679C113.018 103.636 113.498 102.531 113.288 101.201C112.951 99.0728 112.716 96.9248 112.286 94.8168C111.633 91.6135 110.85 88.4352 110.117 85.2119C109.72 86.3772 109.307 87.5925 108.895 88.8078C108.567 88.4702 108.415 88.1101 108.507 87.8326C108.917 86.6223 109.412 85.442 109.847 84.2392C110.1 83.544 110.453 82.8364 110.488 82.1212C110.645 78.9604 110.825 75.7922 110.77 72.6314C110.665 66.5299 108.382 61.3337 103.631 57.4302C99.3249 53.8919 94.4837 52.4891 89.0099 54.512C88.0372 54.8721 87.0294 55.1447 86.0617 55.5148C84.4938 56.1174 82.9384 56.1999 81.3005 55.7623C78.9775 55.1447 76.6444 54.9596 74.3314 55.9249C73.7312 56.1749 73.0411 56.235 72.3834 56.3C72.1733 56.32 71.9358 56.0799 71.4457 55.8174C72.5734 55.5698 73.3711 55.4923 74.0913 55.2197C76.5669 54.2845 79.04 54.3145 81.5556 55.0197C82.2258 55.2072 82.9985 55.4323 83.6361 55.2772C85.7991 54.7521 87.9246 54.0669 90.1077 53.4293C88.0297 52.6616 86.0767 51.9789 84.1562 51.2188C79.5301 49.3858 76.6419 46.125 75.9993 40.8663C75.8492 41.4239 75.6992 41.7665 75.6717 42.1166C75.2316 47.8729 71.5807 52.294 69.3627 57.3077C69.2651 57.5303 69.0826 57.7253 68.9026 57.8954C68.0849 58.6805 66.8671 58.658 66.1444 57.7778C65.7543 57.3027 65.4842 56.7251 65.1942 56.1749C64.2864 54.447 63.3237 52.7416 62.5185 50.9637C61.6133 48.9732 60.7856 46.9427 60.0604 44.8797C59.6528 43.7169 59.5178 42.4566 59.1752 40.8312C58.0149 49.3208 51.6159 51.3238 45.0418 53.3168C46.2596 53.7394 47.3924 54.1169 48.5126 54.5245C50.3831 55.2072 52.231 55.5373 54.219 54.8746C57.3948 53.8144 60.3705 55.0097 63.3487 56.0274C62.631 56.1799 61.8984 56.2049 61.2332 56.0099C59.3077 55.4473 57.3798 54.7971 55.3768 55.4648C52.4786 56.43 49.7454 55.9499 47.0223 54.8046C44.5392 53.7619 41.9886 53.2342 39.2629 53.7694C33.1815 54.9597 29.103 58.6455 26.3723 64.0043C24.1068 68.4504 24.2393 73.2566 24.4469 78.0552C24.5719 80.9534 24.5744 83.8691 26.3298 86.4247C26.6499 86.8898 26.6024 87.6225 26.6649 88.2377C26.6824 88.4102 26.4898 88.6053 26.3148 88.9378C25.8447 87.5425 25.4346 86.3247 25.0245 85.1069C24.6694 86.1021 24.6594 87.0524 24.4594 87.9626C23.7692 91.1234 22.9465 94.2591 22.3013 97.4274C21.7362 100.208 21.2311 103.034 23.4166 105.467C23.5416 105.607 23.5116 105.884 23.5516 106.099C23.4391 106.169 23.3241 106.24 23.2116 106.31C22.6789 105.599 22.1438 104.889 21.3661 103.856C20.5484 105.692 19.4256 107.24 19.1981 108.91C18.4879 114.094 18.0653 119.32 17.6302 124.536C17.1426 130.38 16.7975 136.237 16.3074 142.083C16.2324 142.988 15.9148 143.821 17.1126 144.551C16.5449 144.631 16.2699 144.734 16.0198 144.694C13.2417 144.259 11.1737 145.514 9.43824 147.484C7.06266 150.18 4.7346 152.916 2.26401 155.774C2.84665 155.674 3.39928 155.686 3.85439 155.484C5.10219 154.926 6.29748 154.251 7.54028 153.678C7.88036 153.521 8.478 153.386 8.66055 153.556C8.92811 153.808 9.07065 154.361 9.02314 154.756C8.80808 156.529 8.40298 158.282 8.26045 160.06C8.0404 162.823 7.90286 165.599 7.89286 168.369C7.88786 169.442 8.35297 170.492 9.73331 170.703C10.0209 168.429 10.3485 166.211 10.5685 163.983C10.7085 162.568 11.5262 161.075 10.2659 159.87C13.4617 159.87 16.635 159.87 20.0558 159.87C19.4932 160.54 18.9855 160.873 18.9055 161.285C18.4654 163.608 18.1103 165.946 17.7777 168.287C17.7302 168.617 17.9653 168.99 18.0703 169.34C18.4179 169.17 18.9405 169.092 19.0831 168.815C19.5557 167.902 19.9983 166.947 20.2658 165.956C21.4136 161.7 21.5286 157.342 21.5887 152.961C21.6262 150.225 21.5311 147.332 22.3688 144.801C23.7592 140.605 25.6596 136.542 27.6926 132.601C31.1135 125.967 34.5993 119.4 35.1794 111.758C35.342 109.63 35.607 107.507 35.8271 105.384C35.7346 105.332 35.642 105.279 35.5495 105.224C34.5218 106.114 33.4965 107.005 32.3487 107.997C32.2512 106.92 32.8189 106.375 33.454 105.934C35.272 104.674 36.4948 103.149 36.7273 100.796C37.2224 95.7545 38.1576 90.7458 38.4327 85.6971C38.6978 80.8434 38.2852 75.9547 38.3102 71.0835C38.3227 68.5629 39.0554 66.2174 41.1734 64.5795C41.4384 64.3744 41.9336 64.4669 42.3212 64.4219C42.2436 64.812 42.3036 65.3547 42.0686 65.5622C40.6758 66.7925 39.9181 68.3479 39.7855 70.1383C39.6455 72.0413 39.6905 73.9617 39.728 75.8722C39.748 76.8624 39.723 77.9302 40.0756 78.8204C41.861 83.3515 44.7592 86.5673 50.043 86.7548C50.3456 86.7648 50.6407 86.9273 50.9382 87.0199C50.8707 87.1674 50.8007 87.3149 50.7332 87.4625C45.822 87.515 42.2061 85.3395 39.9181 80.4683C39.9556 89.478 39.2129 87.7325 42.2836 96.3471C43.1739 98.8452 44.1016 101.371 44.5767 103.964C45.7095 110.153 44.9293 116.427 45.1018 122.661C45.1218 123.419 45.3419 124.341 45.8195 124.879C46.7497 125.927 47.9275 126.749 48.9978 127.672C51.0658 129.455 53.0137 131.331 53.6989 134.114C53.7564 134.349 53.5739 134.646 53.5013 134.914C53.3388 134.721 53.1488 134.546 53.0137 134.334C52.021 132.771 51.2458 131.005 50.0005 129.683C48.3426 127.922 46.3196 126.504 44.4342 124.924C42.4362 129.253 41.5935 133.899 41.1309 138.63C40.7858 142.148 40.4957 145.674 40.2306 149.2C39.8456 154.341 39.2379 159.487 39.2179 164.634C39.1979 169.657 39.728 174.689 40.1356 179.707C40.6332 185.849 41.521 191.92 43.7765 197.722C46.0521 203.573 47.815 209.584 49.0253 215.748C49.4404 217.859 50.008 219.884 51.5734 221.465C53.6264 223.538 55.7494 223.273 57.1397 220.712C57.6298 219.809 57.9874 218.809 58.255 217.814C59.1527 214.453 59.8004 211.015 60.8731 207.714C63.3462 200.095 64.1289 192.283 64.0089 184.333C63.9239 178.672 63.8563 173.008 63.7938 167.347C63.7763 165.641 63.9389 163.981 65.4342 162.771C63.1587 161.508 61.9734 159.62 61.7508 157.189C61.5358 154.874 61.4658 152.543 61.3557 150.218C61.3482 150.07 61.5558 149.913 61.8659 149.47C61.9934 150.125 62.1009 150.488 62.1309 150.855C62.311 153.136 62.3535 155.434 62.6711 157.692C63.0586 160.435 65.1967 162.363 67.5422 162.366C69.9653 162.368 72.0558 160.458 72.5009 157.629C72.7585 155.994 72.7585 154.319 72.881 152.661C72.951 151.705 73.0286 150.75 73.1036 149.795C73.2711 149.8 73.4387 149.807 73.6062 149.812C73.6062 151.976 73.7387 154.149 73.5737 156.299C73.3661 159.047 72.3809 161.438 69.6552 162.808ZM75.3216 225.893C75.1966 226.546 75.104 227.076 74.9915 227.599C74.1938 231.33 72.9685 235.033 72.7035 238.801C72.4009 243.125 72.886 247.511 73.1436 251.862C73.5287 258.379 74.1038 264.885 74.4289 271.407C74.7215 277.321 74.2513 283.205 73.2536 289.046C72.891 291.167 72.6009 293.307 72.4259 295.45C72.3409 296.493 72.786 297.451 73.8412 298.056C73.7037 296.133 74.2813 294.977 75.6242 294.385C76.947 293.802 77.9872 294.11 79.3701 295.515C80.5254 294.877 81.5831 295.055 82.4658 296.04C83.7111 295.112 84.0912 295.148 85.5591 296.303C86.1917 295.24 87.0019 295.182 87.9471 295.913C88.1172 296.043 88.3647 296.135 88.5748 296.133C89.2825 296.123 89.9926 296.06 90.5978 296.025C89.3725 294.58 87.8596 293.117 86.7419 291.394C85.334 289.221 83.6761 287.483 81.253 286.515C81.0305 286.425 80.8754 286.163 80.6904 285.98C80.7779 285.848 80.8679 285.718 80.9555 285.585C82.0007 286.07 83.0435 286.555 84.1762 287.081C83.6711 285.34 83.236 283.615 82.6659 281.937C81.4806 278.451 81.3581 274.948 82.2208 271.379C84.5488 261.744 86.8469 252.102 89.1874 242.47C90.3702 237.599 90.9979 232.745 89.2124 227.874C87.9521 224.433 86.4518 221.047 86.7719 217.749C85.9292 219.089 85.0664 220.91 83.7911 222.367C82.2133 224.173 79.8777 224.195 78.3923 222.578C77.6022 221.717 77.002 220.592 76.5994 219.484C75.9968 217.826 75.6417 216.078 75.1816 214.371C75.2566 216.601 75.4841 218.814 75.6292 221.032C75.7367 222.688 75.2766 224.423 76.3919 225.921C76.4144 225.951 76.3293 226.063 76.2618 226.206C75.9868 226.116 75.7042 226.021 75.3216 225.893ZM54.1715 285.59C54.2715 285.738 54.3691 285.885 54.4691 286.033C54.1815 286.248 53.9014 286.475 53.6064 286.675C52.4436 287.463 51.0408 288.043 50.153 289.066C48.1876 291.334 46.4797 293.822 44.7993 296.045C45.1993 296.045 45.8395 296.048 46.4822 296.043C46.6972 296.04 46.9973 296.105 47.1173 295.993C48.1125 295.042 48.9603 295.368 49.7029 296.298C50.9957 295.142 51.4258 295.107 52.7187 296.033C53.5614 294.892 54.6766 294.992 55.8219 295.408C57.1897 294.087 58.365 293.785 59.6378 294.41C60.9231 295.042 61.5033 296.255 61.4433 298.016C61.9059 297.528 62.4685 297.003 62.5685 296.4C62.7511 295.315 62.8686 294.14 62.6511 293.077C61.3107 286.533 60.423 279.919 60.6906 273.26C61.0232 264.995 61.7983 256.746 62.401 248.491C62.7136 244.213 63.0086 239.932 62.0609 235.691C61.3307 232.425 60.5505 229.169 59.8104 225.981C59.4253 226.023 59.1277 226.058 58.8301 226.091C58.9076 225.811 58.9877 225.531 59.0652 225.253C59.2302 224.673 59.4978 224.103 59.5378 223.513C59.6628 221.73 59.6753 219.942 59.7779 218.156C59.8429 216.999 59.9879 215.843 60.0979 214.688C59.8204 215.021 59.7378 215.381 59.6253 215.731C59.0452 217.544 58.6626 219.457 57.8249 221.142C56.2995 224.215 53.2863 224.613 51.0558 222.035C49.923 220.727 49.2053 219.059 48.3776 217.684C48.7277 220.552 47.7175 223.433 46.5547 226.196C44.4767 231.145 44.4667 236.151 45.6795 241.23C47.925 250.632 50.1931 260.029 52.5486 269.404C53.7014 273.992 53.9339 278.486 52.186 282.985C51.6809 284.282 51.4083 285.673 51.0182 287.061C52.121 286.548 53.1463 286.07 54.1715 285.59ZM67.6923 40.4011C69.0701 39.9835 70.4854 39.656 71.8208 39.1283C75.3491 37.733 77.8922 35.3874 78.6749 31.509C78.92 30.2887 79.0125 29.0384 79.2951 27.8281C79.3951 27.3955 79.7677 26.8379 80.1503 26.6953C81.268 26.2777 81.7957 25.4675 82.0307 24.4023C82.2183 23.5521 82.3383 22.6869 82.4733 21.8242C82.7434 20.0737 81.8207 19.2736 80.1278 19.8887C79.205 20.2238 78.8725 19.8612 78.7574 19.0685C78.6699 18.4534 78.7524 17.8057 78.6099 17.2106C78.1973 15.4926 77.9097 13.7022 77.1971 12.1093C76.3268 10.1664 74.5564 9.44119 72.636 10.1314C69.2001 11.3666 65.8543 11.4042 62.4285 10.1038C60.7781 9.4762 59.2802 10.0613 58.2575 11.4842C57.8024 12.1168 57.3573 12.8345 57.1922 13.5772C56.8296 15.2251 56.5921 16.9055 56.4095 18.5859C56.2595 19.9537 56.0069 20.1988 54.7566 19.8037C53.5238 19.4136 52.6086 19.9987 52.6962 21.294C52.7812 22.5243 52.9962 23.7771 53.3888 24.9424C53.6014 25.5701 54.204 26.2627 54.8042 26.5178C55.6369 26.8754 55.9769 27.3105 55.9644 28.1707C55.9569 28.6233 56.0745 29.0759 56.127 29.5285C56.8146 35.6425 61.6483 40.1186 67.6923 40.4011ZM79.7877 18.8635C79.8602 18.6659 79.9802 18.4083 80.0527 18.1358C80.913 14.8825 80.5979 11.5992 80.1703 8.34092C79.7352 5.01512 77.7947 2.91211 74.4839 2.19694C70.0328 1.23421 65.5467 1.27922 61.0982 2.09692C58.1675 2.63705 55.8019 4.23993 55.2968 7.36569C54.8392 10.1789 54.8042 13.0696 54.7166 15.9277C54.6866 16.873 55.0692 17.8332 55.2618 18.7909C55.6794 16.883 55.9269 15 56.5121 13.2296C57.7074 9.60623 59.6703 8.53847 63.2962 9.58622C66.1919 10.4239 68.9951 10.4939 71.8583 9.54621C72.631 9.29115 73.4987 9.15362 74.3064 9.20863C76.5019 9.35367 77.7797 10.8015 78.3798 12.7295C79 14.7175 79.3276 16.798 79.7877 18.8635ZM59.4853 38.6257C60.273 41.874 60.6881 44.8697 61.7483 47.6154C62.9811 50.8061 64.7541 53.7944 66.3694 56.8301C66.5995 57.2602 67.3797 57.7953 67.7048 57.6853C68.2499 57.5028 68.765 56.9126 69.0676 56.3675C70.1153 54.487 71.1081 52.5716 72.0383 50.6286C72.751 49.1382 73.4937 47.6329 73.9413 46.055C74.6064 43.7144 75.0215 41.3039 75.6017 38.6682C70.2404 42.5016 64.9966 42.6292 59.4853 38.6257ZM120.618 160.718C120.995 164.236 121.333 167.647 121.75 171.045C121.815 171.573 122.148 172.158 122.538 172.528C122.823 172.798 123.458 172.921 123.833 172.796C124.123 172.698 124.418 172.123 124.428 171.753C124.461 170.568 124.426 169.372 124.298 168.192C124.023 165.649 123.671 163.116 123.338 160.468C122.498 160.545 121.693 160.618 120.618 160.718ZM11.7688 160.483C11.6638 161.59 11.5712 162.573 11.4762 163.556C11.2137 166.304 10.9236 169.05 10.7235 171.803C10.6985 172.138 11.0761 172.673 11.4012 172.818C11.7113 172.958 12.3264 172.843 12.574 172.6C12.9616 172.218 13.3317 171.66 13.3967 171.135C13.8318 167.694 14.1819 164.243 14.5695 160.693C13.4617 160.61 12.6515 160.55 11.7688 160.483ZM15.3372 160.795C14.9471 164.709 14.567 168.512 14.1469 172.718C14.852 172.248 15.5697 172.028 15.8048 171.563C16.3374 170.507 16.75 169.357 17.0001 168.199C17.3927 166.381 17.6252 164.529 17.9028 162.688C17.9928 162.09 18.0103 161.48 18.0678 160.793C17.0651 160.795 16.2074 160.795 15.3372 160.795ZM120.96 172.31C120.58 168.367 120.217 164.584 119.852 160.798C118.977 160.798 118.122 160.798 117.072 160.798C117.182 161.658 117.232 162.431 117.384 163.183C117.884 165.689 118.382 168.197 118.965 170.683C119.192 171.663 119.64 172.595 120.96 172.31ZM77.007 298.661C78.7949 298.608 79.075 298.373 79.055 296.935C79.0375 295.498 78.2098 294.685 76.7895 294.705C75.4766 294.725 74.3339 295.855 74.3964 297.073C74.4589 298.261 75.2066 298.716 77.007 298.661ZM58.5651 298.631C60.1079 298.648 60.7431 298.196 60.7781 297.053C60.8131 295.845 59.6403 294.71 58.3525 294.707C56.9847 294.702 56.1445 295.583 56.152 297.01C56.1595 298.356 56.5371 298.608 58.5651 298.631ZM82.1307 298.196C82.1583 296.328 81.6381 295.47 80.5704 295.623C78.7449 295.883 79.7727 297.363 79.2901 298.443C80.3603 298.351 81.2105 298.276 82.1307 298.196ZM53.0162 298.156C53.999 298.261 54.8392 298.351 55.7694 298.448C55.6919 297.791 55.5718 297.306 55.5919 296.828C55.6369 295.71 54.9542 295.575 54.1365 295.755C52.8662 296.04 53.0262 297.07 53.0162 298.156ZM85.4015 298.328C85.0089 297.413 84.8089 296.725 84.4188 296.17C84.2913 295.99 83.4461 296.003 83.316 296.193C82.9559 296.72 82.7984 297.388 82.5008 298.153C83.5136 298.216 84.2087 298.258 85.4015 298.328ZM88.1047 298.348C87.8171 297.508 87.6371 296.825 87.332 296.208C87.2645 296.073 86.5493 296.035 86.4693 296.163C86.0867 296.783 85.8166 297.473 85.409 298.348C86.4143 298.348 87.0544 298.348 88.1047 298.348ZM52.6486 298.133C52.3311 297.331 52.171 296.675 51.8109 296.155C51.6909 295.983 50.8507 296.01 50.7132 296.205C50.3531 296.72 50.2006 297.378 49.9055 298.133C50.8882 298.133 51.5409 298.133 52.6486 298.133ZM48.4951 298.598C48.8177 298.336 49.4379 298.033 49.4079 297.821C49.3103 297.1 49.3603 296.073 48.2676 296.055C47.3774 296.04 47.3574 296.848 47.2823 297.513C47.1898 298.343 47.6624 298.506 48.4951 298.598ZM88.2447 298.123C88.3622 298.218 88.4798 298.311 88.5948 298.406C89.0799 298.326 89.565 298.246 90.0501 298.163C91.0504 297.993 90.9504 297.411 90.4202 296.885C90.1477 296.615 89.3975 296.378 89.2525 296.523C88.8148 296.95 88.5673 297.576 88.2447 298.123ZM46.4346 298.631C46.5622 298.483 46.6897 298.338 46.8172 298.191C46.4897 297.601 46.8998 296.505 45.692 296.553C45.2619 296.57 44.8518 297.16 44.4342 297.488C45.1018 297.868 45.767 298.248 46.4346 298.631Z" fill="black"/>
<path d="M49.4794 84.1968C50.1071 84.7369 50.7873 85.037 50.8748 85.4571C51.0498 86.2973 50.2246 86.3498 49.692 86.2348C49.1244 86.1122 48.6142 85.7196 48.0791 85.4471C48.4792 85.0895 48.8793 84.7319 49.4794 84.1968Z" fill="black"/>
<path d="M85.6445 86.6522C85.0794 86.1521 84.7018 85.8195 84.3242 85.487C84.8443 85.1969 85.347 84.7268 85.8896 84.6768C86.2897 84.6393 86.7423 85.1469 87.1724 85.412C86.7248 85.7745 86.2797 86.1371 85.6445 86.6522Z" fill="black"/>
<path d="M68.5169 119.573C67.8943 118.605 67.2541 118.782 66.604 119.528C66.5289 119.453 66.4539 119.38 66.3789 119.305C66.4864 118.998 66.5289 118.482 66.7165 118.422C67.2191 118.262 67.8068 118.192 68.3119 118.305C68.5494 118.357 68.677 118.91 68.8545 119.235C68.7445 119.348 68.6295 119.46 68.5169 119.573Z" fill="black"/>
<path d="M75.712 21.5391C75.0218 21.8616 74.4092 22.1767 73.7715 22.4243C73.5215 22.5218 73.1789 22.5493 72.9363 22.4568C72.1386 22.1492 71.366 21.7741 70.6133 21.4365C71.556 20.3313 74.9018 20.4138 75.712 21.5391Z" fill="black"/>
<path d="M59.4033 21.8892C60.4236 20.4739 63.1817 20.3839 64.7746 21.5016C64.5046 21.6017 64.312 21.7217 64.1145 21.7342C62.8316 21.8167 61.5613 23.1595 60.2435 21.7592C60.1335 21.6417 59.6934 21.8392 59.4033 21.8892Z" fill="black"/>
<path d="M71.1885 32.7441C70.3058 34.0144 64.7294 33.9794 64.0518 32.7441C66.4173 32.7441 68.7329 32.7441 71.1885 32.7441Z" fill="black"/>
<path d="M58.8271 18.3758C60.5201 17.1755 64.7361 17.9957 65.1737 19.3735C63.1432 19.0559 61.0627 18.7284 58.8271 18.3758Z" fill="black"/>
<path d="M76.3316 18.3857C74.0986 18.7283 72.0206 19.0484 69.9951 19.3609C70.4927 17.9706 74.7063 17.1804 76.3316 18.3857Z" fill="black"/>
<path d="M64.8564 28.4332C66.6844 29.1534 68.4948 29.2234 70.2978 28.2957C69.2175 30.1161 66.8769 30.1911 64.8564 28.4332Z" fill="black"/>
</svg>
