<svg width="20" height="20" viewBox="0 0 20 20" fill="none" xmlns="http://www.w3.org/2000/svg">
<path d="M8.625 8.3125C8.625 8.16332 8.68426 8.02024 8.78975 7.91475C8.89524 7.80926 9.03832 7.75 9.1875 7.75H13.125C13.2742 7.75 13.4173 7.80926 13.5227 7.91475C13.6282 8.02024 13.6875 8.16332 13.6875 8.3125C13.6875 8.46168 13.6282 8.60476 13.5227 8.71025C13.4173 8.81574 13.2742 8.875 13.125 8.875H9.1875C9.03832 8.875 8.89524 8.81574 8.78975 8.71025C8.68426 8.60476 8.625 8.46168 8.625 8.3125ZM8.625 11.6875C8.625 11.5383 8.68426 11.3952 8.78975 11.2898C8.89524 11.1843 9.03832 11.125 9.1875 11.125H13.125C13.2742 11.125 13.4173 11.1843 13.5227 11.2898C13.6282 11.3952 13.6875 11.5383 13.6875 11.6875C13.6875 11.8367 13.6282 11.9798 13.5227 12.0852C13.4173 12.1907 13.2742 12.25 13.125 12.25H9.1875C9.03832 12.25 8.89524 12.1907 8.78975 12.0852C8.68426 11.9798 8.625 11.8367 8.625 11.6875ZM8.625 15.0625C8.625 14.9133 8.68426 14.7702 8.78975 14.6648C8.89524 14.5593 9.03832 14.5 9.1875 14.5H13.125C13.2742 14.5 13.4173 14.5593 13.5227 14.6648C13.6282 14.7702 13.6875 14.9133 13.6875 15.0625C13.6875 15.2117 13.6282 15.3548 13.5227 15.4602C13.4173 15.5657 13.2742 15.625 13.125 15.625H9.1875C9.03832 15.625 8.89524 15.5657 8.78975 15.4602C8.68426 15.3548 8.625 15.2117 8.625 15.0625ZM7.5 8.3125C7.5 8.53628 7.41111 8.75089 7.25287 8.90912C7.09464 9.06736 6.88003 9.15625 6.65625 9.15625C6.43247 9.15625 6.21786 9.06736 6.05963 8.90912C5.90139 8.75089 5.8125 8.53628 5.8125 8.3125C5.8125 8.08872 5.90139 7.87411 6.05963 7.71588C6.21786 7.55764 6.43247 7.46875 6.65625 7.46875C6.88003 7.46875 7.09464 7.55764 7.25287 7.71588C7.41111 7.87411 7.5 8.08872 7.5 8.3125ZM7.5 11.6875C7.5 11.9113 7.41111 12.1259 7.25287 12.2841C7.09464 12.4424 6.88003 12.5312 6.65625 12.5312C6.43247 12.5312 6.21786 12.4424 6.05963 12.2841C5.90139 12.1259 5.8125 11.9113 5.8125 11.6875C5.8125 11.4637 5.90139 11.2491 6.05963 11.0909C6.21786 10.9326 6.43247 10.8438 6.65625 10.8438C6.88003 10.8438 7.09464 10.9326 7.25287 11.0909C7.41111 11.2491 7.5 11.4637 7.5 11.6875ZM6.65625 15.9062C6.88003 15.9062 7.09464 15.8174 7.25287 15.6591C7.41111 15.5009 7.5 15.2863 7.5 15.0625C7.5 14.8387 7.41111 14.6241 7.25287 14.4659C7.09464 14.3076 6.88003 14.2188 6.65625 14.2188C6.43247 14.2188 6.21786 14.3076 6.05963 14.4659C5.90139 14.6241 5.8125 14.8387 5.8125 15.0625C5.8125 15.2863 5.90139 15.5009 6.05963 15.6591C6.21786 15.8174 6.43247 15.9062 6.65625 15.9062ZM6.47062 2.125C6.587 1.79585 6.80259 1.51089 7.0877 1.30941C7.3728 1.10792 7.71338 0.999817 8.0625 1H11.4375C11.7866 0.999817 12.1272 1.10792 12.4123 1.30941C12.6974 1.51089 12.913 1.79585 13.0294 2.125H14.8125C15.2601 2.125 15.6893 2.30279 16.0057 2.61926C16.3222 2.93573 16.5 3.36495 16.5 3.8125V17.3125C16.5 17.7601 16.3222 18.1893 16.0057 18.5057C15.6893 18.8222 15.2601 19 14.8125 19H4.6875C4.23995 19 3.81072 18.8222 3.49426 18.5057C3.17779 18.1893 3 17.7601 3 17.3125V3.8125C3 3.36495 3.17779 2.93573 3.49426 2.61926C3.81072 2.30279 4.23995 2.125 4.6875 2.125H6.47062ZM8.0625 2.125C7.91332 2.125 7.77024 2.18426 7.66475 2.28975C7.55926 2.39524 7.5 2.53832 7.5 2.6875C7.5 2.83668 7.55926 2.97976 7.66475 3.08525C7.77024 3.19074 7.91332 3.25 8.0625 3.25H11.4375C11.5867 3.25 11.7298 3.19074 11.8352 3.08525C11.9407 2.97976 12 2.83668 12 2.6875C12 2.53832 11.9407 2.39524 11.8352 2.28975C11.7298 2.18426 11.5867 2.125 11.4375 2.125H8.0625ZM6.47062 3.25H4.6875C4.53832 3.25 4.39524 3.30926 4.28975 3.41475C4.18426 3.52024 4.125 3.66332 4.125 3.8125V17.3125C4.125 17.4617 4.18426 17.6048 4.28975 17.7102C4.39524 17.8157 4.53832 17.875 4.6875 17.875H14.8125C14.9617 17.875 15.1048 17.8157 15.2102 17.7102C15.3157 17.6048 15.375 17.4617 15.375 17.3125V3.8125C15.375 3.66332 15.3157 3.52024 15.2102 3.41475C15.1048 3.30926 14.9617 3.25 14.8125 3.25H13.0294C12.913 3.57915 12.6974 3.86411 12.4123 4.06559C12.1272 4.26708 11.7866 4.37518 11.4375 4.375H8.0625C7.71338 4.37518 7.3728 4.26708 7.0877 4.06559C6.80259 3.86411 6.587 3.57915 6.47062 3.25Z" fill="#AF1F25"/>
</svg>
