<svg width="20" height="23" viewBox="0 0 20 23" fill="none" xmlns="http://www.w3.org/2000/svg">
<path d="M9.39 9.39001L5.5 13.277L1.61 9.39001C0.841072 8.62071 0.317504 7.6407 0.105495 6.57388C-0.106515 5.50705 0.00255424 4.40132 0.418912 3.39648C0.83527 2.39163 1.54022 1.5328 2.44463 0.928569C3.34905 0.324335 4.41232 0.00183105 5.5 0.00183105C6.58769 0.00183105 7.65096 0.324335 8.55537 0.928569C9.45978 1.5328 10.1647 2.39163 10.5811 3.39648C10.9975 4.40132 11.1065 5.50705 10.8945 6.57388C10.6825 7.6407 10.1589 8.62071 9.39 9.39001ZM5.5 7.50001C6.03044 7.50001 6.53914 7.28929 6.91422 6.91422C7.28929 6.53915 7.5 6.03044 7.5 5.50001C7.5 4.96957 7.28929 4.46086 6.91422 4.08579C6.53914 3.71072 6.03044 3.50001 5.5 3.50001C4.96957 3.50001 4.46086 3.71072 4.08579 4.08579C3.71072 4.46086 3.5 4.96957 3.5 5.50001C3.5 6.03044 3.71072 6.53915 4.08579 6.91422C4.46086 7.28929 4.96957 7.50001 5.5 7.50001ZM18.39 18.39L14.5 22.278L10.61 18.389C9.84107 17.6197 9.3175 16.6397 9.1055 15.5729C8.89349 14.5061 9.00255 13.4003 9.41891 12.3955C9.83527 11.3906 10.5402 10.5318 11.4446 9.92757C12.349 9.32334 13.4123 9.00083 14.5 9.00083C15.5877 9.00083 16.651 9.32334 17.5554 9.92757C18.4598 10.5318 19.1647 11.3906 19.5811 12.3955C19.9974 13.4003 20.1065 14.5061 19.8945 15.5729C19.6825 16.6397 19.1589 17.6197 18.39 18.389V18.39ZM14.5 16.5C15.0304 16.5 15.5391 16.2893 15.9142 15.9142C16.2893 15.5391 16.5 15.0304 16.5 14.5C16.5 13.9696 16.2893 13.4609 15.9142 13.0858C15.5391 12.7107 15.0304 12.5 14.5 12.5C13.9696 12.5 13.4609 12.7107 13.0858 13.0858C12.7107 13.4609 12.5 13.9696 12.5 14.5C12.5 15.0304 12.7107 15.5391 13.0858 15.9142C13.4609 16.2893 13.9696 16.5 14.5 16.5Z" fill="#ABABAB"/>
</svg>
