<svg width="20" height="18" viewBox="0 0 20 18" fill="none" xmlns="http://www.w3.org/2000/svg">
<path d="M2.85714 3.57143C2.85714 2.62423 3.23342 1.71582 3.90319 1.04605C4.57296 0.376274 5.48137 0 6.42857 0H13.5714C14.5186 0 15.427 0.376274 16.0968 1.04605C16.7666 1.71582 17.1429 2.62423 17.1429 3.57143V5.78571C17.9495 5.95038 18.6746 6.3887 19.1952 7.0265C19.7159 7.66429 20.0002 8.46239 20 9.28571V16.4286C20 16.618 19.9247 16.7997 19.7908 16.9336C19.6568 17.0676 19.4752 17.1429 19.2857 17.1429C19.0963 17.1429 18.9146 17.0676 18.7806 16.9336C18.6467 16.7997 18.5714 16.618 18.5714 16.4286V12.8571H1.42857V16.4286C1.42857 16.618 1.35332 16.7997 1.21936 16.9336C1.08541 17.0676 0.903726 17.1429 0.714286 17.1429C0.524845 17.1429 0.343164 17.0676 0.209209 16.9336C0.0752549 16.7997 7.44488e-08 16.618 7.44488e-08 16.4286V9.28571C-0.000167965 8.46239 0.284131 7.66429 0.804781 7.0265C1.32543 6.3887 2.05045 5.95038 2.85714 5.78571V3.57143ZM1.42857 11.4286H18.5714V9.28571C18.5714 8.71739 18.3457 8.17235 17.9438 7.77048C17.5419 7.36862 16.9969 7.14286 16.4286 7.14286H3.57143C3.00311 7.14286 2.45806 7.36862 2.0562 7.77048C1.65434 8.17235 1.42857 8.71739 1.42857 9.28571V11.4286ZM15.7143 3.57143C15.7143 3.00311 15.4885 2.45806 15.0867 2.0562C14.6848 1.65434 14.1397 1.42857 13.5714 1.42857H6.42857C5.86025 1.42857 5.31521 1.65434 4.91334 2.0562C4.51148 2.45806 4.28571 3.00311 4.28571 3.57143V5.71429H5.71429V5C5.71429 4.81056 5.78954 4.62888 5.9235 4.49492C6.05745 4.36097 6.23913 4.28571 6.42857 4.28571H8.57143C8.76087 4.28571 8.94255 4.36097 9.0765 4.49492C9.21046 4.62888 9.28571 4.81056 9.28571 5V5.71429H10.7143V5C10.7143 4.81056 10.7895 4.62888 10.9235 4.49492C11.0574 4.36097 11.2391 4.28571 11.4286 4.28571H13.5714C13.7609 4.28571 13.9426 4.36097 14.0765 4.49492C14.2105 4.62888 14.2857 4.81056 14.2857 5V5.71429H15.7143V3.57143Z" fill="#AF1F25"/>
</svg>
