<svg width="40" height="40" viewBox="0 0 40 40" fill="none" xmlns="http://www.w3.org/2000/svg">
<path d="M5.60842 11.3743C5.59965 11.5542 5.86377 11.7852 6.15812 11.79C6.16588 11.7798 6.17838 11.7673 6.19277 11.7529C6.2326 11.7132 6.28695 11.6589 6.29554 11.598C6.31991 11.4231 6.05968 11.2106 5.84672 11.2018C5.72001 11.1965 5.61573 11.2199 5.60842 11.3743Z" fill="#121212"/>
<path fill-rule="evenodd" clip-rule="evenodd" d="M29.2185 28.6578C29.1119 28.6842 29.0003 28.7118 28.8814 28.742C29.0778 28.4401 29.2578 28.1639 29.4313 27.8975C29.5371 27.735 29.6406 27.5762 29.7439 27.4174C29.8509 27.2532 29.9578 27.089 30.0647 26.9247C30.2364 26.6609 30.4081 26.397 30.5802 26.1333C30.6617 26.0083 30.7432 25.8832 30.8246 25.7581C31.1191 25.306 31.4135 24.8539 31.7112 24.4038C31.9413 24.0559 32.0012 23.6826 31.8764 23.2893C31.7059 22.7518 31.3643 22.3361 30.8994 22.0252C30.259 21.5974 29.6153 21.1744 28.9662 20.7596C28.8219 20.6675 28.7834 20.591 28.8629 20.4292C29.1109 19.9234 29.3994 19.7514 29.9545 19.8342C30.1362 19.861 30.316 19.9219 30.4876 19.9911C31.1421 20.2558 31.7936 20.5106 32.5148 20.5467C33.8754 20.6149 35.0197 20.2046 35.6634 18.9395C35.9212 18.4327 36.0333 17.8849 36.0206 17.3182C36.0114 16.9196 35.7619 16.6939 35.3871 16.7037C35.0362 16.7129 34.8632 16.9254 34.8647 17.345C34.8647 17.3883 34.8643 17.4318 34.8638 17.4752C34.8636 17.4968 34.8634 17.5184 34.8632 17.5399C34.8554 18.2675 34.3969 18.9083 33.7127 19.1568C32.7478 19.5072 31.818 19.3508 30.8984 18.977C30.847 18.9561 30.7955 18.9351 30.744 18.914C30.4064 18.7757 30.0672 18.6368 29.7166 18.5438C28.8365 18.3099 28.2152 18.5974 27.8692 19.44C27.6465 19.9824 27.4867 20.5579 27.3634 21.1324C27.1704 22.0311 26.9506 22.9136 26.5018 23.725C26.3278 24.0393 26.0759 24.2493 25.7367 24.36C25.4263 24.4613 25.1095 24.3775 24.9604 24.0866C24.8269 23.8264 24.7182 23.5359 24.6821 23.2484C24.6145 22.7102 24.7229 22.187 24.8314 21.6633C24.8597 21.5269 24.888 21.3905 24.9131 21.2538C25.1539 19.9453 25.4419 18.6515 25.9477 17.4171C26.4004 16.3138 26.899 15.2305 27.6358 14.2802C28.1382 13.6326 28.7961 13.1901 29.6163 13.1272C30.1903 13.0834 30.7907 13.1253 31.354 13.2457C33.1922 13.6384 35.0318 13.9698 36.9212 13.7827C37.3349 13.7419 37.7444 13.6551 38.1527 13.5686C38.2273 13.5528 38.3018 13.537 38.3763 13.5215C38.5888 13.4771 38.7296 13.3358 38.7657 13.1058C38.8422 12.616 38.5099 12.3363 38.0084 12.4304L37.993 12.4333C37.4581 12.5337 36.917 12.6353 36.3754 12.6594C34.911 12.7242 33.4636 12.5722 32.0285 12.2559C31.1279 12.0576 30.2157 11.886 29.28 12.0332C28.51 12.1545 27.8146 12.4216 27.2333 12.9606C27.0281 13.1506 26.8044 13.3329 26.5603 13.4664C25.7869 13.8894 24.9472 14.1535 24.0881 14.3143C23.0795 14.5027 22.0641 14.6556 21.0488 14.8084C20.7665 14.8509 20.4843 14.8934 20.2022 14.9367C20.1194 14.9493 20.0131 14.9064 19.9386 14.8582C18.9839 14.2393 18.0306 13.6183 17.0773 12.9973C16.4889 12.614 15.9006 12.2308 15.3119 11.848C14.8654 11.5579 14.4183 11.2687 13.9712 10.9796C13.3633 10.5866 12.7555 10.1935 12.1492 9.79786C11.4128 9.31702 10.6777 8.83423 9.94249 8.35141C9.45796 8.03321 8.97341 7.715 8.48848 7.39732C8.01773 7.08836 7.50117 6.95337 6.93978 7.01429C6.55138 7.05669 6.22147 7.21555 6.00169 7.55132C5.07392 8.9683 4.14859 10.3872 3.22326 11.8062L3.22298 11.8066C3.01758 12.1215 2.81208 12.4363 2.60659 12.7511C1.88581 13.8552 1.16522 14.9591 0.449644 16.0668C0.420336 16.1122 0.390165 16.1573 0.359985 16.2023C0.171375 16.484 -0.0175947 16.7663 0.00130967 17.1452C0.0388335 17.8893 0.442822 18.4113 1.02225 18.7953C2.84629 20.0043 4.68397 21.1934 6.52166 22.3819C6.69612 22.4945 6.72779 22.5964 6.67224 22.7932C6.53774 23.2693 6.44856 23.7513 6.54456 24.2557C6.72584 25.2103 7.38762 25.7781 8.36275 25.7727C9.06011 25.7693 9.69411 25.5286 10.3091 25.2264C10.4819 25.1417 10.5703 25.0984 10.6524 25.1081C10.7383 25.1184 10.8174 25.1869 10.9792 25.3273C10.9619 25.389 10.9438 25.4505 10.9257 25.512C10.8869 25.6436 10.8481 25.7752 10.8179 25.9087C10.6829 26.5056 10.6571 27.1036 10.9212 27.6718C11.2818 28.4476 12.0683 28.7999 13.0064 28.6313C13.6346 28.5183 14.2179 28.2844 14.7783 27.9837C14.8495 27.9457 14.9698 27.9311 15.0356 27.9657C15.1798 28.0413 15.316 28.1327 15.4407 28.2165C15.488 28.2483 15.5337 28.279 15.5775 28.3073C15.5308 28.4197 15.4811 28.529 15.432 28.637C15.3265 28.869 15.2239 29.0947 15.1594 29.3311C14.8763 30.3711 15.484 31.2044 16.5488 31.2887C17.3894 31.3555 18.1784 31.1532 18.9254 30.8019C19.2183 30.6639 19.384 30.759 19.5804 30.9442C19.5629 30.9784 19.5454 31.0115 19.5283 31.0439C19.4948 31.1073 19.4626 31.1683 19.4342 31.2312C19.2768 31.5816 19.1369 31.9427 19.1978 32.3325C19.3124 33.063 19.8445 33.4168 20.4805 33.6152C21.2587 33.8583 21.9902 33.6668 22.6559 33.2302C22.843 33.1074 22.9643 33.1064 23.1442 33.2389C23.4902 33.4943 23.8595 33.7175 24.2976 33.7847C25.1012 33.908 25.6402 33.7687 26.0569 33.0932C26.4162 32.5108 26.7911 31.9377 27.1659 31.3646C27.4158 30.9826 27.6657 30.6006 27.9111 30.2156C28.0032 30.0714 28.1095 30.0012 28.2713 29.9768C29.7283 29.7561 31.1299 29.3506 32.4568 28.7015C33.7638 28.0626 34.8886 27.2132 35.6366 25.9321C36.0767 25.1782 36.6814 24.5953 37.4504 24.1821C38.0912 23.8371 38.7711 23.6153 39.4952 23.5281C39.8977 23.4799 40.0815 23.2089 39.966 22.8488C39.887 22.6022 39.563 22.3532 39.3115 22.4092C39.2214 22.4293 39.1311 22.449 39.0406 22.4687C38.5387 22.5781 38.0336 22.6881 37.5596 22.8727C36.2852 23.3688 35.2117 24.1334 34.5172 25.3609C34.1976 25.9262 33.8248 26.4584 33.2931 26.857C32.2415 27.6455 31.0621 28.1625 29.8019 28.5085C29.6146 28.5597 29.426 28.6064 29.2185 28.6578ZM28.2877 22.2246C28.334 22.0683 28.3815 21.9082 28.4316 21.7426C28.6463 21.8949 28.8603 22.0443 29.073 22.1927C29.5785 22.5456 30.0763 22.8931 30.5573 23.2625C30.8536 23.4901 30.8287 23.6728 30.627 23.9799C30.0104 24.919 29.3952 25.8594 28.7799 26.7998C28.4722 27.2701 28.1645 27.7405 27.8565 28.2108C27.7946 28.3054 27.7326 28.4001 27.6706 28.4948C27.1289 29.3222 26.5872 30.1494 26.0393 30.9724C25.9999 31.0324 25.8873 31.0952 25.8269 31.0806C25.7782 31.0688 25.7286 31.0578 25.6788 31.0466C25.4672 30.9995 25.2508 30.9512 25.0769 30.8404C24.0755 30.2034 23.0823 29.5535 22.0889 28.9034C21.7326 28.6702 21.3762 28.4371 21.0194 28.2044C20.5825 27.9198 20.1455 27.6353 19.7084 27.3508C18.8818 26.8129 18.0552 26.2749 17.2295 25.7352C16.5004 25.2586 15.7719 24.7811 15.0435 24.3036C14.2539 23.7861 13.4644 23.2686 12.6741 22.7523C11.8179 22.1931 10.961 21.6353 10.1041 21.0774C9.43237 20.6402 8.76068 20.2029 8.08937 19.765C7.29732 19.2484 6.50565 18.7313 5.71403 18.2142C4.71425 17.5612 3.71454 16.9082 2.71422 16.2563C2.37797 16.037 2.22057 15.5136 2.48226 15.1282C2.63817 14.8988 2.77268 14.6549 2.91198 14.4022C2.97427 14.2892 3.03752 14.1744 3.10408 14.0585C3.18919 14.1132 3.27146 14.1658 3.35181 14.2172C3.50423 14.3147 3.64974 14.4078 3.79461 14.502C3.90773 14.5755 4.02006 14.6504 4.13242 14.7253C4.36422 14.8798 4.59609 15.0345 4.83504 15.1769C5.22977 15.4123 5.65715 15.4961 6.08648 15.2841C6.23755 15.2096 6.37838 15.0746 6.47341 14.9328C7.05089 14.0707 7.61666 13.2008 8.18001 12.329C8.46996 11.8802 8.39297 11.3266 7.94122 10.9255C7.7057 10.7161 7.44027 10.5396 7.17541 10.3635C7.08898 10.3061 7.00261 10.2487 6.91736 10.1902C6.72499 10.058 6.52895 9.93114 6.3245 9.79884C6.23114 9.73842 6.13603 9.67687 6.03872 9.61317C6.06472 9.57158 6.09041 9.53039 6.1159 9.48953C6.2027 9.35037 6.28713 9.21501 6.37302 9.08053C6.42466 8.99952 6.47776 8.91934 6.53085 8.83918C6.63457 8.68256 6.73827 8.52597 6.8311 8.36319C6.97194 8.11661 7.18587 8.06349 7.40907 8.16875C7.7882 8.34808 8.15905 8.54984 8.51187 8.77547C9.28829 9.27177 10.0588 9.77703 10.8294 10.2823C11.075 10.4434 11.3206 10.6044 11.5664 10.7652C12.1644 11.1564 12.7623 11.5479 13.3601 11.9394C14.3894 12.6134 15.4186 13.2874 16.4489 13.9601C17.5285 14.665 18.609 15.3688 19.6895 16.0726C20.4904 16.5944 21.2914 17.1162 22.092 17.6384C22.2976 17.7725 22.5027 17.9074 22.7077 18.0422C23.1441 18.3294 23.5805 18.6165 24.0218 18.8956C24.1675 18.9878 24.1636 19.0818 24.1266 19.2168C23.7782 20.478 23.5194 21.7538 23.5096 23.0686C23.5057 23.5812 23.555 24.0905 23.7572 24.569C24.2704 25.7834 25.4238 26.165 26.63 25.3185C27.3624 24.8044 27.7181 24.0286 27.9862 23.2084C28.0908 22.8885 28.1865 22.5659 28.2877 22.2246ZM24.9982 32.1786C25.0613 32.211 25.1243 32.2433 25.1865 32.277C24.9706 32.7316 24.8766 32.8569 24.3147 32.5816C23.856 32.3568 23.4261 32.0716 22.9973 31.7871C22.8849 31.7125 22.7725 31.6379 22.6598 31.5645C21.2682 30.6596 19.8789 29.7508 18.4897 28.842C18.0341 28.544 17.5785 28.246 17.1228 27.9481C16.1774 27.3301 15.2323 26.7117 14.2871 26.0933C12.7572 25.0924 11.2274 24.0914 9.69655 23.092C8.49346 22.3065 7.28926 21.5228 6.08509 20.7392C5.34018 20.2545 4.59527 19.7697 3.85065 19.2845C3.30111 18.9264 2.75269 18.5665 2.20434 18.2066C2.03497 18.0955 1.8656 17.9843 1.69621 17.8733C1.68821 17.8681 1.68012 17.8629 1.672 17.8577C1.63212 17.8323 1.59158 17.8066 1.55879 17.7733C1.02468 17.2315 1.04515 17.1925 1.42477 16.691C2.55615 17.6305 3.79501 18.4125 5.03361 19.1943C5.54437 19.5167 6.05509 19.8391 6.55821 20.1724C8.62165 21.5399 10.6948 22.8925 12.7678 24.2451C13.3277 24.6104 13.8877 24.9758 14.4474 25.3414C15.8202 26.2381 17.1944 27.1325 18.5687 28.027C19.4158 28.5783 20.2628 29.1296 21.1096 29.6815C21.5297 29.9553 21.9495 30.2296 22.3693 30.5039C23.1099 30.9878 23.8505 31.4718 24.593 31.9529C24.7224 32.0369 24.8603 32.1077 24.9982 32.1786ZM25.5113 15.3259C25.187 16.1304 24.8449 16.9792 24.4984 17.8396C23.517 17.1988 22.5535 16.5697 21.5901 15.9405C22.9453 15.6764 24.2801 15.4162 25.5769 15.1633L25.5113 15.3259ZM3.7488 13.1082C4.29948 12.2637 4.84479 11.4279 5.40374 10.5717C5.67989 10.7531 5.94845 10.9296 6.21535 11.105C6.53862 11.3174 6.85945 11.5283 7.18831 11.7442C6.77878 12.3728 6.37834 12.9869 5.97531 13.605C5.83401 13.8217 5.69238 14.0389 5.54994 14.2573C5.42033 14.1791 5.30069 14.1071 5.19151 14.0414C5.12992 14.0043 5.07165 13.9692 5.01681 13.9362C5.08836 13.8317 5.15976 13.7288 5.23064 13.6266C5.39052 13.3961 5.54768 13.1694 5.6976 12.9382C5.89301 12.6375 5.82722 12.2954 5.55871 12.1258C5.27558 11.9465 4.92471 12.0264 4.73222 12.3236C4.58289 12.5539 4.43777 12.7871 4.28751 13.0286C4.22691 13.126 4.16548 13.2247 4.1026 13.3251C4.02219 13.2759 3.9028 13.2028 3.7488 13.1082ZM11.8734 26.9559C11.8135 26.6894 11.8695 26.2907 12.0196 25.9876C12.2855 26.1611 12.5509 26.3342 12.818 26.5083C13.1494 26.7245 13.4835 26.9423 13.8246 27.165C13.3865 27.3916 12.9518 27.511 12.4957 27.5217C12.1531 27.53 11.9577 27.3307 11.8734 26.9559ZM9.45606 24.3585C9.45776 24.3759 9.45947 24.3934 9.46117 24.4107C9.34506 24.4322 9.22917 24.4566 9.11326 24.4809C8.85412 24.5355 8.59484 24.59 8.33254 24.6129C7.93732 24.647 7.69366 24.4111 7.66881 24.0081C7.65829 23.8368 7.66906 23.6644 7.68123 23.4697C7.68709 23.3759 7.69328 23.2769 7.69756 23.1704C7.96348 23.3427 8.21822 23.5077 8.46654 23.6686C8.80252 23.8862 9.12673 24.0962 9.45094 24.3064C9.45264 24.3237 9.45435 24.3411 9.45606 24.3585ZM16.4519 29.1747C16.4884 29.1025 16.5261 29.028 16.5624 28.9496C16.8297 29.1251 17.0827 29.2912 17.334 29.4562C17.5683 29.6101 17.8012 29.763 18.0429 29.9218C17.5541 30.0831 17.1087 30.2025 16.6355 30.1615C16.3183 30.1342 16.1667 29.9461 16.2549 29.6323C16.2986 29.4776 16.3726 29.3313 16.4519 29.1747ZM21.0666 31.893C21.313 32.0535 21.5635 32.2168 21.8313 32.391C21.3801 32.5596 20.9814 32.6508 20.5779 32.4163C20.3138 32.2624 20.2831 32.1819 20.3923 31.9056C20.4222 31.8295 20.4603 31.757 20.5016 31.6784C20.5208 31.6418 20.5407 31.6038 20.5609 31.5635C20.7303 31.6739 20.8975 31.7828 21.0666 31.893Z" fill="#121212"/>
</svg>
