<svg width="19" height="18" viewBox="0 0 19 18" fill="none" xmlns="http://www.w3.org/2000/svg">
<path fill-rule="evenodd" clip-rule="evenodd" d="M10.5815 8.07303C10.8315 8.07303 10.873 8.02756 10.9525 7.94003C10.999 7.89004 11.0575 7.82504 11.1775 7.74753C11.512 7.96005 11.9012 8.07059 12.2975 8.06552L13.5635 7.62655C13.9165 7.35245 14.1621 6.96316 14.2575 6.52652C14.3495 6.09384 14.2828 5.64254 14.0695 5.25503C13.8503 4.8594 13.5024 4.55062 13.0835 4.38003C12.9837 3.957 12.7393 3.58212 12.3925 3.32003L11.1565 2.90805H11.0175C10.7357 2.52127 10.3238 2.24929 9.85751 2.14205L7.71851 2.00002C7.27851 2.035 6.86301 2.21005 6.53951 2.49703C6.0143 2.37429 5.46186 2.4645 5.00301 2.74801C4.68776 2.94186 4.43583 3.22329 4.27801 3.55801L3.27201 4.23703C3.02286 4.55612 2.88736 4.94918 2.887 5.35403C2.88451 5.52255 2.90801 5.69003 2.957 5.85153C2.69441 6.17331 2.55161 6.5762 2.553 6.99154C2.55436 7.47427 2.74712 7.93674 3.08901 8.27756C3.1165 8.62003 3.24201 8.94852 3.45201 9.22751C3.66201 9.50754 3.94701 9.72653 4.27851 9.86252C4.65647 10.0871 4.97936 10.3934 5.22351 10.759C5.46451 11.1216 5.56351 11.531 5.61701 11.957H7.71851V9.96805C7.71851 9.61502 7.82151 9.26901 8.01701 8.96902C8.03261 8.9454 8.04752 8.92203 8.06204 8.89908L8.10151 8.83652L8.10316 8.83395C8.25239 8.59604 8.37354 8.40304 8.65451 8.27151C8.96346 8.15951 9.2438 7.98056 9.47551 7.74753C9.80505 7.96042 10.1892 8.07376 10.5815 8.07303ZM11.3495 6.66L11.736 6.9075C11.8575 6.98501 11.998 7.03604 12.1455 7.05453L13.0295 6.74801C13.146 6.62503 13.224 6.47653 13.2575 6.319C13.3006 6.11648 13.2692 5.90524 13.169 5.72403C13.0613 5.53109 12.8909 5.38083 12.686 5.298L12.2035 5.09805L12.0875 4.59805C12.0521 4.44772 11.9766 4.30984 11.869 4.199L10.9875 3.90506H10.4875L10.1825 3.48104C10.06 3.31344 9.88622 3.19021 9.68752 3.13003L7.73851 3.001C7.54828 3.02706 7.36989 3.10848 7.22551 3.23501L6.83051 3.58554L6.31101 3.46902C6.18238 3.43789 6.04886 3.43258 5.91816 3.45333C5.78745 3.47409 5.66216 3.52059 5.54951 3.59005C5.40099 3.681 5.28215 3.8132 5.20751 3.97055L5.09001 4.22152L4.013 4.949C3.94351 5.07351 3.90801 5.21103 3.90801 5.35V5.36606C3.90701 5.43301 3.91651 5.501 3.93601 5.56601L4.08601 6.06302L3.75701 6.46951C3.63551 6.61954 3.57301 6.8005 3.5745 6.98251V6.99002C3.5745 7.20401 3.6595 7.41501 3.82151 7.57852L4.07751 7.83652L4.10701 8.19553C4.11951 8.35055 4.17651 8.50204 4.27451 8.63254C4.373 8.76401 4.50951 8.87003 4.6725 8.93655L4.74401 8.96603L4.8105 9.00601C4.96201 9.09604 5.10751 9.19601 5.24501 9.30502C5.4225 9.44156 5.64351 9.64102 5.93001 9.99905C6.23001 10.3741 6.39401 10.7935 6.4385 10.956H6.70001V10.5185C6.70001 10.475 6.69901 10.4225 6.69801 10.364L6.6979 10.3569C6.69288 10.0699 6.68524 9.63266 6.77401 9.28806C6.88151 8.87003 7.10301 8.462 7.38001 8.07303C7.65751 7.68454 8.07651 7.41305 8.23401 7.35452C8.39151 7.29605 8.55101 7.2355 8.70651 7.08304C8.83151 6.96103 9.17651 6.6105 9.33301 6.45053L10.033 6.90951C10.167 6.99704 10.3445 7.04605 10.416 7.05954C10.4355 7.04452 10.496 6.99704 10.5835 6.93252C10.6715 6.86856 11.0165 6.6445 11.1785 6.54001L11.3495 6.66Z" fill="#AF1F25"/>
<path d="M14.2975 9.75003C14.2975 10.164 13.955 10.5 13.5315 10.5C13.1085 10.5 12.766 10.164 12.766 9.75003C12.766 9.33603 13.109 9.00003 13.5315 9.00003C13.955 9.00003 14.2975 9.33603 14.2975 9.75003Z" fill="#AF1F25"/>
<path d="M5.617 14H7.65951V13H5.617V14Z" fill="#AF1F25"/>
<path d="M7.65951 16H5.617V15H7.65951V16Z" fill="#AF1F25"/>
<path fill-rule="evenodd" clip-rule="evenodd" d="M18.367 11.7881C18.542 10.851 17.216 9.68307 17.216 9.68307C16.7675 8.77365 16.779 8.00491 16.792 7.13266L16.792 7.12955C16.7933 7.04922 16.7946 6.96799 16.7954 6.88565C16.7973 6.71438 16.7976 6.53842 16.7935 6.35605C16.7635 5.18252 16.3715 4.04104 15.6635 3.06954C14.8895 2.14456 13.8735 1.41952 12.7135 0.964562C11.2294 0.325157 9.62997 -0.00315104 8.01401 2.27935e-05C5.8885 2.27935e-05 3.85 0.787072 2.347 2.18807C0.844002 3.58853 0 5.48855 0 7.47006C0 9.85355 1.43701 11.692 3.302 13.057V16.2815C3.831 17.3355 5.8275 18.083 6.994 17.9926C8.73701 17.9926 9.47001 17.32 9.75151 16.9215C9.87001 16.7536 9.90851 16.6346 9.90851 16.6346V15.9226C10.244 16.0244 10.5849 16.1079 10.9295 16.1726C12.7725 16.5285 16.4655 16.7696 16.4655 12.9831C16.4655 12.9831 18.192 12.7251 18.367 11.7881ZM16.296 10.1176L16.3835 10.2951L16.384 10.2945L16.5315 10.4245L16.532 10.4256L16.533 10.4261L16.537 10.429C16.7191 10.5977 16.8864 10.7818 17.037 10.979C17.1481 11.1204 17.2413 11.2749 17.3145 11.4391C17.3352 11.4861 17.3503 11.5354 17.3595 11.586C17.351 11.5944 17.3422 11.6024 17.333 11.6101C17.2595 11.6715 17.1355 11.7431 16.964 11.8116C16.7651 11.8899 16.5592 11.9489 16.349 11.9881L16.3135 11.9945L16.308 11.9956L15.4445 12.1245V12.9836C15.4445 14.015 15.121 14.5251 14.7795 14.8095C14.3995 15.1261 13.8305 15.302 13.121 15.3471C12.423 15.3921 11.699 15.302 11.131 15.1921C10.851 15.138 10.6185 15.081 10.4585 15.0385C10.3785 15.0176 10.3175 14.9995 10.2775 14.9881L10.2345 14.9751L10.227 14.9726H10.2255L8.8875 14.5426V16.3855C8.853 16.4291 8.80201 16.4845 8.72951 16.5431C8.519 16.7141 8.03051 16.9926 6.9945 16.9926H6.95401L6.91401 16.9961C6.549 17.0241 5.93151 16.9146 5.322 16.651C4.825 16.4366 4.49401 16.1896 4.324 15.9911V12.5561L3.914 12.2561C2.18151 10.9886 1.022 9.41104 1.022 7.47006C1.022 5.77054 1.7455 4.12954 3.052 2.91207C4.3595 1.69302 6.14451 1.00002 8.01451 1.00002H8.01601C9.48924 0.997155 10.9474 1.29629 12.3005 1.87905L12.317 1.88607L12.3335 1.89254C13.3265 2.28256 14.192 2.89804 14.8525 3.67758C15.4239 4.4656 15.7445 5.40756 15.7725 6.38052C15.7749 6.48446 15.7749 6.59128 15.7738 6.70096C15.7728 6.8013 15.7709 6.90396 15.769 7.00906L15.769 7.01108C15.752 7.91116 15.7319 8.97342 16.296 10.1176Z" fill="#AF1F25"/>
</svg>
