<svg width="19" height="18" viewBox="0 0 19 18" fill="none" xmlns="http://www.w3.org/2000/svg">
<path d="M5.40379 9.88712C5.89923 9.88712 6.30082 9.48547 6.30082 8.99008C6.30082 8.4947 5.89923 8.09305 5.40379 8.09305C4.90835 8.09305 4.50675 8.4947 4.50675 8.99008C4.50675 9.48547 4.90835 9.88712 5.40379 9.88712Z" fill="#121212"/>
<path d="M9.88898 8.99008C9.88898 9.48547 9.48738 9.88712 8.99194 9.88712C8.4965 9.88712 8.0949 9.48547 8.0949 8.99008C8.0949 8.4947 8.4965 8.09305 8.99194 8.09305C9.48738 8.09305 9.88898 8.4947 9.88898 8.99008Z" fill="#121212"/>
<path d="M13.4771 8.99008C13.4771 9.48547 13.0755 9.88712 12.5801 9.88712C12.0847 9.88712 11.6831 9.48547 11.6831 8.99008C11.6831 8.4947 12.0847 8.09305 12.5801 8.09305C13.0755 8.09305 13.4771 8.4947 13.4771 8.99008Z" fill="#121212"/>
<path fill-rule="evenodd" clip-rule="evenodd" d="M9.84107 0.0423684C11.9195 0.245056 13.8621 1.16662 15.334 2.64807L15.3788 2.66603C16.8603 4.13784 17.7818 6.0804 17.9846 8.15886C18.1872 10.2373 17.6584 12.3213 16.4892 14.0517C15.3201 15.7821 13.5839 17.0503 11.5799 17.6378C9.57591 18.2252 7.42973 18.095 5.51143 17.2697C5.33031 17.1934 5.13244 17.1656 4.93731 17.189L1.09801 17.9605H0.918595C0.797541 17.9635 0.677089 17.9421 0.564576 17.8974C0.452008 17.8527 0.349679 17.7857 0.263774 17.7003C0.158927 17.5949 0.0818921 17.4653 0.0396244 17.3227C-0.00264323 17.1803 -0.00888483 17.0295 0.0215567 16.8841L0.810955 13.0896C0.844462 12.8945 0.816211 12.6938 0.730197 12.5155C-0.0950627 10.5971 -0.225206 8.45101 0.362217 6.44702C0.949639 4.44302 2.21789 2.70676 3.94823 1.53761C5.67858 0.368465 7.76262 -0.160319 9.84107 0.0423684ZM14.8617 13.1227C15.4871 12.2356 15.9031 11.2183 16.0786 10.1473C16.263 9.02304 16.1772 7.87109 15.8282 6.78658C15.4792 5.70208 14.8769 4.71623 14.0714 3.91063C13.2658 3.10502 12.28 2.50287 11.1955 2.15378C10.111 1.8048 8.95898 1.71895 7.83478 1.90346C6.76369 2.07888 5.74642 2.49488 4.85934 3.12024C3.97232 3.74561 3.23872 4.56402 2.71371 5.51395C2.18865 6.46377 1.88593 7.52035 1.82828 8.6042C1.77063 9.68794 1.95952 10.7707 2.38077 11.7709C2.6053 12.2809 2.67095 12.8467 2.56911 13.3946L2.05785 15.9242L4.58745 15.4129C4.7534 15.3842 4.92143 15.3692 5.08984 15.368C5.47529 15.3711 5.85636 15.4504 6.21114 15.6013C7.21133 16.0225 8.29408 16.2114 9.37788 16.1538C10.4616 16.0961 11.5182 15.7933 12.4681 15.2684C13.4179 14.7433 14.2364 14.0098 14.8617 13.1227Z" fill="#121212"/>
</svg>
