<svg width="17" height="17" viewBox="0 0 17 17" fill="none" xmlns="http://www.w3.org/2000/svg">
<path fill-rule="evenodd" clip-rule="evenodd" d="M8.54605 2.18198C10.3034 0.424621 13.1526 0.424621 14.91 2.18198C16.6674 3.93934 16.6674 6.78858 14.91 8.54594L8.54605 14.9099C6.78869 16.6673 3.93944 16.6673 2.18209 14.9099C0.424727 13.1525 0.424728 10.3033 2.18209 8.54594L8.54605 2.18198ZM10.5348 11.3302L7.75055 14.1144C6.43253 15.4324 4.2956 15.4324 2.97758 14.1144C1.65956 12.7964 1.65956 10.6595 2.97758 9.34144L5.76181 6.5572L10.5348 11.3302ZM11.3303 10.5347L14.1145 7.75045C15.4325 6.43243 15.4325 4.29549 14.1145 2.97748C12.7965 1.65946 10.6596 1.65946 9.34154 2.97748L6.55731 5.76171L11.3303 10.5347Z" fill="#AF1F25"/>
</svg>
