<svg width="15" height="20" viewBox="0 0 15 20" fill="none" xmlns="http://www.w3.org/2000/svg">
<path d="M14.8148 8.70536C14.8148 8.60714 14.734 8.52679 14.6352 8.52679H13.2884C13.1897 8.52679 13.1089 8.60714 13.1089 8.70536C13.1089 11.8371 10.5567 14.375 7.40741 14.375C4.25814 14.375 1.70595 11.8371 1.70595 8.70536C1.70595 8.60714 1.62514 8.52679 1.52637 8.52679H0.179574C0.0808081 8.52679 0 8.60714 0 8.70536C0 12.471 2.84175 15.5781 6.50954 16.0179V18.3036H3.24804C2.94052 18.3036 2.6936 18.6228 2.6936 19.0179V19.8214C2.6936 19.9196 2.75645 20 2.83277 20H11.982C12.0584 20 12.1212 19.9196 12.1212 19.8214V19.0179C12.1212 18.6228 11.8743 18.3036 11.5668 18.3036H8.21549V16.029C11.9259 15.6272 14.8148 12.5022 14.8148 8.70536ZM7.40741 12.5C9.51515 12.5 11.2233 10.8214 11.2233 8.75V3.75C11.2233 1.67857 9.51515 0 7.40741 0C5.29966 0 3.59147 1.67857 3.59147 3.75V8.75C3.59147 10.8214 5.29966 12.5 7.40741 12.5ZM5.29742 3.75C5.29742 2.62054 6.23793 1.69643 7.40741 1.69643C8.57688 1.69643 9.5174 2.62054 9.5174 3.75V8.75C9.5174 9.87946 8.57688 10.8036 7.40741 10.8036C6.23793 10.8036 5.29742 9.87946 5.29742 8.75V3.75Z" fill="#AF1F25"/>
</svg>
