<svg width="18" height="18" viewBox="0 0 18 18" fill="none" xmlns="http://www.w3.org/2000/svg">
<path d="M9.00023 0C6.61322 0 4.32398 0.948236 2.63611 2.63611C0.948236 4.32398 0 6.61322 0 9.00023C6.15338e-05 10.1822 0.23292 11.3525 0.685281 12.4444C1.13764 13.5364 1.80065 14.5285 2.63644 15.3642C3.47223 16.1999 4.46444 16.8628 5.55643 17.3151C6.64841 17.7673 7.81878 18.0001 9.0007 18C10.1826 17.9999 11.353 17.7671 12.4449 17.3147C13.5368 16.8624 14.529 16.1994 15.3647 15.3636C16.2004 14.5278 16.8633 13.5356 17.3155 12.4436C17.7678 11.3516 18.0005 10.1812 18.0005 8.9993C18.0005 4.02948 13.9701 0 9.00023 0ZM9.00023 16.1245C8.05773 16.1353 7.12244 15.959 6.24855 15.6058C5.37465 15.2526 4.57953 14.7295 3.90922 14.0668C3.23891 13.4042 2.70674 12.6151 2.34354 11.7453C1.98034 10.8755 1.79332 9.94234 1.79332 8.99977C1.79332 8.0572 1.98034 7.12399 2.34354 6.25421C2.70674 5.38443 3.23891 4.59535 3.90922 3.93268C4.57953 3.27002 5.37465 2.74694 6.24855 2.39374C7.12244 2.04054 8.05773 1.86424 9.00023 1.87505C9.94274 1.86424 10.878 2.04054 11.7519 2.39374C12.6258 2.74694 13.4209 3.27002 14.0913 3.93268C14.7616 4.59535 15.2937 5.38443 15.6569 6.25421C16.0201 7.12399 16.2071 8.0572 16.2071 8.99977C16.2071 9.94234 16.0201 10.8755 15.6569 11.7453C15.2937 12.6151 14.7616 13.4042 14.0913 14.0668C13.4209 14.7295 12.6258 15.2526 11.7519 15.6058C10.878 15.959 9.94274 16.1353 9.00023 16.1245ZM6.65736 8.76585C7.43363 8.76585 8.06271 8.03177 8.06271 7.12519C8.06271 6.2186 7.43269 5.48452 6.65642 5.48452C5.88015 5.48452 5.25014 6.2186 5.25014 7.12519C5.25014 8.03177 5.88015 8.76585 6.65736 8.76585ZM11.344 8.76585C12.1213 8.76585 12.7503 8.03177 12.7503 7.12519C12.7503 6.2186 12.1203 5.48452 11.344 5.48452C10.5678 5.48452 9.93776 6.21954 9.93776 7.12519C9.93776 8.03083 10.5678 8.76585 11.344 8.76585ZM13.07 10.2528C12.9046 10.1693 12.713 10.1539 12.5363 10.21C12.3597 10.2661 12.212 10.3891 12.125 10.5528C12.0931 10.6147 11.3103 12.0463 9.00117 12.0463C6.7033 12.0463 5.91578 10.6278 5.8764 10.5537C5.79211 10.3872 5.64514 10.2611 5.46783 10.203C5.29051 10.1449 5.09738 10.1596 4.93091 10.2439C4.76444 10.3282 4.63827 10.4751 4.58017 10.6524C4.52206 10.8297 4.53677 11.0229 4.62106 11.1894C4.66793 11.2822 5.79109 13.4525 9.00117 13.4525C12.2122 13.4525 13.3335 11.2812 13.3794 11.1884C13.462 11.0232 13.4758 10.8321 13.4179 10.6567C13.3599 10.4814 13.2348 10.3361 13.07 10.2528Z" fill="#AF1F25"/>
</svg>
