<svg width="16" height="16" viewBox="0 0 16 16" fill="none" xmlns="http://www.w3.org/2000/svg">
<path d="M15.2549 13.915C14.7727 13.4851 14.3506 12.9924 13.9999 12.45C13.617 11.7012 13.3875 10.8836 13.3249 10.045V7.57495C13.3229 7.27493 13.2961 6.97558 13.2449 6.67995C12.8514 6.60128 12.4731 6.45945 12.1249 6.25995C12.2576 6.68737 12.3251 7.13239 12.3249 7.57995V10.05C12.3862 11.073 12.6676 12.0707 13.1499 12.975C13.4951 13.522 13.9047 14.0256 14.3699 14.475H1.5649C2.03011 14.0256 2.4397 13.522 2.7849 12.975C3.26721 12.0707 3.54862 11.073 3.6099 10.05V7.57495C3.60727 6.99629 3.71881 6.4228 3.93812 5.88731C4.15744 5.35182 4.48023 4.86485 4.88801 4.45428C5.29579 4.04372 5.78055 3.71762 6.31454 3.49466C6.84852 3.2717 7.42124 3.15626 7.9999 3.15495C8.84679 3.15563 9.67466 3.40608 10.3799 3.87495C10.3022 3.58944 10.2585 3.29573 10.2499 2.99995V2.68495C9.72783 2.42813 9.16697 2.2592 8.5899 2.18495V1.55495C8.5899 1.37792 8.51958 1.20814 8.3944 1.08296C8.26922 0.957777 8.09943 0.887451 7.9224 0.887451C7.74537 0.887451 7.57559 0.957777 7.45041 1.08296C7.32523 1.20814 7.2549 1.37792 7.2549 1.55495V2.20995C5.96276 2.39223 4.78019 3.03582 3.92551 4.02192C3.07084 5.00801 2.60177 6.27002 2.6049 7.57495V10.045C2.54228 10.8836 2.31279 11.7012 1.9299 12.45C1.58534 12.9911 1.17 13.4838 0.694902 13.915C0.641568 13.9618 0.598823 14.0195 0.569511 14.0841C0.540199 14.1488 0.524992 14.219 0.524902 14.29V14.97C0.524902 15.1026 0.577581 15.2297 0.671349 15.3235C0.765117 15.4173 0.892294 15.47 1.0249 15.47H14.9249C15.0575 15.47 15.1847 15.4173 15.2785 15.3235C15.3722 15.2297 15.4249 15.1026 15.4249 14.97V14.29C15.4248 14.219 15.4096 14.1488 15.3803 14.0841C15.351 14.0195 15.3082 13.9618 15.2549 13.915Z" fill="#121212"/>
</svg>
