<svg width="17" height="20" viewBox="0 0 17 20" fill="none" xmlns="http://www.w3.org/2000/svg">
<path d="M15.3528 5.1023C15.7386 4.71657 15.9508 4.2043 15.9508 3.65937C15.9508 3.11444 15.7386 2.60217 15.3528 2.21644L13.7344 0.59799C13.3486 0.212256 12.8364 0 12.2914 0C11.7465 0 11.2342 0.212256 10.8495 0.596969L0 11.4128V15.9182H4.50329L15.3528 5.1023ZM12.2914 2.04092L13.9109 3.65835L12.2884 5.27476L10.6699 3.65733L12.2914 2.04092ZM2.04092 13.8772V12.2598L9.22496 5.09822L10.8434 6.71667L3.66039 13.8772H2.04092ZM0 17.9591H16.3274V20H0V17.9591Z" fill="#AF1F25"/>
</svg>
