<svg width="20" height="20" viewBox="0 0 20 20" fill="none" xmlns="http://www.w3.org/2000/svg">
<path d="M14.9385 4.61215L10.5385 0.227538C10.3948 0.0827155 10.1995 0.00087245 9.99557 6.9348e-06C9.7916 -0.00085858 9.59563 0.0793243 9.45077 0.222922L9.44615 0.227538L5.06154 4.61215H0.769231C0.565218 4.61215 0.369561 4.6932 0.225302 4.83746C0.0810437 4.98171 0 5.17737 0 5.38138V19.2275C0 19.4316 0.0810437 19.6272 0.225302 19.7715C0.369561 19.9157 0.565218 19.9968 0.769231 19.9968H19.2308C19.4348 19.9968 19.6304 19.9157 19.7747 19.7715C19.919 19.6272 20 19.4316 20 19.2275V5.38138C20 5.17737 19.919 4.98171 19.7747 4.83746C19.6304 4.6932 19.4348 4.61215 19.2308 4.61215H14.9385ZM10 1.85831L12.7538 4.61215H7.24615L10 1.85831ZM18.4615 18.4583H1.53846V6.15061H18.4615V18.4583ZM6.15385 10.766C5.74582 10.766 5.35451 10.6039 5.06599 10.3154C4.77747 10.0269 4.61538 9.63556 4.61538 9.22754C4.61538 8.81951 4.77747 8.4282 5.06599 8.13968C5.35451 7.85116 5.74582 7.68908 6.15385 7.68908C6.56187 7.68908 6.95319 7.85116 7.2417 8.13968C7.53022 8.4282 7.69231 8.81951 7.69231 9.22754C7.69231 9.63556 7.53022 10.0269 7.2417 10.3154C6.95319 10.6039 6.56187 10.766 6.15385 10.766ZM16.9231 16.9198H5.38462L7.69231 12.3045L9.61539 16.1506L13.0769 9.22754L16.9231 16.9198Z" fill="#AF1F25"/>
</svg>
