<svg width="19" height="18" viewBox="0 0 19 18" fill="none" xmlns="http://www.w3.org/2000/svg">
<path d="M10.4548 12.5971C10.4196 12.5622 10.372 12.5426 10.3224 12.5426C10.2728 12.5426 10.2252 12.5622 10.19 12.5971L7.46638 15.3207C6.20538 16.5817 4.07715 16.7153 2.6849 15.3207C1.2903 13.9261 1.4239 11.8002 2.6849 10.5392L5.40847 7.81562C5.48113 7.74296 5.48113 7.62342 5.40847 7.55076L4.47561 6.6179C4.44037 6.58301 4.39278 6.56343 4.34318 6.56343C4.29359 6.56343 4.24599 6.58301 4.21075 6.6179L1.48718 9.34147C-0.495727 11.3244 -0.495727 14.5331 1.48718 16.5137C3.47009 18.4943 6.67884 18.4966 8.65941 16.5137L11.383 13.7901C11.4556 13.7175 11.4556 13.5979 11.383 13.5253L10.4548 12.5971ZM16.516 1.48718C14.5331 -0.495727 11.3244 -0.495727 9.34381 1.48718L6.6179 4.21075C6.58301 4.24599 6.56343 4.29359 6.56343 4.34318C6.56343 4.39278 6.58301 4.44037 6.6179 4.47561L7.54842 5.40612C7.62108 5.47878 7.74061 5.47878 7.81327 5.40612L10.5368 2.68255C11.7978 1.42155 13.9261 1.28795 15.3183 2.68255C16.7129 4.07715 16.5793 6.20304 15.3183 7.46404L12.5948 10.1876C12.5599 10.2228 12.5403 10.2704 12.5403 10.32C12.5403 10.3696 12.5599 10.4172 12.5948 10.4525L13.5276 11.3853C13.6003 11.458 13.7198 11.458 13.7925 11.3853L16.516 8.66175C18.4966 6.67884 18.4966 3.47009 16.516 1.48718ZM11.3009 5.72723C11.2657 5.69234 11.2181 5.67276 11.1685 5.67276C11.1189 5.67276 11.0713 5.69234 11.0361 5.72723L5.72723 11.0337C5.69234 11.069 5.67276 11.1166 5.67276 11.1662C5.67276 11.2158 5.69234 11.2634 5.72723 11.2986L6.6554 12.2268C6.72806 12.2994 6.8476 12.2994 6.92026 12.2268L12.2268 6.92026C12.2994 6.8476 12.2994 6.72806 12.2268 6.6554L11.3009 5.72723Z" fill="#AF1F25"/>
</svg>
