<svg width="40" height="40" viewBox="0 0 40 40" fill="none" xmlns="http://www.w3.org/2000/svg">
<path d="M0 1.25C0 0.918579 0.131836 0.600586 0.366211 0.366211C0.487671 0.244751 0.631714 0.150757 0.788269 0.088501C0.933838 0.0305176 1.09039 0 1.25 0H8.75C8.81775 0 8.88489 0.00549316 8.95081 0.0161743C8.99872 0.0241089 9.04633 0.03479 9.09302 0.0482178C9.11163 0.0534058 9.13025 0.0592041 9.14856 0.0653076C9.32983 0.126343 9.49615 0.228577 9.63379 0.366211C9.86816 0.600586 10 0.918579 10 1.25C10 1.58142 9.86816 1.89941 9.63379 2.13379C9.39941 2.36816 9.08142 2.5 8.75 2.5H2.5V8.75C2.5 9.08142 2.36816 9.39941 2.13379 9.63379C1.89941 9.86816 1.58142 10 1.25 10C0.918579 10 0.600586 9.86816 0.366211 9.63379C0.131836 9.39941 0 9.08142 0 8.75V1.25Z" fill="#121212"/>
<path d="M30 1.25C30 0.918579 30.1318 0.600586 30.3662 0.366211C30.4306 0.301819 30.5011 0.245361 30.5765 0.197144C30.6375 0.157776 30.7019 0.123901 30.7687 0.0961304C30.9198 0.0332642 31.0831 0 31.25 0H38.75C38.8837 0 39.0155 0.0213623 39.1403 0.0622559C39.3246 0.122986 39.494 0.22644 39.6338 0.366211C39.8682 0.600586 40 0.918579 40 1.25V8.75C40 9.08142 39.8682 9.39941 39.6338 9.63379C39.3994 9.86816 39.0814 10 38.75 10C38.4186 10 38.1006 9.86816 37.8662 9.63379C37.6318 9.39941 37.5 9.08142 37.5 8.75V2.5H31.25C30.9186 2.5 30.6006 2.36816 30.3662 2.13379C30.1318 1.89941 30 1.58142 30 1.25Z" fill="#121212"/>
<path d="M1.63544 30.061C1.82159 30.1215 1.9928 30.2252 2.13379 30.3662C2.36816 30.6006 2.5 30.9186 2.5 31.25V37.5H8.75C9.08142 37.5 9.39941 37.6318 9.63379 37.8662C9.86816 38.1006 10 38.4186 10 38.75C10 38.924 9.96368 39.0942 9.89532 39.2505C9.87823 39.2896 9.85901 39.328 9.83795 39.3652C9.78271 39.4626 9.71436 39.5532 9.63379 39.6338C9.5575 39.7101 9.47205 39.7757 9.38049 39.8294C9.19067 39.9402 8.97339 40 8.75 40H1.25C0.918579 40 0.600586 39.8682 0.366211 39.6338C0.315247 39.5828 0.269165 39.5282 0.228271 39.4702C0.198059 39.4272 0.170593 39.3823 0.146179 39.3362C0.108032 39.2645 0.0769043 39.1895 0.0534058 39.1116C0.039978 39.0674 0.0289917 39.0225 0.020752 38.9771C0.00701904 38.9026 0 38.8266 0 38.75V31.25C0 30.9186 0.131836 30.6006 0.366211 30.3662C0.600586 30.1318 0.918579 30 1.25 30C1.38214 30 1.51215 30.0211 1.63544 30.061Z" fill="#121212"/>
<path d="M38.75 30C39.0814 30 39.3994 30.1318 39.6338 30.3662C39.8682 30.6006 40 30.9186 40 31.25V38.75C40 39.0814 39.8682 39.3994 39.6338 39.6338C39.6136 39.6539 39.5929 39.6732 39.5715 39.6918C39.5416 39.718 39.5105 39.7424 39.4788 39.7656C39.4476 39.7879 39.4156 39.8087 39.3826 39.8279C39.2703 39.8938 39.1483 39.942 39.0207 39.9704C38.9325 39.9899 38.8419 40 38.75 40H31.25C30.9186 40 30.6006 39.8682 30.3662 39.6338C30.1318 39.3994 30 39.0814 30 38.75C30 38.4186 30.1318 38.1006 30.3662 37.8662C30.6006 37.6318 30.9186 37.5 31.25 37.5H37.5V31.25C37.5 30.9186 37.6318 30.6006 37.8662 30.3662C38.1006 30.1318 38.4186 30 38.75 30Z" fill="#121212"/>
<path d="M10 10H12.5V12.5H10V10Z" fill="#121212"/>
<path fill-rule="evenodd" clip-rule="evenodd" d="M17.5 5H5V17.5H17.5V5ZM7.5 7.5H15V15H7.5V7.5Z" fill="#121212"/>
<path d="M12.5 27.5H10V30H12.5V27.5Z" fill="#121212"/>
<path fill-rule="evenodd" clip-rule="evenodd" d="M5 22.5H17.5V35H5V22.5ZM15 25H7.5V32.5H15V25Z" fill="#121212"/>
<path d="M30 10H27.5V12.5H30V10Z" fill="#121212"/>
<path fill-rule="evenodd" clip-rule="evenodd" d="M22.5 5H35V17.5H22.5V5ZM25 7.5V15H32.5V7.5H25Z" fill="#121212"/>
<path fill-rule="evenodd" clip-rule="evenodd" d="M20 25H22.5V27.5H20V30H25V25H27.5V30H30V27.5H35V25H27.5V20H20V25ZM25 25H22.5V22.5H25V25Z" fill="#121212"/>
<path d="M35 30H32.5V32.5H27.5V35H35V30Z" fill="#121212"/>
<path d="M25 35V32.5H20V35H25Z" fill="#121212"/>
<path d="M35 22.5H30V20H35V22.5Z" fill="#121212"/>
</svg>
