<svg width="20" height="18" viewBox="0 0 20 18" fill="none" xmlns="http://www.w3.org/2000/svg">
<path fill-rule="evenodd" clip-rule="evenodd" d="M17.364 2.63463C18.1861 3.45464 18.8409 4.42668 19.292 5.49663C19.7617 6.60466 20.0025 7.79619 20 8.99962C20.0022 10.7933 19.4665 12.5465 18.462 14.0326C17.486 15.4799 16.1106 16.6125 14.503 17.2926C13.3939 17.7588 12.203 17.9991 11 17.9996C9.81815 18.0003 8.64777 17.7679 7.55589 17.3155C6.46404 16.8632 5.47212 16.1999 4.63699 15.3636L6.05099 13.9496C6.36871 14.267 6.71596 14.5532 7.088 14.8046C7.84447 15.3164 8.69429 15.6742 9.589 15.8577C10.5206 16.0461 11.4804 16.0461 12.412 15.8577C12.862 15.7652 13.3018 15.6285 13.725 15.4496C14.5558 15.0962 15.3112 14.5867 15.95 13.9486C16.267 13.6326 16.554 13.2836 16.804 12.9126C17.3168 12.1559 17.675 11.3053 17.858 10.4096C18.0466 9.47771 18.0466 8.5175 17.858 7.58562C17.483 5.76732 16.4013 4.17235 14.8507 3.15129C13.3001 2.13023 11.4075 1.76671 9.589 2.14061C8.69412 2.32603 7.84395 2.68401 7.086 3.19463C6.34096 3.69914 5.69911 4.34129 5.19501 5.08659C4.41347 6.24168 3.99712 7.60497 4 8.99962L4.00101 9.02464H6L3 12.9996L0 9.02464H2.00101L2 8.99962C1.99832 7.79594 2.23911 6.60423 2.70801 5.49565C3.16133 4.42747 3.81589 3.45653 4.636 2.6356C5.87947 1.3886 7.46268 0.535446 9.188 0.182602C10.3844 -0.0608673 11.6176 -0.0608673 12.814 0.182602C14.5377 0.537704 16.1196 1.39018 17.364 2.63463ZM10 9.99962V4.99962H12V7.99962H15V9.99962H10Z" fill="#ABABAB"/>
</svg>
