<svg width="52" height="300" viewBox="0 0 52 300" fill="none" xmlns="http://www.w3.org/2000/svg">
<path d="M11.9235 166.05C10.0467 168.574 7.86999 171.026 5.08599 172.83C4.28878 173.348 3.54404 174.457 2.35696 173.678C1.36232 173.025 0.56762 170.836 1.15241 169.751C2.04459 168.087 3.02174 166.373 4.34126 165.061C5.79824 163.614 6.57546 162.054 6.78039 160.08C6.94533 158.483 7.19274 156.894 7.40266 155.302C7.24772 155.229 7.09278 155.159 6.93783 155.087C6.31306 156.006 5.66077 156.909 5.07348 157.851C4.52618 158.73 4.11133 159.698 3.51155 160.537C3.16667 161.02 2.62437 161.449 2.07706 161.682C0.877496 162.194 -0.0196651 161.582 0.000327664 160.272C0.0103241 159.585 0.165249 158.865 0.417658 158.223C1.23736 156.136 2.11707 154.075 3.00175 152.015C4.17383 149.284 6.00816 147.057 8.23735 145.113C8.63221 144.768 8.86213 144.121 8.9546 143.578C9.07205 142.891 8.9696 142.169 8.9646 141.459C8.94211 138.85 8.65721 136.356 7.8725 133.774C6.78539 130.201 6.32304 126.377 6.04564 122.628C5.69077 117.825 5.29591 113.029 4.86107 108.234C4.40873 103.23 4.52119 98.1722 4.45371 93.1365C4.42372 90.8498 4.56617 88.5606 4.61116 86.2715C4.61615 85.9941 4.56869 85.6842 4.44374 85.4418C3.06173 82.7852 3.24414 80.0687 4.13882 77.3397C5.76824 72.374 8.77217 68.223 12.2084 64.4143C15.1874 61.1155 18.4862 58.1066 21.5726 54.9028C22.7496 53.6807 23.8367 52.3412 24.7514 50.9167C25.1063 50.3644 25.0188 49.3997 24.8764 48.675C24.4715 46.6432 23.9642 44.6315 23.4344 42.6297C23.1145 41.4201 22.1049 41.1202 21.0053 41.0902C19.8807 41.0577 18.7561 41.1177 17.634 41.0777C15.2748 40.9928 14.0078 39.4658 14.2227 37.1242C14.3102 36.157 14.1927 35.1699 14.2277 34.1952C14.2652 33.1106 14.3227 32.0235 14.4576 30.9489C14.5676 30.0817 14.3876 29.5669 13.443 29.317C11.5711 28.8196 11.2313 28.1674 11.8111 26.3455C12.036 25.6383 12.3509 24.951 12.7057 24.2988C13.5654 22.7218 14.3827 21.2899 14.4401 19.2781C14.5251 16.3291 15.4148 13.4027 15.9321 10.4637C16.0371 9.86896 16.112 9.22669 16.0096 8.6419C15.5072 5.81292 16.2495 4.00107 18.8411 2.66655C20.2655 1.93431 21.82 1.28205 23.3844 1.03214C26.6157 0.514824 29.8946 -0.00249008 33.1509 9.01841e-06C42.655 0.00500722 48.0155 7.58228 49.0652 14.1374C49.7599 18.4884 48.7753 22.5369 47.0009 26.478C45.6214 29.5444 44.2344 32.6158 43.0323 35.7521C41.2905 40.2955 41.9977 44.5715 44.8967 48.4651C47.8906 52.4861 49.3026 57.0645 49.8099 61.9877C50.7071 70.6871 48.5254 78.8591 45.7689 86.9862C43.3023 94.2536 41.033 101.591 38.8738 108.953C37.7517 112.774 38.5439 116.563 40.2508 120.087C41.4254 122.513 42.7974 124.855 44.2394 127.137C47.0034 131.515 48.4654 136.303 49.0927 141.399C49.7974 147.127 48.9927 152.595 46.2287 157.693C45.4615 159.11 44.3893 160.357 43.5296 161.727C43.1973 162.257 42.8849 162.904 42.8599 163.511C42.4675 173.075 42.1477 182.644 41.7553 192.208C41.6103 195.74 41.218 199.263 41.123 202.795C40.9756 208.403 42.7599 213.468 46.1312 217.887C48.9802 221.615 50.3297 225.821 51.0745 230.357C52.3265 237.964 50.5796 245.192 48.7203 252.474C47.0709 258.942 45.6514 265.479 44.4493 272.042C43.4847 277.308 43.897 282.571 46.0463 287.579C46.4211 288.451 46.9259 289.273 47.4008 290.098C48.6028 292.185 49.2426 294.384 48.5978 296.778C48.1055 298.615 47.0484 299.475 45.1791 299.44C43.3148 299.405 41.4554 299.07 39.5911 299.052C37.0695 299.03 34.5354 299.072 32.0238 299.282C24.5915 299.907 17.1616 300.289 9.70933 299.725C8.6747 299.647 7.63507 299.575 6.60794 299.432C4.94104 299.202 3.92639 298.04 3.97638 296.503C4.02136 295.131 4.95353 294.244 6.64043 294.089C8.33731 293.934 10.0667 294.009 11.7361 293.712C16.112 292.93 19.9132 290.755 23.5793 288.374C25.3187 287.244 26.8532 285.797 28.6 284.678C31.2491 282.981 31.9788 280.427 32.2112 277.545C32.841 269.75 32.2237 261.993 31.534 254.241C31.0741 249.068 30.5943 243.892 29.9196 238.742C29.3348 234.263 28.4976 229.815 27.6804 225.371C27.5704 224.777 27.0281 224.137 26.5083 223.762C24.0567 221.983 23.202 219.426 22.6872 216.61C21.9724 212.696 21.1277 208.805 20.333 204.904C20.293 204.701 20.2281 204.491 20.1181 204.322C16.7318 199.103 15.3973 193.181 14.5101 187.18C13.473 180.163 12.7707 173.09 11.9235 166.05ZM30.4819 113.162C30.4544 113.022 30.4269 112.882 30.3994 112.744C32.7411 112.704 33.2359 111.098 33.5607 109.338C33.9006 107.504 34.0956 105.622 34.6354 103.848C36.6121 97.3375 38.569 90.8123 40.8007 84.3871C42.69 78.9416 44.2794 73.4786 44.4743 67.6757C44.4893 67.2583 44.9142 66.8535 45.1466 66.4436C45.3815 66.8884 45.8588 67.3583 45.8163 67.7731C45.4939 70.8645 45.3965 74.0334 44.5993 77.0098C43.2797 81.933 41.4079 86.7038 39.9185 91.5846C38.3215 96.8152 36.8946 102.098 35.3976 107.361C34.9028 109.103 34.4279 110.853 33.9331 112.594C33.7382 113.282 33.4233 113.949 33.3158 114.649C32.9635 116.938 32.9635 119.322 32.3212 121.519C30.2919 128.464 26.4608 134.522 22.4248 140.439C19.8457 144.223 17.8739 148.224 17.0217 152.78C16.3544 156.359 15.7372 159.98 13.8328 163.201C13.6204 163.559 13.6079 164.083 13.6329 164.521C14.0827 172.74 14.6776 180.945 16.312 189.035C17.3416 194.133 18.4812 199.193 21.4226 203.627C21.6225 203.927 21.725 204.314 21.7975 204.674C22.6422 208.985 23.4244 213.308 24.3241 217.607C24.7939 219.848 25.7835 221.823 28.0052 222.98C29.7421 220.868 29.1873 218.479 28.9799 216.145C29.3073 216.177 29.4472 216.157 29.5422 216.212C29.6372 216.267 29.7296 216.39 29.7496 216.497C30.1045 218.486 30.3244 220.556 29.3273 222.35C28.6925 223.49 28.735 224.352 29.2173 225.401C29.4047 225.811 29.4997 226.276 29.5647 226.726C30.3994 232.479 31.3241 238.222 32.0188 243.992C32.6086 248.9 32.9535 253.839 33.3658 258.764C33.9206 265.407 34.158 272.06 33.5382 278.712C33.2883 281.404 32.4362 283.79 30.027 285.415C28.4451 286.482 27.0431 287.816 25.4736 288.906C21.5651 291.62 17.4241 293.934 12.7457 295.001C10.9464 295.411 9.02707 295.279 7.17023 295.476C6.47798 295.551 5.53332 295.534 5.50833 296.596C5.48333 297.663 6.27055 297.973 7.16523 298.08C7.90746 298.17 8.65221 298.255 9.39694 298.31C17.434 298.907 25.4412 298.428 33.4483 297.68C35.54 297.485 37.6643 297.548 39.7685 297.618C41.4254 297.673 43.0723 297.995 44.7317 298.065C46.2587 298.128 46.8884 297.555 47.2733 296.051C47.7531 294.169 47.1009 292.48 46.1537 290.953C42.635 285.277 41.9227 279.02 42.9149 272.672C43.9645 265.962 45.4965 259.312 47.1309 252.712C48.8627 245.717 50.7521 238.797 49.7224 231.472C49.0952 227.013 48.028 222.76 45.1941 219.114C44.3069 217.972 43.4472 216.762 42.8299 215.462C41.7828 213.263 40.9356 210.969 40.0909 208.925C39.9884 209.347 39.8185 210.032 39.651 210.714C39.5561 210.697 39.4611 210.682 39.3662 210.664C40.0759 194.717 40.7856 178.773 41.4979 162.789C40.3808 162.789 39.5036 162.854 38.6414 162.769C37.8392 162.691 36.8621 163.046 36.1448 162.092C36.4447 161.984 36.5572 161.919 36.6746 161.909C36.922 161.889 37.1869 161.849 37.4219 161.907C40.7682 162.734 42.7574 161.035 44.1944 158.291C44.3094 158.071 44.4468 157.861 44.5743 157.646C47.5332 152.595 48.2954 147.102 47.6257 141.399C47.0209 136.263 45.3865 131.465 42.48 127.117C41.2605 125.29 40.1809 123.351 39.2087 121.379C37.1695 117.245 36.1448 112.879 37.5018 108.344C39.786 100.714 42.1202 93.0915 44.6867 85.5542C47.3933 77.6021 49.2676 69.5875 48.2105 61.1205C47.6757 56.8471 46.2587 52.931 43.7646 49.3647C42.69 47.8278 41.6878 46.0734 41.278 44.2766C40.7382 41.8999 40.8131 39.3833 40.6232 36.9167C40.4208 36.9492 39.901 37.0317 39.3837 37.1217C36.5672 37.6115 34.6004 36.157 34.168 33.328C33.9206 31.7061 33.5907 30.0992 33.2759 28.3773C31.9913 29.5494 31.4315 29.7893 30.6268 29.3669C30.1745 29.1295 29.8396 28.6722 29.2173 28.0974C29.8096 28.0449 29.952 27.9849 30.042 28.0299C31.6939 28.8921 32.2437 28.7697 32.8285 27.0078C33.4008 25.2834 33.8182 23.4941 34.1355 21.7022C34.3829 20.3027 33.4333 18.7658 32.4262 18.5583C31.4015 18.3459 30.2819 19.2656 29.8171 20.775C29.5147 21.7622 29.3648 22.8018 29.0149 23.7715C28.64 24.8136 28.1852 25.8407 27.6129 26.7854C27.428 27.0928 26.7307 27.2927 26.3409 27.2077C26.0685 27.1477 25.7511 26.5255 25.7436 26.1481C25.7186 24.8636 25.7935 23.574 25.8885 22.292C26.011 20.6226 26.2509 18.9282 24.9014 17.5937C23.8542 16.5566 23.4219 15.3245 23.4619 13.88C23.4819 13.1728 23.5244 12.458 23.4469 11.7583C23.3694 11.041 23.1545 10.3288 22.2173 10.3213C20.6579 10.3088 19.0984 10.3188 17.3891 10.3188C17.3466 10.5362 17.2266 11.0485 17.1467 11.5683C16.6993 14.4348 16.302 17.3088 15.7996 20.1653C15.5972 21.3198 15.2648 22.4719 14.8325 23.5615C14.4226 24.5962 13.7879 25.5383 13.2905 26.5405C12.8957 27.3327 13.0281 27.7825 14.0403 28.0149C15.7721 28.4148 16.0046 28.8646 15.8821 30.689C15.8621 30.9789 15.8846 31.2938 15.7822 31.5537C15.3498 32.6383 15.9946 32.7382 16.8118 32.7782C17.2316 32.7982 17.644 32.9457 18.0588 33.0356C18.0313 33.1881 18.0038 33.343 17.9763 33.4955C17.489 33.5229 16.9617 33.4505 16.5244 33.6154C16.2245 33.7279 15.8846 34.1527 15.8471 34.4701C15.7421 35.3573 15.8371 36.267 15.7621 37.1591C15.6397 38.6061 16.147 39.5708 17.3791 39.6457C20.2555 39.8257 23.107 39.8232 25.7361 38.2787C27.8628 37.0267 29.3798 35.5147 28.9874 32.7932C28.9274 32.3784 29.0973 31.9285 29.1623 31.4937C29.3448 31.5012 29.5272 31.5112 29.7121 31.5187C29.7121 32.7107 29.972 33.9753 29.6621 35.0824C28.8174 38.1113 26.0585 39.0585 23.4994 40.1581C25.0238 41.83 26.8806 49.3797 26.2959 51.8064C28.7825 51.8064 31.2216 51.8064 33.6607 51.8064C33.6707 51.9563 33.6807 52.1038 33.6907 52.2537C33.2608 52.3262 32.831 52.4511 32.4012 52.4611C30.5693 52.4986 28.74 52.5061 26.9081 52.5161C25.9835 52.5211 25.2712 52.816 24.6964 53.6282C24.0792 54.5054 23.3044 55.2801 22.5472 56.0498C19.3983 59.2512 16.102 62.3226 13.1006 65.6564C9.86676 69.2501 7.05779 73.1837 5.52834 77.8695C4.89856 79.8038 4.69114 81.7381 5.30842 83.7299C5.72077 85.0594 6.50298 85.7367 7.92497 85.6817C9.08955 85.6367 10.2541 85.6617 11.4187 85.6792C11.7486 85.6842 12.076 85.7691 12.4034 85.8191C12.3984 85.9916 12.3959 86.164 12.3909 86.3364C10.3491 86.7213 8.27483 86.5414 6.01065 86.3065C6.01065 87.3611 6.04816 88.3557 6.00567 89.3454C5.63581 97.5474 5.85821 105.709 7.01529 113.867C7.60258 118.008 7.39015 122.261 7.88247 126.422C8.22485 129.316 9.14454 132.142 9.8093 134.999C9.97424 135.709 10.2766 136.411 10.3016 137.126C10.3691 139.142 10.3241 141.164 10.3241 143.186C10.459 143.196 10.5965 143.206 10.7315 143.216C12.0135 141.284 12.3984 139.035 12.7007 136.806C13.2855 132.487 13.6054 128.129 14.2627 123.823C14.9949 119.035 16.1895 114.376 19.4383 110.528C19.8082 110.09 20.1056 109.398 20.0681 108.848C19.9156 106.654 19.5358 104.475 19.3933 102.281C19.031 96.7102 18.826 91.1622 20.7054 85.7417C21.3077 84.0048 21.5101 82.098 21.685 80.2511C21.81 78.9066 21.2627 78.6542 20.0231 79.0241C19.6258 79.144 19.1209 78.9066 18.6661 78.8316C18.951 78.4393 19.1534 77.8795 19.5383 77.6846C21.5226 76.6874 23.4019 78.1944 23.162 80.656C22.992 82.3879 22.8271 84.1797 22.2498 85.7991C19.8982 92.3793 20.5229 99.0769 21.1977 105.792C21.2352 106.164 21.2702 106.537 21.3251 106.907C21.3726 107.229 21.4451 107.546 21.5326 108.011C22.6422 106.469 22.8171 104.647 23.9192 103.378C24.1091 103.478 24.2991 103.575 24.489 103.675C23.6668 105.46 22.9446 107.299 21.9974 109.016C20.7779 111.23 19.1484 113.237 18.1088 115.523C15.9346 120.307 15.3398 125.482 14.795 130.663C14.4301 134.122 13.9478 137.583 13.2605 140.989C12.9956 142.296 12.3234 143.908 11.3063 144.608C7.12526 147.484 4.51869 151.371 2.92676 156.079C2.45943 157.463 1.84715 158.798 1.29985 160.155C1.45229 160.242 1.60723 160.327 1.75967 160.415C2.30698 159.588 2.8618 158.765 3.4041 157.933C4.19382 156.721 4.86608 155.404 5.81324 154.332C6.23059 153.86 7.30519 153.57 7.88998 153.767C8.35231 153.925 8.79965 154.962 8.76966 155.584C8.6797 157.401 8.32732 159.203 8.1099 161.017C7.88498 162.896 7.18773 164.458 5.70076 165.755C4.65364 166.668 3.84143 167.88 3.04171 169.039C2.66935 169.581 2.57438 170.316 2.35446 170.964C2.47692 171.018 2.59689 171.071 2.71935 171.126C4.31878 169.494 6.07062 167.982 7.47512 166.195C8.86961 164.423 9.91175 162.374 11.1088 160.445C11.2088 160.512 11.3088 160.582 11.4062 160.65C10.2341 165.633 6.16311 168.569 2.93677 172.138C3.24916 172.181 3.49906 172.161 3.679 172.038C8.18238 168.962 11.6911 164.998 13.6954 159.92C14.66 157.476 15.1849 154.824 15.6522 152.223C16.5044 147.484 18.6261 143.361 21.3102 139.455C24.8489 134.302 28.0177 128.944 30.3169 123.103C31.529 120.027 31.9413 116.865 31.7139 113.617C31.2616 113.452 30.8717 113.307 30.4819 113.162ZM26.4658 26.3055C26.6557 26.368 26.8482 26.4305 27.0381 26.4955C27.4279 25.5758 27.8753 24.6736 28.1902 23.729C28.635 22.397 28.8799 20.99 29.3998 19.6929C29.9571 18.2984 31.2616 17.5562 32.4212 17.7136C33.6457 17.8786 34.7828 18.9907 34.7778 20.5401C34.7703 22.252 34.368 23.9639 34.138 25.6758C34.0531 26.323 33.8282 26.9928 33.9231 27.6126C34.213 29.5369 34.6404 31.4412 34.9877 33.358C35.3951 35.5922 37.0795 36.6868 39.3387 36.3444C40.7407 36.1295 41.5504 35.5697 42.0902 34.1652C43.2947 31.0288 44.7767 27.9974 46.0813 24.8986C47.9631 20.4227 48.5953 15.8293 46.711 11.2135C44.4343 5.63298 40.4583 2.06177 34.243 1.51946C29.8446 1.1371 25.5311 1.86434 21.3451 3.11389C20.0056 3.51374 18.6311 4.51089 17.7664 5.62049C16.3719 7.40984 17.3991 9.29916 19.6233 9.4841C20.4055 9.54907 21.2052 9.60155 21.9824 9.51659C23.037 9.40163 23.7718 9.85646 23.9967 10.7786C24.2491 11.8058 24.1241 12.9204 24.3266 13.9675C24.509 14.9146 24.6614 16.0542 25.2637 16.6965C26.8532 18.3859 26.9456 20.2852 26.6907 22.3795C26.5358 23.6715 26.5358 24.9935 26.4658 26.3055Z" fill="black"/>
</svg>
