<svg width="20" height="18" viewBox="0 0 20 18" fill="none" xmlns="http://www.w3.org/2000/svg">
<path d="M1.73575 0.0573257L19.2919 8.49964C19.3877 8.54568 19.4683 8.61696 19.5247 8.7054C19.581 8.79385 19.6109 8.89592 19.6109 9.00008C19.6109 9.10424 19.581 9.20632 19.5247 9.29477C19.4683 9.38321 19.3877 9.45449 19.2919 9.50053L1.73461 17.9428C1.63625 17.99 1.52607 18.0086 1.4172 17.9963C1.30833 17.9841 1.20536 17.9416 1.12054 17.8739C1.03572 17.8062 0.97264 17.7161 0.938803 17.6144C0.904966 17.5126 0.901802 17.4036 0.929686 17.3001L2.66873 10.8897C2.69692 10.786 2.75516 10.6924 2.83648 10.6202C2.9178 10.5479 3.01875 10.5001 3.12721 10.4825L10.9946 9.2026C11.0415 9.19503 11.0857 9.17616 11.1232 9.14772C11.1608 9.11927 11.1904 9.08215 11.2096 9.03969L11.2302 8.97275C11.2408 8.91069 11.2297 8.84694 11.1986 8.79185C11.1674 8.73675 11.1181 8.69354 11.0587 8.66924L10.9946 8.65139L3.08376 7.36485C2.97551 7.34699 2.87481 7.29908 2.79371 7.22686C2.71261 7.15464 2.65453 7.06115 2.62642 6.95757L0.929686 0.701155C0.901511 0.597651 0.904457 0.48842 0.938171 0.386505C0.971885 0.284591 1.03494 0.194299 1.11982 0.126413C1.20469 0.0585263 1.30779 0.0159133 1.4168 0.00366262C1.52582 -0.00858808 1.63615 0.0100412 1.73461 0.0573257H1.73575Z" fill="#AF1F25"/>
</svg>
