<svg width="18" height="18" viewBox="0 0 18 18" fill="none" xmlns="http://www.w3.org/2000/svg">
<path d="M1.62862 8.83286C1.65004 7.89643 1.8429 6.98786 2.20504 6.13286C2.57575 5.25429 3.10718 4.46786 3.78432 3.78857C4.46146 3.10929 5.25002 2.57786 6.12859 2.20714C7.03715 1.82357 8.00143 1.62857 8.99786 1.62857C9.99428 1.62857 10.9586 1.82357 11.865 2.20714C12.741 2.5771 13.5366 3.11425 14.2071 3.78857C14.4193 4.00071 14.6185 4.22571 14.8028 4.46143L13.5128 5.46857C13.4873 5.48832 13.4679 5.51486 13.4568 5.54516C13.4457 5.57546 13.4433 5.60828 13.45 5.63984C13.4568 5.6714 13.4722 5.70043 13.4947 5.72358C13.5172 5.74673 13.5458 5.76307 13.5771 5.77071L17.3421 6.69214C17.4492 6.71786 17.5542 6.63643 17.5542 6.52714L17.5714 2.65071C17.5714 2.50714 17.4064 2.42571 17.295 2.51571L16.0864 3.46071C14.4385 1.35214 11.8757 0 8.99571 0C4.08646 0 0.0921959 3.93429 5.3584e-05 8.82429C-0.000518352 8.84716 0.00349311 8.86991 0.0118517 8.89121C0.0202103 8.9125 0.0327469 8.93191 0.0487227 8.94828C0.0646986 8.96466 0.0837906 8.97767 0.104873 8.98655C0.125956 8.99544 0.148604 9.00001 0.171481 9H1.45719C1.55147 9 1.62647 8.925 1.62862 8.83286ZM17.8285 9H16.5428C16.4485 9 16.3735 9.075 16.3714 9.16714C16.35 10.1036 16.1571 11.0121 15.795 11.8671C15.4242 12.7457 14.8928 13.5343 14.2157 14.2114C13.5322 14.8977 12.7197 15.4419 11.8249 15.8126C10.93 16.1834 9.9707 16.3733 9.00214 16.3714C8.03391 16.3732 7.0749 16.1833 6.18044 15.8126C5.28599 15.4418 4.47381 14.8977 3.79075 14.2114C3.5786 13.9993 3.37932 13.7743 3.19503 13.5386L4.48503 12.5314C4.51055 12.5117 4.52998 12.4851 4.54109 12.4548C4.5522 12.4245 4.55453 12.3917 4.54781 12.3602C4.54109 12.3286 4.52561 12.2996 4.50313 12.2764C4.48065 12.2533 4.45209 12.2369 4.42074 12.2293L0.655764 11.3079C0.548622 11.2821 0.443622 11.3636 0.443622 11.4729L0.428622 15.3514C0.428622 15.495 0.593622 15.5764 0.705049 15.4864L1.91361 14.5414C3.56146 16.6479 6.1243 18 9.00429 18C13.9157 18 17.9078 14.0636 17.9999 9.17571C18.0005 9.15284 17.9965 9.13009 17.9881 9.1088C17.9798 9.0875 17.9673 9.06809 17.9513 9.05172C17.9353 9.03534 17.9162 9.02233 17.8951 9.01345C17.874 9.00457 17.8514 8.99999 17.8285 9Z" fill="#AF1F25"/>
</svg>
