<svg width="18" height="20" viewBox="0 0 18 20" fill="none" xmlns="http://www.w3.org/2000/svg">
<path d="M5 12.0002C4.71667 12.0002 4.479 11.9042 4.287 11.7122C4.09567 11.5209 4 11.2836 4 11.0002C4 10.7169 4.09567 10.4792 4.287 10.2872C4.479 10.0959 4.71667 10.0002 5 10.0002H13C13.2833 10.0002 13.5207 10.0959 13.712 10.2872C13.904 10.4792 14 10.7169 14 11.0002C14 11.2836 13.904 11.5209 13.712 11.7122C13.5207 11.9042 13.2833 12.0002 13 12.0002H5ZM5 16.0002C4.71667 16.0002 4.479 15.9042 4.287 15.7122C4.09567 15.5209 4 15.2836 4 15.0002C4 14.7169 4.09567 14.4796 4.287 14.2882C4.479 14.0962 4.71667 14.0002 5 14.0002H10C10.2833 14.0002 10.521 14.0962 10.713 14.2882C10.9043 14.4796 11 14.7169 11 15.0002C11 15.2836 10.9043 15.5209 10.713 15.7122C10.521 15.9042 10.2833 16.0002 10 16.0002H5ZM2 20.0002C1.45 20.0002 0.979 19.8046 0.587 19.4132C0.195667 19.0212 0 18.5502 0 18.0002V4.00024C0 3.45024 0.195667 2.97958 0.587 2.58824C0.979 2.19624 1.45 2.00024 2 2.00024H3V1.00024C3 0.716911 3.09567 0.479244 3.287 0.287244C3.479 0.0959107 3.71667 0.000244141 4 0.000244141C4.28333 0.000244141 4.521 0.0959107 4.713 0.287244C4.90433 0.479244 5 0.716911 5 1.00024V2.00024H13V1.00024C13 0.716911 13.096 0.479244 13.288 0.287244C13.4793 0.0959107 13.7167 0.000244141 14 0.000244141C14.2833 0.000244141 14.5207 0.0959107 14.712 0.287244C14.904 0.479244 15 0.716911 15 1.00024V2.00024H16C16.55 2.00024 17.021 2.19624 17.413 2.58824C17.8043 2.97958 18 3.45024 18 4.00024V18.0002C18 18.5502 17.8043 19.0212 17.413 19.4132C17.021 19.8046 16.55 20.0002 16 20.0002H2ZM2 18.0002H16V8.00024H2V18.0002ZM2 6.00024H16V4.00024H2V6.00024ZM2 6.00024V4.00024V6.00024Z" fill="#ABABAB"/>
</svg>
