<svg width="14" height="18" viewBox="0 0 14 18" fill="none" xmlns="http://www.w3.org/2000/svg">
<path d="M5.625 7.3125C5.625 7.16332 5.68426 7.02024 5.78975 6.91475C5.89524 6.80926 6.03832 6.75 6.1875 6.75H10.125C10.2742 6.75 10.4173 6.80926 10.5227 6.91475C10.6282 7.02024 10.6875 7.16332 10.6875 7.3125C10.6875 7.46168 10.6282 7.60476 10.5227 7.71025C10.4173 7.81574 10.2742 7.875 10.125 7.875H6.1875C6.03832 7.875 5.89524 7.81574 5.78975 7.71025C5.68426 7.60476 5.625 7.46168 5.625 7.3125ZM5.625 10.6875C5.625 10.5383 5.68426 10.3952 5.78975 10.2898C5.89524 10.1843 6.03832 10.125 6.1875 10.125H10.125C10.2742 10.125 10.4173 10.1843 10.5227 10.2898C10.6282 10.3952 10.6875 10.5383 10.6875 10.6875C10.6875 10.8367 10.6282 10.9798 10.5227 11.0852C10.4173 11.1907 10.2742 11.25 10.125 11.25H6.1875C6.03832 11.25 5.89524 11.1907 5.78975 11.0852C5.68426 10.9798 5.625 10.8367 5.625 10.6875ZM5.625 14.0625C5.625 13.9133 5.68426 13.7702 5.78975 13.6648C5.89524 13.5593 6.03832 13.5 6.1875 13.5H10.125C10.2742 13.5 10.4173 13.5593 10.5227 13.6648C10.6282 13.7702 10.6875 13.9133 10.6875 14.0625C10.6875 14.2117 10.6282 14.3548 10.5227 14.4602C10.4173 14.5657 10.2742 14.625 10.125 14.625H6.1875C6.03832 14.625 5.89524 14.5657 5.78975 14.4602C5.68426 14.3548 5.625 14.2117 5.625 14.0625ZM4.5 7.3125C4.5 7.53628 4.41111 7.75089 4.25287 7.90912C4.09464 8.06736 3.88003 8.15625 3.65625 8.15625C3.43247 8.15625 3.21786 8.06736 3.05963 7.90912C2.90139 7.75089 2.8125 7.53628 2.8125 7.3125C2.8125 7.08872 2.90139 6.87411 3.05963 6.71588C3.21786 6.55764 3.43247 6.46875 3.65625 6.46875C3.88003 6.46875 4.09464 6.55764 4.25287 6.71588C4.41111 6.87411 4.5 7.08872 4.5 7.3125ZM4.5 10.6875C4.5 10.9113 4.41111 11.1259 4.25287 11.2841C4.09464 11.4424 3.88003 11.5312 3.65625 11.5312C3.43247 11.5312 3.21786 11.4424 3.05963 11.2841C2.90139 11.1259 2.8125 10.9113 2.8125 10.6875C2.8125 10.4637 2.90139 10.2491 3.05963 10.0909C3.21786 9.93264 3.43247 9.84375 3.65625 9.84375C3.88003 9.84375 4.09464 9.93264 4.25287 10.0909C4.41111 10.2491 4.5 10.4637 4.5 10.6875ZM3.65625 14.9062C3.88003 14.9062 4.09464 14.8174 4.25287 14.6591C4.41111 14.5009 4.5 14.2863 4.5 14.0625C4.5 13.8387 4.41111 13.6241 4.25287 13.4659C4.09464 13.3076 3.88003 13.2188 3.65625 13.2188C3.43247 13.2188 3.21786 13.3076 3.05963 13.4659C2.90139 13.6241 2.8125 13.8387 2.8125 14.0625C2.8125 14.2863 2.90139 14.5009 3.05963 14.6591C3.21786 14.8174 3.43247 14.9062 3.65625 14.9062ZM3.47062 1.125C3.587 0.79585 3.80259 0.510895 4.0877 0.309407C4.3728 0.107919 4.71338 -0.00018279 5.0625 2.32016e-07H8.4375C8.78662 -0.00018279 9.1272 0.107919 9.4123 0.309407C9.69741 0.510895 9.913 0.79585 10.0294 1.125H11.8125C12.2601 1.125 12.6893 1.30279 13.0057 1.61926C13.3222 1.93573 13.5 2.36495 13.5 2.8125V16.3125C13.5 16.7601 13.3222 17.1893 13.0057 17.5057C12.6893 17.8222 12.2601 18 11.8125 18H1.6875C1.23995 18 0.810725 17.8222 0.494257 17.5057C0.177789 17.1893 0 16.7601 0 16.3125V2.8125C0 2.36495 0.177789 1.93573 0.494257 1.61926C0.810725 1.30279 1.23995 1.125 1.6875 1.125H3.47062ZM5.0625 1.125C4.91332 1.125 4.77024 1.18426 4.66475 1.28975C4.55926 1.39524 4.5 1.53832 4.5 1.6875C4.5 1.83668 4.55926 1.97976 4.66475 2.08525C4.77024 2.19074 4.91332 2.25 5.0625 2.25H8.4375C8.58668 2.25 8.72976 2.19074 8.83525 2.08525C8.94074 1.97976 9 1.83668 9 1.6875C9 1.53832 8.94074 1.39524 8.83525 1.28975C8.72976 1.18426 8.58668 1.125 8.4375 1.125H5.0625ZM3.47062 2.25H1.6875C1.53832 2.25 1.39524 2.30926 1.28975 2.41475C1.18426 2.52024 1.125 2.66332 1.125 2.8125V16.3125C1.125 16.4617 1.18426 16.6048 1.28975 16.7102C1.39524 16.8157 1.53832 16.875 1.6875 16.875H11.8125C11.9617 16.875 12.1048 16.8157 12.2102 16.7102C12.3157 16.6048 12.375 16.4617 12.375 16.3125V2.8125C12.375 2.66332 12.3157 2.52024 12.2102 2.41475C12.1048 2.30926 11.9617 2.25 11.8125 2.25H10.0294C9.913 2.57915 9.69741 2.86411 9.4123 3.06559C9.1272 3.26708 8.78662 3.37518 8.4375 3.375H5.0625C4.71338 3.37518 4.3728 3.26708 4.0877 3.06559C3.80259 2.86411 3.587 2.57915 3.47062 2.25Z" fill="#AF1F25"/>
</svg>
